999
libcadmapper 42140d8
  0
SECTION
  2
HEADER
  9
$ACADVER
  1
AC1018
  9
$ACADMAINTVER
 70
104
  9
$DWGCODEPAGE
  3
ANSI_1252
  9
$LASTSAVEDBY
  1
unknown
  9
$INSBASE
 10
0.0
 20
0.0
 30
0.0
  9
$EXTMIN
 10
1e+20
 20
1e+20
 30
1e+20
  9
$EXTMAX
 10
-1e+20
 20
-1e+20
 30
-1e+20
  9
$LIMMIN
 10
0.0
 20
0.0
  9
$LIMMAX
 10
12.0
 20
9.0
  9
$ORTHOMODE
 70
0
  9
$REGENMODE
 70
1
  9
$FILLMODE
 70
1
  9
$QTEXTMODE
 70
0
  9
$MIRRTEXT
 70
0
  9
$LTSCALE
 40
1.0
  9
$ATTMODE
 70
1
  9
$TEXTSIZE
 40
0.2
  9
$TRACEWID
 40
0.05
  9
$TEXTSTYLE
  7
Notes
  9
$CLAYER
  8
0
  9
$CELTYPE
  6
ByLayer
  9
$CECOLOR
 62
256
  9
$CELTSCALE
 40
1.0
  9
$DISPSILH
 70
0
  9
$DIMSCALE
 40
1.0
  9
$DIMASZ
 40
3.0
  9
$DIMEXO
 40
1.5
  9
$DIMDLI
 40
6.0
  9
$DIMRND
 40
0.0
  9
$DIMDLE
 40
0.0
  9
$DIMEXE
 40
3.0
  9
$DIMTP
 40
0.0
  9
$DIMTM
 40
0.0
  9
$DIMTXT
 40
3.0
  9
$DIMCEN
 40
3.0
  9
$DIMTSZ
 40
0.0
  9
$DIMTOL
 70
0
  9
$DIMLIM
 70
0
  9
$DIMTIH
 70
0
  9
$DIMTOH
 70
0
  9
$DIMSE1
 70
0
  9
$DIMSE2
 70
0
  9
$DIMTAD
 70
1
  9
$DIMZIN
 70
3
  9
$DIMBLK
  1

  9
$DIMASO
 70
1
  9
$DIMSHO
 70
1
  9
$DIMPOST
  1

  9
$DIMAPOST
  1

  9
$DIMALT
 70
0
  9
$DIMALTD
 70
2
  9
$DIMALTF
 40
25.4
  9
$DIMLFAC
 40
1.0
  9
$DIMTOFL
 70
0
  9
$DIMTVP
 40
0.0
  9
$DIMTIX
 70
0
  9
$DIMSOXD
 70
0
  9
$DIMSAH
 70
0
  9
$DIMBLK1
  1

  9
$DIMBLK2
  1

  9
$DIMSTYLE
  2
Civil-Metric
  9
$DIMCLRD
 70
0
  9
$DIMCLRE
 70
0
  9
$DIMCLRT
 70
0
  9
$DIMTFAC
 40
1.0
  9
$DIMGAP
 40
2.0
  9
$DIMJUST
 70
0
  9
$DIMSD1
 70
0
  9
$DIMSD2
 70
0
  9
$DIMTOLJ
 70
1
  9
$DIMTZIN
 70
0
  9
$DIMALTZ
 70
0
  9
$DIMALTTZ
 70
0
  9
$DIMUPT
 70
0
  9
$DIMDEC
 70
2
  9
$DIMTDEC
 70
2
  9
$DIMALTU
 70
2
  9
$DIMALTTD
 70
2
  9
$DIMTXSTY
  7
Standard
  9
$DIMAUNIT
 70
0
  9
$DIMADEC
 70
2
  9
$DIMALTRND
 40
0.0
  9
$DIMAZIN
 70
2
  9
$DIMDSEP
 70
46
  9
$DIMATFIT
 70
3
  9
$DIMFRAC
 70
1
  9
$DIMLDRBLK
  1

  9
$DIMLUNIT
 70
2
  9
$DIMLWD
 70
-2
  9
$DIMLWE
 70
-2
  9
$DIMTMOVE
 70
0
  9
$LUNITS
 70
2
  9
$LUPREC
 70
4
  9
$SKETCHINC
 40
0.1
  9
$FILLETRAD
 40
0.0
  9
$AUNITS
 70
4
  9
$AUPREC
 70
5
  9
$MENU
  1
.
  9
$ELEVATION
 40
0.0
  9
$PELEVATION
 40
0.0
  9
$THICKNESS
 40
0.0
  9
$LIMCHECK
 70
0
  9
$CHAMFERA
 40
0.0
  9
$CHAMFERB
 40
0.0
  9
$CHAMFERC
 40
0.0
  9
$CHAMFERD
 40
0.0
  9
$SKPOLY
 70
0
  9
$TDCREATE
 40
2455631.34653463
  9
$TDUPDATE
 40
2458141.271863426
  9
$TDINDWG
 40
0.0
  9
$TDUSRTIMER
 40
0.0
  9
$USRTIMER
 70
1
  9
$ANGBASE
 50
0.0
  9
$ANGDIR
 70
0
  9
$PDMODE
 70
0
  9
$PDSIZE
 40
0.0
  9
$PLINEWID
 40
0.0
  9
$SPLFRAME
 70
0
  9
$SPLINETYPE
 70
6
  9
$SPLINESEGS
 70
8
  9
$HANDSEED
  5
16ca
  9
$SURFTAB1
 70
6
  9
$SURFTAB2
 70
6
  9
$SURFTYPE
 70
6
  9
$SURFU
 70
6
  9
$SURFV
 70
6
  9
$UCSBASE
  2

  9
$UCSNAME
  2

  9
$UCSORG
 10
0.0
 20
0.0
 30
0.0
  9
$UCSXDIR
 10
1.0
 20
0.0
 30
0.0
  9
$UCSYDIR
 10
0.0
 20
1.0
 30
0.0
  9
$UCSORTHOREF
  2

  9
$UCSORTHOVIEW
 70
0
  9
$UCSORGTOP
 10
0.0
 20
0.0
 30
0.0
  9
$UCSORGBOTTOM
 10
0.0
 20
0.0
 30
0.0
  9
$UCSORGLEFT
 10
0.0
 20
0.0
 30
0.0
  9
$UCSORGRIGHT
 10
0.0
 20
0.0
 30
0.0
  9
$UCSORGFRONT
 10
0.0
 20
0.0
 30
0.0
  9
$UCSORGBACK
 10
0.0
 20
0.0
 30
0.0
  9
$PUCSBASE
  2

  9
$PUCSNAME
  2

  9
$PUCSORG
 10
0.0
 20
0.0
 30
0.0
  9
$PUCSXDIR
 10
1.0
 20
0.0
 30
0.0
  9
$PUCSYDIR
 10
0.0
 20
1.0
 30
0.0
  9
$PUCSORTHOREF
  2

  9
$PUCSORTHOVIEW
 70
0
  9
$PUCSORGTOP
 10
0.0
 20
0.0
 30
0.0
  9
$PUCSORGBOTTOM
 10
0.0
 20
0.0
 30
0.0
  9
$PUCSORGLEFT
 10
0.0
 20
0.0
 30
0.0
  9
$PUCSORGRIGHT
 10
0.0
 20
0.0
 30
0.0
  9
$PUCSORGFRONT
 10
0.0
 20
0.0
 30
0.0
  9
$PUCSORGBACK
 10
0.0
 20
0.0
 30
0.0
  9
$USERI1
 70
0
  9
$USERI2
 70
0
  9
$USERI3
 70
0
  9
$USERI4
 70
0
  9
$USERI5
 70
0
  9
$USERR1
 40
0.0
  9
$USERR2
 40
0.0
  9
$USERR3
 40
0.0
  9
$USERR4
 40
0.0
  9
$USERR5
 40
0.0
  9
$WORLDVIEW
 70
1
  9
$SHADEDGE
 70
3
  9
$SHADEDIF
 70
70
  9
$TILEMODE
 70
1
  9
$MAXACTVP
 70
64
  9
$PINSBASE
 10
0.0
 20
0.0
 30
0.0
  9
$PLIMCHECK
 70
0
  9
$PEXTMIN
 10
0.62886676639706
 20
0.7999999523162842
 30
0.0
  9
$PEXTMAX
 10
9.028866384927335
 20
7.199999570846558
 30
0.0
  9
$PLIMMIN
 10
-0.7005418191744587
 20
-0.2281003861915408
  9
$PLIMMAX
 10
10.29945794052965
 20
8.27189937351257
  9
$UNITMODE
 70
0
  9
$VISRETAIN
 70
1
  9
$PLINEGEN
 70
0
  9
$PSLTSCALE
 70
1
  9
$TREEDEPTH
 70
3020
  9
$CMLSTYLE
  2
Standard
  9
$CMLJUST
 70
0
  9
$CMLSCALE
 40
1.0
  9
$PROXYGRAPHICS
 70
1
  9
$MEASUREMENT
 70
1
  9
$CELWEIGHT
370
-1
  9
$ENDCAPS
280
0
  9
$JOINSTYLE
280
0
  9
$LWDISPLAY
290
0
  9
$INSUNITS
 70
4
  9
$HYPERLINKBASE
  1

  9
$STYLESHEET
  1

  9
$XEDIT
290
1
  9
$CEPSNTYPE
380
0
  9
$PSTYLEMODE
290
1
  9
$FINGERPRINTGUID
  2
{39DB1BDD-BC6C-46D3-A333-DFCC0DC4782D}
  9
$VERSIONGUID
  2
{69EEBB2D-7039-498F-9366-3F994E4A07E7}
  9
$EXTNAMES
290
1
  9
$PSVPSCALE
 40
0.0
  9
$OLESTARTUP
290
0
  9
$SORTENTS
280
127
  9
$INDEXCTL
280
0
  9
$HIDETEXT
280
1
  9
$XCLIPFRAME
290
0
  9
$HALOGAP
280
0
  9
$OBSCOLOR
 70
257
  9
$OBSLTYPE
280
0
  9
$INTERSECTIONDISPLAY
280
0
  9
$INTERSECTIONCOLOR
 70
257
  9
$DIMASSOC
280
2
  9
$PROJECTNAME
  1

  0
ENDSEC
  0
SECTION
  2
CLASSES
  0
CLASS
  1
ACDBDICTIONARYWDFLT
  2
AcDbDictionaryWithDefault
  3
ObjectDBX Classes
 90
0
 91
0
280
0
281
0
  0
CLASS
  1
DICTIONARYVAR
  2
AcDbDictionaryVar
  3
ObjectDBX Classes
 90
0
 91
0
280
0
281
0
  0
CLASS
  1
TABLESTYLE
  2
AcDbTableStyle
  3
ObjectDBX Classes
 90
4095
 91
0
280
0
281
0
  0
CLASS
  1
MATERIAL
  2
AcDbMaterial
  3
ObjectDBX Classes
 90
1153
 91
0
280
0
281
0
  0
CLASS
  1
VISUALSTYLE
  2
AcDbVisualStyle
  3
ObjectDBX Classes
 90
4095
 91
0
280
0
281
0
  0
CLASS
  1
SCALE
  2
AcDbScale
  3
ObjectDBX Classes
 90
1153
 91
0
280
0
281
0
  0
CLASS
  1
MLEADERSTYLE
  2
AcDbMLeaderStyle
  3
ACDB_MLEADERSTYLE_CLASS
 90
4095
 91
0
280
0
281
0
  0
CLASS
  1
CELLSTYLEMAP
  2
AcDbCellStyleMap
  3
ObjectDBX Classes
 90
1152
 91
0
280
0
281
0
  0
CLASS
  1
EXACXREFPANELOBJECT
  2
ExAcXREFPanelObject
  3
EXAC_ESW
 90
1025
 91
0
280
0
281
0
  0
CLASS
  1
NPOCOLLECTION
  2
AcDbImpNonPersistentObjectsCollection
  3
ObjectDBX Classes
 90
1153
 91
0
280
0
281
0
  0
CLASS
  1
LAYER_INDEX
  2
AcDbLayerIndex
  3
ObjectDBX Classes
 90
0
 91
0
280
0
281
0
  0
CLASS
  1
SPATIAL_INDEX
  2
AcDbSpatialIndex
  3
ObjectDBX Classes
 90
0
 91
0
280
0
281
0
  0
CLASS
  1
IDBUFFER
  2
AcDbIdBuffer
  3
ObjectDBX Classes
 90
0
 91
0
280
0
281
0
  0
CLASS
  1
DIMASSOC
  2
AcDbDimAssoc
  3
"AcDbDimAssoc|Product Desc:     AcDim ARX App For Dimension|Company:          Autodesk, Inc.|WEB Address:      www.autodesk.com"
 90
0
 91
0
280
0
281
0
  0
CLASS
  1
IMAGEDEF
  2
AcDbRasterImageDef
  3
ISM
 90
0
 91
0
280
0
281
0
  0
CLASS
  1
RASTERVARIABLES
  2
AcDbRasterVariables
  3
ISM
 90
0
 91
0
280
0
281
0
  0
CLASS
  1
IMAGEDEF_REACTOR
  2
AcDbRasterImageDefReactor
  3
ISM
 90
1
 91
0
280
0
281
0
  0
CLASS
  1
IMAGE
  2
AcDbRasterImage
  3
ISM
 90
2175
 91
0
280
0
281
1
  0
CLASS
  1
PDFDEFINITION
  2
AcDbPdfDefinition
  3
ObjectDBX Classes
 90
1153
 91
0
280
0
281
0
  0
CLASS
  1
PDFUNDERLAY
  2
AcDbPdfReference
  3
ObjectDBX Classes
 90
4095
 91
0
280
0
281
1
  0
CLASS
  1
DWFDEFINITION
  2
AcDbDwfDefinition
  3
ObjectDBX Classes
 90
1153
 91
0
280
0
281
0
  0
CLASS
  1
DWFUNDERLAY
  2
AcDbDwfReference
  3
ObjectDBX Classes
 90
1153
 91
0
280
0
281
1
  0
CLASS
  1
DGNDEFINITION
  2
AcDbDgnDefinition
  3
ObjectDBX Classes
 90
1153
 91
0
280
0
281
0
  0
CLASS
  1
DGNUNDERLAY
  2
AcDbDgnReference
  3
ObjectDBX Classes
 90
1153
 91
0
280
0
281
1
  0
ENDSEC
  0
SECTION
  2
TABLES
  0
TABLE
  2
VPORT
  5
8
330
0
100
AcDbSymbolTable
 70
0
  0
ENDTAB
  0
TABLE
  2
LTYPE
  5
5
330
0
100
AcDbSymbolTable
 70
7
  0
LTYPE
  5
14
330
5
100
AcDbSymbolTableRecord
100
AcDbLinetypeTableRecord
  2
ByBlock
 70
0
  3

 72
65
 73
0
 40
0.0
  0
LTYPE
  5
15
330
5
100
AcDbSymbolTableRecord
100
AcDbLinetypeTableRecord
  2
ByLayer
 70
0
  3

 72
65
 73
0
 40
0.0
  0
LTYPE
  5
16
330
5
100
AcDbSymbolTableRecord
100
AcDbLinetypeTableRecord
  2
Continuous
 70
0
  3
Solid line
 72
65
 73
0
 40
0.0
  0
LTYPE
  5
1B1
330
5
100
AcDbSymbolTableRecord
100
AcDbLinetypeTableRecord
  2
CENTER
 70
0
  3
Center ____ _ ____ _ ____ _ ____ _ ____ _ ____
 72
65
 73
4
 40
2.0
 49
1.25
 74
0
 49
-0.25
 74
0
 49
0.25
 74
0
 49
-0.25
 74
0
  0
LTYPE
  5
1B2
330
5
100
AcDbSymbolTableRecord
100
AcDbLinetypeTableRecord
  2
DASHED
 70
0
  3
Dashed __ __ __ __ __ __ __ __ __ __ __ __ __ _
 72
65
 73
2
 40
0.75
 49
0.5
 74
0
 49
-0.25
 74
0
  0
LTYPE
  5
1B3
330
5
100
AcDbSymbolTableRecord
100
AcDbLinetypeTableRecord
  2
PHANTOM
 70
0
  3
Phantom ______  __  __  ______  __  __  ______
 72
65
 73
6
 40
2.5
 49
1.25
 74
0
 49
-0.25
 74
0
 49
0.25
 74
0
 49
-0.25
 74
0
 49
0.25
 74
0
 49
-0.25
 74
0
  0
LTYPE
  5
39E
330
5
100
AcDbSymbolTableRecord
100
AcDbLinetypeTableRecord
  2
HIDDEN
 70
0
  3
Hidden __ __ __ __ __ __ __ __ __ __ __ __ __ __
 72
65
 73
2
 40
9.525
 49
6.35
 74
0
 49
-3.175
 74
0
  0
ENDTAB
  0
TABLE
  2
LAYER
  5
2
330
0
100
AcDbSymbolTable
 70
3
  0
LAYER
  5
10
330
2
100
AcDbSymbolTableRecord
100
AcDbLayerTableRecord
  2
0
 70
0
 62
7
  6
Continuous
370
-3
390
4DA
  0
LAYER
  5
1B4
330
2
100
AcDbSymbolTableRecord
100
AcDbLayerTableRecord
  2
View Port
 70
0
 62
7
  6
Continuous
290
0
370
-3
390
4DA
  0
LAYER
  5
21D
330
2
100
AcDbSymbolTableRecord
100
AcDbLayerTableRecord
  2
Defpoints
 70
0
 62
7
  6
Continuous
290
0
370
-3
390
4DA
  0
ENDTAB
  0
TABLE
  2
STYLE
  5
3
330
0
100
AcDbSymbolTable
 70
3
  0
STYLE
  5
11
330
3
100
AcDbSymbolTableRecord
100
AcDbTextStyleTableRecord
  2
Standard
 70
0
 40
0.0
 41
1.0
 50
0.0
 71
0
 42
0.2
  3
arial.ttf
  4

  0
STYLE
  5
DC
330
3
100
AcDbSymbolTableRecord
100
AcDbTextStyleTableRecord
  2
Annotative
 70
0
 40
0.0
 41
1.0
 50
0.0
 71
0
 42
0.2
  3
arial.ttf
  4

  0
STYLE
  5
178
330
3
100
AcDbSymbolTableRecord
100
AcDbTextStyleTableRecord
  2
Notes
 70
0
 40
3.0
 41
1.0
 50
0.0
 71
0
 42
0.2
  3
arial.ttf
  4

  0
ENDTAB
  0
TABLE
  2
VIEW
  5
6
330
0
100
AcDbSymbolTable
 70
0
  0
ENDTAB
  0
TABLE
  2
UCS
  5
7
330
0
100
AcDbSymbolTable
 70
0
  0
ENDTAB
  0
TABLE
  2
APPID
  5
9
330
0
100
AcDbSymbolTable
 70
11
  0
APPID
  5
12
330
9
100
AcDbSymbolTableRecord
100
AcDbRegAppTableRecord
  2
ACAD
 70
0
  0
APPID
  5
DD
330
9
100
AcDbSymbolTableRecord
100
AcDbRegAppTableRecord
  2
AcadAnnoPO
 70
0
  0
APPID
  5
DE
330
9
100
AcDbSymbolTableRecord
100
AcDbRegAppTableRecord
  2
AcadAnnotative
 70
0
  0
APPID
  5
DF
330
9
100
AcDbSymbolTableRecord
100
AcDbRegAppTableRecord
  2
ACAD_DSTYLE_DIMJAG
 70
0
  0
APPID
  5
E0
330
9
100
AcDbSymbolTableRecord
100
AcDbRegAppTableRecord
  2
ACAD_DSTYLE_DIMTALN
 70
0
  0
APPID
  5
107
330
9
100
AcDbSymbolTableRecord
100
AcDbRegAppTableRecord
  2
ACAD_MLEADERVER
 70
0
  0
APPID
  5
1B5
330
9
100
AcDbSymbolTableRecord
100
AcDbRegAppTableRecord
  2
AcAecLayerStandard
 70
0
  0
APPID
  5
1BA
330
9
100
AcDbSymbolTableRecord
100
AcDbRegAppTableRecord
  2
ACAD_EXEMPT_FROM_CAD_STANDARDS
 70
0
  0
APPID
  5
237
330
9
100
AcDbSymbolTableRecord
100
AcDbRegAppTableRecord
  2
ACAD_DSTYLE_DIMBREAK
 70
0
  0
APPID
  5
28E
330
9
100
AcDbSymbolTableRecord
100
AcDbRegAppTableRecord
  2
ACAD_PSEXT
 70
0
  0
APPID
  5
49A
330
9
100
AcDbSymbolTableRecord
100
AcDbRegAppTableRecord
  2
HATCHBACKGROUNDCOLOR
 70
0
  0
ENDTAB
  0
TABLE
  2
DIMSTYLE
  5
A
330
0
100
AcDbSymbolTable
 70
3
100
AcDbDimStyleTable
 71
3
340
242
340
27
340
E1
  0
DIMSTYLE
105
27
330
A
100
AcDbSymbolTableRecord
100
AcDbDimStyleTableRecord
  2
Standard
 70
0
 41
3.0
 42
2.0
 43
9.0
 44
5.0
140
3.0
141
2.0
147
2.0
340
11
1001
ACAD_DSTYLE_DIMJAG
1070
388
1040
38.0
1001
ACAD_DSTYLE_DIMBREAK
1070
391
1040
90.0
1001
ACAD_DSTYLE_DIMTALN
1070
392
1070
0
  0
DIMSTYLE
105
E1
330
A
100
AcDbSymbolTableRecord
100
AcDbDimStyleTableRecord
  2
Annotative
 70
0
 40
0.0
 41
3.0
 42
2.5
 43
10.0
 44
5.0
140
3.0
141
2.0
147
2.0
340
11
1001
AcadAnnotative
1000
AnnotativeData
1002
{
1070
1
1070
1
1002
}
1001
ACAD_DSTYLE_DIMJAG
1070
388
1040
38.0
1001
ACAD_DSTYLE_DIMBREAK
1070
391
1040
90.0
1001
ACAD_DSTYLE_DIMTALN
1070
392
1070
0
  0
DIMSTYLE
105
242
330
A
100
AcDbSymbolTableRecord
100
AcDbDimStyleTableRecord
  2
Civil-Metric
 70
0
 41
3.0
 42
1.5
 43
6.0
 44
3.0
 73
0
 74
0
 77
1
 78
3
 79
2
140
3.0
141
3.0
147
2.0
179
2
271
2
272
2
276
1
340
11
1001
ACAD_DSTYLE_DIMBREAK
1070
391
1040
3.0
1001
ACAD_DSTYLE_DIMJAG
1070
388
1040
38.0
1001
ACAD_DSTYLE_DIMTALN
1070
392
1070
0
  0
ENDTAB
  0
TABLE
  2
BLOCK_RECORD
  5
1
330
0
100
AcDbSymbolTable
 70
4
  0
BLOCK_RECORD
  5
1F
330
1
100
AcDbSymbolTableRecord
100
AcDbBlockTableRecord
  2
*Model_Space
340
4DF
  0
BLOCK_RECORD
  5
58
330
1
100
AcDbSymbolTableRecord
100
AcDbBlockTableRecord
  2
*Paper_Space
340
4E0
  0
BLOCK_RECORD
  5
238
330
1
100
AcDbSymbolTableRecord
100
AcDbBlockTableRecord
  2
_ArchTick
340
0
  0
BLOCK_RECORD
  5
23C
330
1
100
AcDbSymbolTableRecord
100
AcDbBlockTableRecord
  2
_Open30
340
0
  0
ENDTAB
  0
ENDSEC
  0
SECTION
  2
BLOCKS
  0
BLOCK
  5
5A
330
58
100
AcDbEntity
 67
1
  8
0
100
AcDbBlockBegin
  2
*Paper_Space
 70
0
 10
0.0
 20
0.0
 30
0.0
  3
*Paper_Space
  1

  0
ENDBLK
  5
5B
330
58
100
AcDbEntity
 67
1
  8
0
100
AcDbBlockEnd
  0
BLOCK
  5
20
330
1F
100
AcDbEntity
  8
0
100
AcDbBlockBegin
  2
*Model_Space
 70
0
 10
0.0
 20
0.0
 30
0.0
  3
*Model_Space
  1

  0
ENDBLK
  5
21
330
1F
100
AcDbEntity
  8
0
100
AcDbBlockEnd
  0
BLOCK
  5
23A
330
238
100
AcDbEntity
  8
0
100
AcDbBlockBegin
  2
_ArchTick
 70
0
 10
0.0
 20
0.0
 30
0.0
  3
_ArchTick
  1

  0
LWPOLYLINE
  5
239
330
238
100
AcDbEntity
  8
0
  6
ByBlock
 62
0
100
AcDbPolyline
 90
2
 70
0
 43
0.15
 10
-0.5
 20
-0.5
 10
0.5
 20
0.5
  0
ENDBLK
  5
23B
330
238
100
AcDbEntity
  8
0
100
AcDbBlockEnd
  0
BLOCK
  5
240
330
23C
100
AcDbEntity
  8
0
100
AcDbBlockBegin
  2
_Open30
 70
0
 10
0.0
 20
0.0
 30
0.0
  3
_Open30
  1

  0
LINE
  5
23D
330
23C
100
AcDbEntity
  8
0
  6
ByBlock
 62
0
370
-2
100
AcDbLine
 10
-1.0
 20
0.26794919
 30
0.0
 11
0.0
 21
0.0
 31
0.0
  0
LINE
  5
23E
330
23C
100
AcDbEntity
  8
0
  6
ByBlock
 62
0
370
-2
100
AcDbLine
 10
0.0
 20
0.0
 30
0.0
 11
-1.0
 21
-0.26794919
 31
0.0
  0
LINE
  5
23F
330
23C
100
AcDbEntity
  8
0
  6
ByBlock
 62
0
370
-2
100
AcDbLine
 10
0.0
 20
0.0
 30
0.0
 11
-1.0
 21
0.0
 31
0.0
  0
ENDBLK
  5
241
330
23C
100
AcDbEntity
  8
0
100
AcDbBlockEnd
  0
ENDSEC
  0
SECTION
  2
ENTITIES
0
POLYLINE
  5
1389
330
1F
  100
AcDbEntity
8
minor_roads
  100
AcDb3dPolyline
70
8
10
0.0000
20
0.0000
30
0.0000
0
VERTEX
  5
138a
330
1F
  100
AcDbEntity
8
minor_roads
100
AcDbVertex
100
AcDb3dPolylineVertex
10
138.0243
20
0.8001
30
3.1233
70
32
0
VERTEX
  5
138b
330
1F
  100
AcDbEntity
8
minor_roads
100
AcDbVertex
100
AcDb3dPolylineVertex
10
138.0008
20
2.6905
30
3.1127
70
32
0
VERTEX
  5
138c
330
1F
  100
AcDbEntity
8
minor_roads
100
AcDbVertex
100
AcDb3dPolylineVertex
10
138.0257
20
10.5018
30
3.0670
70
32
0
SEQEND
  5
138d
  100
AcDbEntity
0
POLYLINE
  5
138e
330
1F
  100
AcDbEntity
8
paths
  100
AcDb3dPolyline
70
8
10
0.0000
20
0.0000
30
0.0000
0
VERTEX
  5
138f
330
1F
  100
AcDbEntity
8
paths
100
AcDbVertex
100
AcDb3dPolylineVertex
10
397.2920
20
321.0521
30
0.3912
70
32
0
VERTEX
  5
1390
330
1F
  100
AcDbEntity
8
paths
100
AcDbVertex
100
AcDb3dPolylineVertex
10
397.4158
20
311.0181
30
0.4366
70
32
0
VERTEX
  5
1391
330
1F
  100
AcDbEntity
8
paths
100
AcDbVertex
100
AcDb3dPolylineVertex
10
398.4267
20
300.0000
30
0.4817
70
32
0
VERTEX
  5
1392
330
1F
  100
AcDbEntity
8
paths
100
AcDbVertex
100
AcDb3dPolylineVertex
10
398.5273
20
298.9030
30
0.4811
70
32
0
VERTEX
  5
1393
330
1F
  100
AcDbEntity
8
paths
100
AcDbVertex
100
AcDb3dPolylineVertex
10
404.9524
20
300.0000
30
0.4445
70
32
0
VERTEX
  5
1394
330
1F
  100
AcDbEntity
8
paths
100
AcDbVertex
100
AcDb3dPolylineVertex
10
407.4216
20
300.4216
30
0.4282
70
32
0
SEQEND
  5
1395
  100
AcDbEntity
0
POLYLINE
  5
1396
330
1F
  100
AcDbEntity
8
paths
  100
AcDb3dPolyline
70
8
10
0.0000
20
0.0000
30
0.0000
0
VERTEX
  5
1397
330
1F
  100
AcDbEntity
8
paths
100
AcDbVertex
100
AcDb3dPolylineVertex
10
10.6372
20
186.4479
30
4.1260
70
32
0
VERTEX
  5
1398
330
1F
  100
AcDbEntity
8
paths
100
AcDbVertex
100
AcDb3dPolylineVertex
10
0.5869
20
196.4287
30
4.2935
70
32
0
SEQEND
  5
1399
  100
AcDbEntity
  0
MESH
  5
139a
330
1F
  100
AcDbEntity
8
buildings
  100
AcDbSubDMesh
71
2
72
0
91
0
92
8
10
195.4728
20
209.7760
30
5.4206
10
206.1673
20
209.9767
30
5.4206
10
205.7333
20
232.3709
30
5.4206
10
195.0459
20
232.1515
30
5.4206
10
195.4728
20
209.7760
30
2.4206
10
206.1673
20
209.9767
30
2.4206
10
205.7333
20
232.3709
30
2.4206
10
195.0459
20
232.1515
30
2.4206
93
36
90
3
90
3
90
0
90
1
90
3
90
7
90
5
90
4
90
3
90
1
90
2
90
3
90
3
90
5
90
7
90
6
90
4
90
1
90
0
90
4
90
5
90
4
90
2
90
1
90
5
90
6
90
4
90
3
90
2
90
6
90
7
90
4
90
0
90
3
90
7
90
4
94
0
95
0
  0
MESH
  5
139b
330
1F
  100
AcDbEntity
8
buildings
  100
AcDbSubDMesh
71
2
72
0
91
0
92
8
10
291.3300
20
274.2134
30
4.2892
10
315.1575
20
274.4218
30
4.2892
10
315.0328
20
287.8374
30
4.2892
10
291.2125
20
287.6383
30
4.2892
10
291.3300
20
274.2134
30
1.2892
10
315.1575
20
274.4218
30
1.2892
10
315.0328
20
287.8374
30
1.2892
10
291.2125
20
287.6383
30
1.2892
93
36
90
3
90
3
90
0
90
2
90
3
90
7
90
6
90
4
90
3
90
1
90
2
90
0
90
3
90
5
90
4
90
6
90
4
90
1
90
0
90
4
90
5
90
4
90
2
90
1
90
5
90
6
90
4
90
3
90
2
90
6
90
7
90
4
90
0
90
3
90
7
90
4
94
0
95
0
  0
MESH
  5
139c
330
1F
  100
AcDbEntity
8
buildings
  100
AcDbSubDMesh
71
2
72
0
91
0
92
8
10
79.9621
20
149.4736
30
6.4144
10
80.1611
20
158.5901
30
6.4144
10
69.9614
20
158.8161
30
6.4144
10
69.7624
20
149.6995
30
6.4144
10
79.9621
20
149.4736
30
3.4144
10
80.1611
20
158.5901
30
3.4144
10
69.9614
20
158.8161
30
3.4144
10
69.7624
20
149.6995
30
3.4144
93
36
90
3
90
2
90
3
90
1
90
3
90
6
90
5
90
7
90
3
90
0
90
1
90
3
90
3
90
4
90
7
90
5
90
4
90
1
90
0
90
4
90
5
90
4
90
2
90
1
90
5
90
6
90
4
90
3
90
2
90
6
90
7
90
4
90
0
90
3
90
7
90
4
94
0
95
0
  0
MESH
  5
139d
330
1F
  100
AcDbEntity
8
buildings
  100
AcDbSubDMesh
71
2
72
0
91
0
92
8
10
177.5798
20
168.0114
30
5.4822
10
177.7102
20
180.5611
30
5.4822
10
169.2840
20
180.6420
30
5.4822
10
169.1536
20
168.1017
30
5.4822
10
177.5798
20
168.0114
30
2.4822
10
177.7102
20
180.5611
30
2.4822
10
169.2840
20
180.6420
30
2.4822
10
169.1536
20
168.1017
30
2.4822
93
36
90
3
90
2
90
3
90
0
90
3
90
6
90
4
90
7
90
3
90
0
90
1
90
2
90
3
90
4
90
6
90
5
90
4
90
1
90
0
90
4
90
5
90
4
90
2
90
1
90
5
90
6
90
4
90
3
90
2
90
6
90
7
90
4
90
0
90
3
90
7
90
4
94
0
95
0
  0
MESH
  5
139e
330
1F
  100
AcDbEntity
8
buildings
  100
AcDbSubDMesh
71
2
72
0
91
0
92
8
10
372.5150
20
150.0819
30
3.6139
10
388.3527
20
150.2490
30
3.6139
10
388.0112
20
182.3368
30
3.6139
10
372.1736
20
182.1697
30
3.6139
10
372.5150
20
150.0819
30
0.6139
10
388.3527
20
150.2490
30
0.6139
10
388.0112
20
182.3368
30
0.6139
10
372.1736
20
182.1697
30
0.6139
93
36
90
3
90
3
90
0
90
2
90
3
90
7
90
6
90
4
90
3
90
1
90
2
90
0
90
3
90
5
90
4
90
6
90
4
90
1
90
0
90
4
90
5
90
4
90
2
90
1
90
5
90
6
90
4
90
3
90
2
90
6
90
7
90
4
90
0
90
3
90
7
90
4
94
0
95
0
0
POLYLINE
  5
139f
330
1F
  100
AcDbEntity
8
major_roads
  100
AcDb3dPolyline
70
8
10
0.0000
20
0.0000
30
0.0000
0
VERTEX
  5
13a0
330
1F
  100
AcDbEntity
8
major_roads
100
AcDbVertex
100
AcDb3dPolylineVertex
10
227.5517
20
302.5452
30
2.3439
70
32
0
VERTEX
  5
13a1
330
1F
  100
AcDbEntity
8
major_roads
100
AcDbVertex
100
AcDb3dPolylineVertex
10
240.0000
20
302.4077
30
2.2447
70
32
0
VERTEX
  5
13a2
330
1F
  100
AcDbEntity
8
major_roads
100
AcDbVertex
100
AcDb3dPolylineVertex
10
270.0000
20
302.0764
30
1.8434
70
32
0
VERTEX
  5
13a3
330
1F
  100
AcDbEntity
8
major_roads
100
AcDbVertex
100
AcDb3dPolylineVertex
10
278.2723
20
301.9851
30
1.7668
70
32
0
SEQEND
  5
13a4
  100
AcDbEntity
0
POLYLINE
  5
13a5
330
1F
  100
AcDbEntity
8
paths
  100
AcDb3dPolyline
70
8
10
0.0000
20
0.0000
30
0.0000
0
VERTEX
  5
13a6
330
1F
  100
AcDbEntity
8
paths
100
AcDbVertex
100
AcDb3dPolylineVertex
10
399.7360
20
201.9785
30
0.4069
70
32
0
VERTEX
  5
13a7
330
1F
  100
AcDbEntity
8
paths
100
AcDbVertex
100
AcDb3dPolylineVertex
10
407.1306
20
201.8982
30
0.3052
70
32
0
SEQEND
  5
13a8
  100
AcDbEntity
0
POLYLINE
  5
13a9
330
1F
  100
AcDbEntity
8
minor_roads
  100
AcDb3dPolyline
70
8
10
0.0000
20
0.0000
30
0.0000
0
VERTEX
  5
13aa
330
1F
  100
AcDbEntity
8
minor_roads
100
AcDbVertex
100
AcDb3dPolylineVertex
10
204.2502
20
10.6982
30
2.0777
70
32
0
VERTEX
  5
13ab
330
1F
  100
AcDbEntity
8
minor_roads
100
AcDbVertex
100
AcDb3dPolylineVertex
10
204.3226
20
1.3855
30
2.1127
70
32
0
VERTEX
  5
13ac
330
1F
  100
AcDbEntity
8
minor_roads
100
AcDbVertex
100
AcDb3dPolylineVertex
10
204.3283
20
0.6025
30
2.1156
70
32
0
SEQEND
  5
13ad
  100
AcDbEntity
0
POLYLINE
  5
13ae
330
1F
  100
AcDbEntity
8
major_roads
  100
AcDb3dPolyline
70
8
10
0.0000
20
0.0000
30
0.0000
0
VERTEX
  5
13af
330
1F
  100
AcDbEntity
8
major_roads
100
AcDbVertex
100
AcDb3dPolylineVertex
10
381.8893
20
321.0980
30
0.5251
70
32
0
VERTEX
  5
13b0
330
1F
  100
AcDbEntity
8
major_roads
100
AcDbVertex
100
AcDb3dPolylineVertex
10
366.8137
20
319.2405
30
0.6823
70
32
0
VERTEX
  5
13b1
330
1F
  100
AcDbEntity
8
major_roads
100
AcDbVertex
100
AcDb3dPolylineVertex
10
360.0000
20
318.4645
30
0.7519
70
32
0
VERTEX
  5
13b2
330
1F
  100
AcDbEntity
8
major_roads
100
AcDbVertex
100
AcDb3dPolylineVertex
10
330.3495
20
315.0876
30
1.1237
70
32
0
VERTEX
  5
13b3
330
1F
  100
AcDbEntity
8
major_roads
100
AcDbVertex
100
AcDb3dPolylineVertex
10
330.0000
20
315.0513
30
1.1279
70
32
0
VERTEX
  5
13b4
330
1F
  100
AcDbEntity
8
major_roads
100
AcDbVertex
100
AcDb3dPolylineVertex
10
317.4773
20
313.7489
30
1.2924
70
32
0
SEQEND
  5
13b5
  100
AcDbEntity
0
POLYLINE
  5
13b6
330
1F
  100
AcDbEntity
8
major_roads
  100
AcDb3dPolyline
70
8
10
0.0000
20
0.0000
30
0.0000
0
VERTEX
  5
13b7
330
1F
  100
AcDbEntity
8
major_roads
100
AcDbVertex
100
AcDb3dPolylineVertex
10
406.2611
20
120.1281
30
0.1584
70
32
0
VERTEX
  5
13b8
330
1F
  100
AcDbEntity
8
major_roads
100
AcDbVertex
100
AcDb3dPolylineVertex
10
406.2544
20
120.0000
30
0.1579
70
32
0
VERTEX
  5
13b9
330
1F
  100
AcDbEntity
8
major_roads
100
AcDbVertex
100
AcDb3dPolylineVertex
10
405.3820
20
103.3942
30
0.1394
70
32
0
SEQEND
  5
13ba
  100
AcDbEntity
0
POLYLINE
  5
13bb
330
1F
  100
AcDbEntity
8
minor_roads
  100
AcDb3dPolyline
70
8
10
0.0000
20
0.0000
30
0.0000
0
VERTEX
  5
13bc
330
1F
  100
AcDbEntity
8
minor_roads
100
AcDbVertex
100
AcDb3dPolylineVertex
10
0.7099
20
237.3204
30
4.3301
70
32
0
VERTEX
  5
13bd
330
1F
  100
AcDbEntity
8
minor_roads
100
AcDbVertex
100
AcDb3dPolylineVertex
10
5.3537
20
237.2966
30
4.2988
70
32
0
SEQEND
  5
13be
  100
AcDbEntity
0
POLYLINE
  5
13bf
330
1F
  100
AcDbEntity
8
minor_roads
  100
AcDb3dPolyline
70
8
10
0.0000
20
0.0000
30
0.0000
0
VERTEX
  5
13c0
330
1F
  100
AcDbEntity
8
minor_roads
100
AcDbVertex
100
AcDb3dPolylineVertex
10
10.6372
20
186.4479
30
4.1260
70
32
0
VERTEX
  5
13c1
330
1F
  100
AcDbEntity
8
minor_roads
100
AcDbVertex
100
AcDb3dPolylineVertex
10
12.9492
20
189.3250
30
4.0918
70
32
0
VERTEX
  5
13c2
330
1F
  100
AcDbEntity
8
minor_roads
100
AcDbVertex
100
AcDb3dPolylineVertex
10
16.6244
20
191.2025
30
4.0356
70
32
0
VERTEX
  5
13c3
330
1F
  100
AcDbEntity
8
minor_roads
100
AcDbVertex
100
AcDb3dPolylineVertex
10
18.5086
20
192.1923
30
4.0078
70
32
0
VERTEX
  5
13c4
330
1F
  100
AcDbEntity
8
minor_roads
100
AcDbVertex
100
AcDb3dPolylineVertex
10
23.8901
20
192.9576
30
3.9243
70
32
0
VERTEX
  5
13c5
330
1F
  100
AcDbEntity
8
minor_roads
100
AcDbVertex
100
AcDb3dPolylineVertex
10
30.0000
20
193.0065
30
3.8275
70
32
0
VERTEX
  5
13c6
330
1F
  100
AcDbEntity
8
minor_roads
100
AcDbVertex
100
AcDb3dPolylineVertex
10
60.0000
20
193.2467
30
3.5011
70
32
0
VERTEX
  5
13c7
330
1F
  100
AcDbEntity
8
minor_roads
100
AcDbVertex
100
AcDb3dPolylineVertex
10
90.0000
20
193.4869
30
3.3180
70
32
0
VERTEX
  5
13c8
330
1F
  100
AcDbEntity
8
minor_roads
100
AcDbVertex
100
AcDb3dPolylineVertex
10
120.0000
20
193.7271
30
3.0679
70
32
0
VERTEX
  5
13c9
330
1F
  100
AcDbEntity
8
minor_roads
100
AcDbVertex
100
AcDb3dPolylineVertex
10
141.4192
20
193.8986
30
2.8181
70
32
0
VERTEX
  5
13ca
330
1F
  100
AcDbEntity
8
minor_roads
100
AcDbVertex
100
AcDb3dPolylineVertex
10
150.0000
20
193.8877
30
2.7181
70
32
0
VERTEX
  5
13cb
330
1F
  100
AcDbEntity
8
minor_roads
100
AcDbVertex
100
AcDb3dPolylineVertex
10
180.0000
20
193.8495
30
2.4976
70
32
0
VERTEX
  5
13cc
330
1F
  100
AcDbEntity
8
minor_roads
100
AcDbVertex
100
AcDb3dPolylineVertex
10
210.0000
20
193.8113
30
2.3265
70
32
0
VERTEX
  5
13cd
330
1F
  100
AcDbEntity
8
minor_roads
100
AcDbVertex
100
AcDb3dPolylineVertex
10
228.5370
20
193.7876
30
2.1806
70
32
0
VERTEX
  5
13ce
330
1F
  100
AcDbEntity
8
minor_roads
100
AcDbVertex
100
AcDb3dPolylineVertex
10
240.0000
20
193.4635
30
2.0911
70
32
0
VERTEX
  5
13cf
330
1F
  100
AcDbEntity
8
minor_roads
100
AcDbVertex
100
AcDb3dPolylineVertex
10
261.2599
20
192.8623
30
1.8232
70
32
0
VERTEX
  5
13d0
330
1F
  100
AcDbEntity
8
minor_roads
100
AcDbVertex
100
AcDb3dPolylineVertex
10
265.9779
20
191.8063
30
1.7677
70
32
0
VERTEX
  5
13d1
330
1F
  100
AcDbEntity
8
minor_roads
100
AcDbVertex
100
AcDb3dPolylineVertex
10
269.7425
20
190.1113
30
1.7277
70
32
0
VERTEX
  5
13d2
330
1F
  100
AcDbEntity
8
minor_roads
100
AcDbVertex
100
AcDb3dPolylineVertex
10
270.0000
20
189.8707
30
1.7255
70
32
0
VERTEX
  5
13d3
330
1F
  100
AcDbEntity
8
minor_roads
100
AcDbVertex
100
AcDb3dPolylineVertex
10
274.5076
20
185.6595
30
1.7190
70
32
0
VERTEX
  5
13d4
330
1F
  100
AcDbEntity
8
minor_roads
100
AcDbVertex
100
AcDb3dPolylineVertex
10
274.8490
20
184.9886
30
1.7206
70
32
0
SEQEND
  5
13d5
  100
AcDbEntity
0
POLYLINE
  5
13d6
330
1F
  100
AcDbEntity
8
minor_roads
  100
AcDb3dPolyline
70
8
10
0.0000
20
0.0000
30
0.0000
0
VERTEX
  5
13d7
330
1F
  100
AcDbEntity
8
minor_roads
100
AcDbVertex
100
AcDb3dPolylineVertex
10
273.6884
20
109.7384
30
1.4999
70
32
0
VERTEX
  5
13d8
330
1F
  100
AcDbEntity
8
minor_roads
100
AcDbVertex
100
AcDb3dPolylineVertex
10
276.1713
20
112.4010
30
1.5098
70
32
0
VERTEX
  5
13d9
330
1F
  100
AcDbEntity
8
minor_roads
100
AcDbVertex
100
AcDb3dPolylineVertex
10
277.7753
20
115.3919
30
1.5294
70
32
0
VERTEX
  5
13da
330
1F
  100
AcDbEntity
8
minor_roads
100
AcDbVertex
100
AcDb3dPolylineVertex
10
278.4917
20
118.1621
30
1.5528
70
32
0
VERTEX
  5
13db
330
1F
  100
AcDbEntity
8
minor_roads
100
AcDbVertex
100
AcDb3dPolylineVertex
10
278.7244
20
120.0000
30
1.5700
70
32
0
VERTEX
  5
13dc
330
1F
  100
AcDbEntity
8
minor_roads
100
AcDbVertex
100
AcDb3dPolylineVertex
10
278.8873
20
121.2868
30
1.5782
70
32
0
VERTEX
  5
13dd
330
1F
  100
AcDbEntity
8
minor_roads
100
AcDbVertex
100
AcDb3dPolylineVertex
10
279.0653
20
125.8449
30
1.6100
70
32
0
VERTEX
  5
13de
330
1F
  100
AcDbEntity
8
minor_roads
100
AcDbVertex
100
AcDb3dPolylineVertex
10
278.8282
20
147.1499
30
1.7644
70
32
0
VERTEX
  5
13df
330
1F
  100
AcDbEntity
8
minor_roads
100
AcDbVertex
100
AcDb3dPolylineVertex
10
278.7494
20
150.0000
30
1.7851
70
32
0
VERTEX
  5
13e0
330
1F
  100
AcDbEntity
8
minor_roads
100
AcDbVertex
100
AcDb3dPolylineVertex
10
277.9821
20
177.7693
30
1.7368
70
32
0
VERTEX
  5
13e1
330
1F
  100
AcDbEntity
8
minor_roads
100
AcDbVertex
100
AcDb3dPolylineVertex
10
277.4804
20
179.8734
30
1.7353
70
32
0
VERTEX
  5
13e2
330
1F
  100
AcDbEntity
8
minor_roads
100
AcDbVertex
100
AcDb3dPolylineVertex
10
277.4153
20
180.0000
30
1.7353
70
32
0
VERTEX
  5
13e3
330
1F
  100
AcDbEntity
8
minor_roads
100
AcDbVertex
100
AcDb3dPolylineVertex
10
274.8490
20
184.9886
30
1.7206
70
32
0
SEQEND
  5
13e4
  100
AcDbEntity
  0
MESH
  5
13e5
330
1F
  100
AcDbEntity
8
buildings
  100
AcDbSubDMesh
71
2
72
0
91
0
92
26
10
310.3346
20
44.6931
30
3.5958
10
313.4750
20
44.7396
30
3.5958
10
313.6566
20
28.7748
30
3.5958
10
326.0257
20
29.1381
30
3.5958
10
326.1376
20
28.2819
30
3.5958
10
333.6284
20
28.7156
30
3.5958
10
333.2107
20
59.1662
30
3.5958
10
329.4839
20
59.1773
30
3.5958
10
329.3827
20
61.2243
30
3.5958
10
326.1206
20
61.1688
30
3.5958
10
326.1648
20
59.1871
30
3.5958
10
312.8377
20
58.9941
30
3.5958
10
310.1916
20
56.7784
30
3.5958
10
310.3346
20
44.6931
30
0.5958
10
313.4750
20
44.7396
30
0.5958
10
313.6566
20
28.7748
30
0.5958
10
326.0257
20
29.1381
30
0.5958
10
326.1376
20
28.2819
30
0.5958
10
333.6284
20
28.7156
30
0.5958
10
333.2107
20
59.1662
30
0.5958
10
329.4839
20
59.1773
30
0.5958
10
329.3827
20
61.2243
30
0.5958
10
326.1206
20
61.1688
30
0.5958
10
326.1648
20
59.1871
30
0.5958
10
312.8377
20
58.9941
30
0.5958
10
310.1916
20
56.7784
30
0.5958
93
153
90
3
90
1
90
2
90
3
90
3
90
14
90
16
90
15
90
3
90
12
90
1
90
11
90
3
90
25
90
24
90
14
90
3
90
1
90
12
90
0
90
3
90
14
90
13
90
25
90
3
90
10
90
11
90
1
90
3
90
23
90
14
90
24
90
3
90
1
90
3
90
7
90
3
90
14
90
20
90
16
90
3
90
3
90
5
90
7
90
3
90
16
90
20
90
18
90
3
90
7
90
5
90
6
90
3
90
20
90
19
90
18
90
3
90
9
90
10
90
8
90
3
90
22
90
21
90
23
90
3
90
7
90
8
90
10
90
3
90
20
90
23
90
21
90
3
90
1
90
7
90
10
90
3
90
14
90
23
90
20
90
3
90
4
90
5
90
3
90
3
90
17
90
16
90
18
90
4
90
1
90
0
90
13
90
14
90
4
90
2
90
1
90
14
90
15
90
4
90
3
90
2
90
15
90
16
90
4
90
4
90
3
90
16
90
17
90
4
90
5
90
4
90
17
90
18
90
4
90
6
90
5
90
18
90
19
90
4
90
7
90
6
90
19
90
20
90
4
90
8
90
7
90
20
90
21
90
4
90
9
90
8
90
21
90
22
90
4
90
10
90
9
90
22
90
23
90
4
90
11
90
10
90
23
90
24
90
4
90
12
90
11
90
24
90
25
90
4
90
0
90
12
90
25
90
13
94
0
95
0
  0
MESH
  5
13e6
330
1F
  100
AcDbEntity
8
buildings
  100
AcDbSubDMesh
71
2
72
0
91
0
92
38
10
91.8441
20
276.2595
30
5.9960
10
96.8730
20
276.3560
30
5.9960
10
96.9601
20
271.9833
30
5.9960
10
100.6656
20
272.0466
30
5.9960
10
100.5790
20
276.5868
30
5.9960
10
115.8874
20
276.8759
30
5.9960
10
116.0116
20
270.5680
30
5.9960
10
111.7482
20
270.4970
30
5.9960
10
111.8226
20
266.6825
30
5.9960
10
116.1075
20
266.7534
30
5.9960
10
116.2051
20
261.1246
30
5.9960
10
130.7697
20
261.4067
30
5.9960
10
130.1741
20
291.8858
30
5.9960
10
122.6057
20
291.7410
30
5.9960
10
122.6059
20
291.8061
30
5.9960
10
120.8820
20
291.7834
30
5.9960
10
115.5740
20
291.6690
30
5.9960
10
115.5734
20
291.4364
30
5.9960
10
91.5664
20
290.9873
30
5.9960
10
91.8441
20
276.2595
30
2.9960
10
96.8730
20
276.3560
30
2.9960
10
96.9601
20
271.9833
30
2.9960
10
100.6656
20
272.0466
30
2.9960
10
100.5790
20
276.5868
30
2.9960
10
115.8874
20
276.8759
30
2.9960
10
116.0116
20
270.5680
30
2.9960
10
111.7482
20
270.4970
30
2.9960
10
111.8226
20
266.6825
30
2.9960
10
116.1075
20
266.7534
30
2.9960
10
116.2051
20
261.1246
30
2.9960
10
130.7697
20
261.4067
30
2.9960
10
130.1741
20
291.8858
30
2.9960
10
122.6057
20
291.7410
30
2.9960
10
122.6059
20
291.8061
30
2.9960
10
120.8820
20
291.7834
30
2.9960
10
115.5740
20
291.6690
30
2.9960
10
115.5734
20
291.4364
30
2.9960
10
91.5664
20
290.9873
30
2.9960
93
231
90
3
90
2
90
3
90
1
90
3
90
21
90
20
90
22
90
3
90
18
90
0
90
1
90
3
90
37
90
20
90
19
90
3
90
4
90
17
90
18
90
3
90
23
90
37
90
36
90
3
90
4
90
1
90
3
90
3
90
23
90
22
90
20
90
3
90
5
90
17
90
4
90
3
90
24
90
23
90
36
90
3
90
4
90
18
90
1
90
3
90
23
90
20
90
37
90
3
90
7
90
8
90
6
90
3
90
26
90
25
90
27
90
3
90
5
90
6
90
11
90
3
90
24
90
30
90
25
90
3
90
15
90
17
90
5
90
3
90
34
90
24
90
36
90
3
90
9
90
10
90
11
90
3
90
28
90
30
90
29
90
3
90
9
90
6
90
8
90
3
90
28
90
27
90
25
90
3
90
9
90
11
90
6
90
3
90
28
90
25
90
30
90
3
90
5
90
11
90
12
90
3
90
24
90
31
90
30
90
3
90
17
90
15
90
16
90
3
90
36
90
35
90
34
90
3
90
12
90
13
90
5
90
3
90
31
90
24
90
32
90
3
90
13
90
14
90
15
90
3
90
32
90
34
90
33
90
3
90
5
90
13
90
15
90
3
90
24
90
34
90
32
90
4
90
1
90
0
90
19
90
20
90
4
90
2
90
1
90
20
90
21
90
4
90
3
90
2
90
21
90
22
90
4
90
4
90
3
90
22
90
23
90
4
90
5
90
4
90
23
90
24
90
4
90
6
90
5
90
24
90
25
90
4
90
7
90
6
90
25
90
26
90
4
90
8
90
7
90
26
90
27
90
4
90
9
90
8
90
27
90
28
90
4
90
10
90
9
90
28
90
29
90
4
90
11
90
10
90
29
90
30
90
4
90
12
90
11
90
30
90
31
90
4
90
13
90
12
90
31
90
32
90
4
90
14
90
13
90
32
90
33
90
4
90
15
90
14
90
33
90
34
90
4
90
16
90
15
90
34
90
35
90
4
90
17
90
16
90
35
90
36
90
4
90
18
90
17
90
36
90
37
90
4
90
0
90
18
90
37
90
19
94
0
95
0
  0
MESH
  5
13e7
330
1F
  100
AcDbEntity
8
buildings
  100
AcDbSubDMesh
71
2
72
0
91
0
92
8
10
107.3457
20
37.5018
30
6.1913
10
113.6411
20
37.6876
30
6.1913
10
113.4143
20
45.5588
30
6.1913
10
107.1189
20
45.3730
30
6.1913
10
107.3457
20
37.5018
30
3.1913
10
113.6411
20
37.6876
30
3.1913
10
113.4143
20
45.5588
30
3.1913
10
107.1189
20
45.3730
30
3.1913
93
36
90
3
90
3
90
0
90
1
90
3
90
7
90
5
90
4
90
3
90
1
90
2
90
3
90
3
90
5
90
7
90
6
90
4
90
1
90
0
90
4
90
5
90
4
90
2
90
1
90
5
90
6
90
4
90
3
90
2
90
6
90
7
90
4
90
0
90
3
90
7
90
4
94
0
95
0
  0
MESH
  5
13e8
330
1F
  100
AcDbEntity
8
buildings
  100
AcDbSubDMesh
71
2
72
0
91
0
92
8
10
183.0556
20
30.1400
30
5.1993
10
190.6454
20
30.1825
30
5.1993
10
190.5705
20
43.4584
30
5.1993
10
182.9879
20
43.4159
30
5.1993
10
183.0556
20
30.1400
30
2.1993
10
190.6454
20
30.1825
30
2.1993
10
190.5705
20
43.4584
30
2.1993
10
182.9879
20
43.4159
30
2.1993
93
36
90
3
90
3
90
0
90
1
90
3
90
7
90
5
90
4
90
3
90
1
90
2
90
3
90
3
90
5
90
7
90
6
90
4
90
1
90
0
90
4
90
5
90
4
90
2
90
1
90
5
90
6
90
4
90
3
90
2
90
6
90
7
90
4
90
0
90
3
90
7
90
4
94
0
95
0
  0
MESH
  5
13e9
330
1F
  100
AcDbEntity
8
buildings
  100
AcDbSubDMesh
71
2
72
0
91
0
92
8
10
60.0010
20
67.1255
30
6.7635
10
67.5193
20
67.2146
30
6.7635
10
67.2654
20
89.8873
30
6.7635
10
59.7328
20
89.8168
30
6.7635
10
60.0010
20
67.1255
30
3.7635
10
67.5193
20
67.2146
30
3.7635
10
67.2654
20
89.8873
30
3.7635
10
59.7328
20
89.8168
30
3.7635
93
36
90
3
90
3
90
0
90
2
90
3
90
7
90
6
90
4
90
3
90
1
90
2
90
0
90
3
90
5
90
4
90
6
90
4
90
1
90
0
90
4
90
5
90
4
90
2
90
1
90
5
90
6
90
4
90
3
90
2
90
6
90
7
90
4
90
0
90
3
90
7
90
4
94
0
95
0
  0
MESH
  5
13ea
330
1F
  100
AcDbEntity
8
buildings
  100
AcDbSubDMesh
71
2
72
0
91
0
92
8
10
46.0096
20
74.4240
30
6.9324
10
55.8173
20
74.5992
30
6.9324
10
55.6027
20
86.5173
30
6.9324
10
45.8094
20
86.3513
30
6.9324
10
46.0096
20
74.4240
30
3.9324
10
55.8173
20
74.5992
30
3.9324
10
55.6027
20
86.5173
30
3.9324
10
45.8094
20
86.3513
30
3.9324
93
36
90
3
90
3
90
0
90
1
90
3
90
7
90
5
90
4
90
3
90
1
90
2
90
3
90
3
90
5
90
7
90
6
90
4
90
1
90
0
90
4
90
5
90
4
90
2
90
1
90
5
90
6
90
4
90
3
90
2
90
6
90
7
90
4
90
0
90
3
90
7
90
4
94
0
95
0
  0
MESH
  5
13eb
330
1F
  100
AcDbEntity
8
buildings
  100
AcDbSubDMesh
71
2
72
0
91
0
92
8
10
82.0300
20
135.3544
30
6.4760
10
87.3884
20
135.5523
30
6.4760
10
87.1566
20
141.7489
30
6.4760
10
81.7982
20
141.5603
30
6.4760
10
82.0300
20
135.3544
30
3.4760
10
87.3884
20
135.5523
30
3.4760
10
87.1566
20
141.7489
30
3.4760
10
81.7982
20
141.5603
30
3.4760
93
36
90
3
90
3
90
0
90
2
90
3
90
7
90
6
90
4
90
3
90
1
90
2
90
0
90
3
90
5
90
4
90
6
90
4
90
1
90
0
90
4
90
5
90
4
90
2
90
1
90
5
90
6
90
4
90
3
90
2
90
6
90
7
90
4
90
0
90
3
90
7
90
4
94
0
95
0
  0
MESH
  5
13ec
330
1F
  100
AcDbEntity
8
buildings
  100
AcDbSubDMesh
71
2
72
0
91
0
92
16
10
115.2568
20
156.9407
30
6.1121
10
115.3498
20
166.4855
30
6.1121
10
113.3898
20
166.5007
30
6.1121
10
113.4991
20
176.7246
30
6.1121
10
94.1004
20
176.9315
30
6.1121
10
93.9912
20
166.7634
30
6.1121
10
91.6593
20
166.7797
30
6.1121
10
91.5662
20
157.1884
30
6.1121
10
115.2568
20
156.9407
30
3.1121
10
115.3498
20
166.4855
30
3.1121
10
113.3898
20
166.5007
30
3.1121
10
113.4991
20
176.7246
30
3.1121
10
94.1004
20
176.9315
30
3.1121
10
93.9912
20
166.7634
30
3.1121
10
91.6593
20
166.7797
30
3.1121
10
91.5662
20
157.1884
30
3.1121
93
88
90
3
90
7
90
5
90
6
90
3
90
15
90
14
90
13
90
3
90
5
90
7
90
0
90
3
90
13
90
8
90
15
90
3
90
5
90
3
90
4
90
3
90
13
90
12
90
11
90
3
90
0
90
1
90
2
90
3
90
8
90
10
90
9
90
3
90
2
90
3
90
5
90
3
90
10
90
13
90
11
90
3
90
0
90
2
90
5
90
3
90
8
90
13
90
10
90
4
90
1
90
0
90
8
90
9
90
4
90
2
90
1
90
9
90
10
90
4
90
3
90
2
90
10
90
11
90
4
90
4
90
3
90
11
90
12
90
4
90
5
90
4
90
12
90
13
90
4
90
6
90
5
90
13
90
14
90
4
90
7
90
6
90
14
90
15
90
4
90
0
90
7
90
15
90
8
94
0
95
0
  0
MESH
  5
13ed
330
1F
  100
AcDbEntity
8
buildings
  100
AcDbSubDMesh
71
2
72
0
91
0
92
8
10
220.0983
20
160.8143
30
5.1341
10
232.5682
20
161.4656
30
5.1341
10
232.1823
20
168.7977
30
5.1341
10
219.7124
20
168.1463
30
5.1341
10
220.0983
20
160.8143
30
2.1341
10
232.5682
20
161.4656
30
2.1341
10
232.1823
20
168.7977
30
2.1341
10
219.7124
20
168.1463
30
2.1341
93
36
90
3
90
3
90
0
90
2
90
3
90
7
90
6
90
4
90
3
90
1
90
2
90
0
90
3
90
5
90
4
90
6
90
4
90
1
90
0
90
4
90
5
90
4
90
2
90
1
90
5
90
6
90
4
90
3
90
2
90
6
90
7
90
4
90
0
90
3
90
7
90
4
94
0
95
0
  0
MESH
  5
13ee
330
1F
  100
AcDbEntity
8
buildings
  100
AcDbSubDMesh
71
2
72
0
91
0
92
32
10
242.0889
20
84.4531
30
4.4141
10
247.3252
20
84.5120
30
4.4141
10
247.3430
20
83.2746
30
4.4141
10
245.5618
20
83.2520
30
4.4141
10
245.6235
20
77.5303
30
4.4141
10
253.5280
20
77.6091
30
4.4141
10
253.5007
20
80.4560
30
4.4141
10
255.4321
20
80.4689
30
4.4141
10
255.3793
20
84.3485
30
4.4141
10
258.4409
20
84.3673
30
4.4141
10
258.3845
20
89.4563
30
4.4141
10
250.2868
20
89.3687
30
4.4141
10
250.3250
20
85.3775
30
4.4141
10
248.5653
20
85.3642
30
4.4141
10
248.4984
20
91.7464
30
4.4141
10
242.0031
20
91.6727
30
4.4141
10
242.0889
20
84.4531
30
1.4141
10
247.3252
20
84.5120
30
1.4141
10
247.3430
20
83.2746
30
1.4141
10
245.5618
20
83.2520
30
1.4141
10
245.6235
20
77.5303
30
1.4141
10
253.5280
20
77.6091
30
1.4141
10
253.5007
20
80.4560
30
1.4141
10
255.4321
20
80.4689
30
1.4141
10
255.3793
20
84.3485
30
1.4141
10
258.4409
20
84.3673
30
1.4141
10
258.3845
20
89.4563
30
1.4141
10
250.2868
20
89.3687
30
1.4141
10
250.3250
20
85.3775
30
1.4141
10
248.5653
20
85.3642
30
1.4141
10
248.4984
20
91.7464
30
1.4141
10
242.0031
20
91.6727
30
1.4141
93
192
90
3
90
4
90
2
90
3
90
3
90
20
90
19
90
18
90
3
90
13
90
2
90
12
90
3
90
29
90
28
90
18
90
3
90
15
90
1
90
14
90
3
90
31
90
30
90
17
90
3
90
1
90
15
90
0
90
3
90
17
90
16
90
31
90
3
90
13
90
14
90
1
90
3
90
29
90
17
90
30
90
3
90
1
90
2
90
13
90
3
90
17
90
29
90
18
90
3
90
2
90
4
90
6
90
3
90
18
90
22
90
20
90
3
90
6
90
12
90
2
90
3
90
22
90
18
90
28
90
3
90
7
90
8
90
6
90
3
90
23
90
22
90
24
90
3
90
6
90
8
90
12
90
3
90
22
90
28
90
24
90
3
90
12
90
8
90
11
90
3
90
28
90
27
90
24
90
3
90
11
90
8
90
10
90
3
90
27
90
26
90
24
90
3
90
8
90
9
90
10
90
3
90
24
90
26
90
25
90
3
90
6
90
4
90
5
90
3
90
22
90
21
90
20
90
4
90
1
90
0
90
16
90
17
90
4
90
2
90
1
90
17
90
18
90
4
90
3
90
2
90
18
90
19
90
4
90
4
90
3
90
19
90
20
90
4
90
5
90
4
90
20
90
21
90
4
90
6
90
5
90
21
90
22
90
4
90
7
90
6
90
22
90
23
90
4
90
8
90
7
90
23
90
24
90
4
90
9
90
8
90
24
90
25
90
4
90
10
90
9
90
25
90
26
90
4
90
11
90
10
90
26
90
27
90
4
90
12
90
11
90
27
90
28
90
4
90
13
90
12
90
28
90
29
90
4
90
14
90
13
90
29
90
30
90
4
90
15
90
14
90
30
90
31
90
4
90
0
90
15
90
31
90
16
94
0
95
0
  0
MESH
  5
13ef
330
1F
  100
AcDbEntity
8
buildings
  100
AcDbSubDMesh
71
2
72
0
91
0
92
8
10
237.7671
20
50.3790
30
4.3162
10
261.3161
20
50.5043
30
4.3162
10
261.2831
20
56.2538
30
4.3162
10
237.7413
20
56.1284
30
4.3162
10
237.7671
20
50.3790
30
1.3162
10
261.3161
20
50.5043
30
1.3162
10
261.2831
20
56.2538
30
1.3162
10
237.7413
20
56.1284
30
1.3162
93
36
90
3
90
3
90
0
90
1
90
3
90
7
90
5
90
4
90
3
90
1
90
2
90
3
90
3
90
5
90
7
90
6
90
4
90
1
90
0
90
4
90
5
90
4
90
2
90
1
90
5
90
6
90
4
90
3
90
2
90
6
90
7
90
4
90
0
90
3
90
7
90
4
94
0
95
0
  0
MESH
  5
13f0
330
1F
  100
AcDbEntity
8
buildings
  100
AcDbSubDMesh
71
2
72
0
91
0
92
8
10
348.4104
20
150.6091
30
4.1004
10
357.2663
20
150.7038
30
4.1004
10
357.1363
20
162.3611
30
4.1004
10
348.2947
20
162.2663
30
4.1004
10
348.4104
20
150.6091
30
1.1004
10
357.2663
20
150.7038
30
1.1004
10
357.1363
20
162.3611
30
1.1004
10
348.2947
20
162.2663
30
1.1004
93
36
90
3
90
3
90
0
90
1
90
3
90
7
90
5
90
4
90
3
90
1
90
2
90
3
90
3
90
5
90
7
90
6
90
4
90
1
90
0
90
4
90
5
90
4
90
2
90
1
90
5
90
6
90
4
90
3
90
2
90
6
90
7
90
4
90
0
90
3
90
7
90
4
94
0
95
0
  0
MESH
  5
13f1
330
1F
  100
AcDbEntity
8
buildings
  100
AcDbSubDMesh
71
2
72
0
91
0
92
8
10
344.1107
20
205.9666
30
3.8302
10
353.1525
20
206.0608
30
3.8302
10
352.9177
20
228.2032
30
3.8302
10
343.8830
20
228.1090
30
3.8302
10
344.1107
20
205.9666
30
0.8302
10
353.1525
20
206.0608
30
0.8302
10
352.9177
20
228.2032
30
0.8302
10
343.8830
20
228.1090
30
0.8302
93
36
90
3
90
3
90
0
90
2
90
3
90
7
90
6
90
4
90
3
90
1
90
2
90
0
90
3
90
5
90
4
90
6
90
4
90
1
90
0
90
4
90
5
90
4
90
2
90
1
90
5
90
6
90
4
90
3
90
2
90
6
90
7
90
4
90
0
90
3
90
7
90
4
94
0
95
0
0
POLYLINE
  5
13f2
330
1F
  100
AcDbEntity
8
minor_roads
  100
AcDb3dPolyline
70
8
10
0.0000
20
0.0000
30
0.0000
0
VERTEX
  5
13f3
330
1F
  100
AcDbEntity
8
minor_roads
100
AcDbVertex
100
AcDb3dPolylineVertex
10
348.5036
20
271.4855
30
0.9103
70
32
0
VERTEX
  5
13f4
330
1F
  100
AcDbEntity
8
minor_roads
100
AcDbVertex
100
AcDb3dPolylineVertex
10
348.5114
20
270.0000
30
0.9103
70
32
0
VERTEX
  5
13f5
330
1F
  100
AcDbEntity
8
minor_roads
100
AcDbVertex
100
AcDb3dPolylineVertex
10
348.6225
20
248.8504
30
0.8742
70
32
0
SEQEND
  5
13f6
  100
AcDbEntity
0
POLYLINE
  5
13f7
330
1F
  100
AcDbEntity
8
major_roads
  100
AcDb3dPolyline
70
8
10
0.0000
20
0.0000
30
0.0000
0
VERTEX
  5
13f8
330
1F
  100
AcDbEntity
8
major_roads
100
AcDbVertex
100
AcDb3dPolylineVertex
10
405.3820
20
103.3942
30
0.1394
70
32
0
VERTEX
  5
13f9
330
1F
  100
AcDbEntity
8
major_roads
100
AcDbVertex
100
AcDb3dPolylineVertex
10
405.2091
20
90.0000
30
0.1166
70
32
0
VERTEX
  5
13fa
330
1F
  100
AcDbEntity
8
major_roads
100
AcDbVertex
100
AcDb3dPolylineVertex
10
405.2057
20
89.7376
30
0.1171
70
32
0
VERTEX
  5
13fb
330
1F
  100
AcDbEntity
8
major_roads
100
AcDbVertex
100
AcDb3dPolylineVertex
10
404.8225
20
71.3835
30
0.1539
70
32
0
SEQEND
  5
13fc
  100
AcDbEntity
0
POLYLINE
  5
13fd
330
1F
  100
AcDbEntity
8
minor_roads
  100
AcDb3dPolyline
70
8
10
0.0000
20
0.0000
30
0.0000
0
VERTEX
  5
13fe
330
1F
  100
AcDbEntity
8
minor_roads
100
AcDbVertex
100
AcDb3dPolylineVertex
10
17.0463
20
103.0718
30
4.3296
70
32
0
VERTEX
  5
13ff
330
1F
  100
AcDbEntity
8
minor_roads
100
AcDbVertex
100
AcDb3dPolylineVertex
10
14.0600
20
104.2995
30
4.3529
70
32
0
VERTEX
  5
1400
330
1F
  100
AcDbEntity
8
minor_roads
100
AcDbVertex
100
AcDb3dPolylineVertex
10
11.5916
20
106.5304
30
4.3752
70
32
0
VERTEX
  5
1401
330
1F
  100
AcDbEntity
8
minor_roads
100
AcDbVertex
100
AcDb3dPolylineVertex
10
9.2943
20
108.5375
30
4.3963
70
32
0
VERTEX
  5
1402
330
1F
  100
AcDbEntity
8
minor_roads
100
AcDbVertex
100
AcDb3dPolylineVertex
10
7.1170
20
112.3956
30
4.4216
70
32
0
VERTEX
  5
1403
330
1F
  100
AcDbEntity
8
minor_roads
100
AcDbVertex
100
AcDb3dPolylineVertex
10
5.8265
20
116.1765
30
4.4408
70
32
0
VERTEX
  5
1404
330
1F
  100
AcDbEntity
8
minor_roads
100
AcDbVertex
100
AcDb3dPolylineVertex
10
5.5387
20
117.9915
30
4.4477
70
32
0
VERTEX
  5
1405
330
1F
  100
AcDbEntity
8
minor_roads
100
AcDbVertex
100
AcDb3dPolylineVertex
10
5.4466
20
120.0000
30
4.4536
70
32
0
VERTEX
  5
1406
330
1F
  100
AcDbEntity
8
minor_roads
100
AcDbVertex
100
AcDb3dPolylineVertex
10
5.3306
20
122.5321
30
4.4421
70
32
0
VERTEX
  5
1407
330
1F
  100
AcDbEntity
8
minor_roads
100
AcDbVertex
100
AcDb3dPolylineVertex
10
5.8279
20
150.0000
30
4.3011
70
32
0
VERTEX
  5
1408
330
1F
  100
AcDbEntity
8
minor_roads
100
AcDbVertex
100
AcDb3dPolylineVertex
10
6.3513
20
178.9066
30
4.1980
70
32
0
VERTEX
  5
1409
330
1F
  100
AcDbEntity
8
minor_roads
100
AcDbVertex
100
AcDb3dPolylineVertex
10
6.7429
20
180.0000
30
4.1873
70
32
0
VERTEX
  5
140a
330
1F
  100
AcDbEntity
8
minor_roads
100
AcDbVertex
100
AcDb3dPolylineVertex
10
7.9022
20
183.2372
30
4.1694
70
32
0
VERTEX
  5
140b
330
1F
  100
AcDbEntity
8
minor_roads
100
AcDbVertex
100
AcDb3dPolylineVertex
10
10.6372
20
186.4479
30
4.1260
70
32
0
SEQEND
  5
140c
  100
AcDbEntity
  0
MESH
  5
140d
330
1F
  100
AcDbEntity
8
buildings
  100
AcDbSubDMesh
71
2
72
0
91
0
92
8
10
53.2712
20
136.7616
30
6.7189
10
58.2719
20
136.9792
30
6.7189
10
57.9708
20
143.9017
30
6.7189
10
52.9701
20
143.6841
30
6.7189
10
53.2712
20
136.7616
30
3.7189
10
58.2719
20
136.9792
30
3.7189
10
57.9708
20
143.9017
30
3.7189
10
52.9701
20
143.6841
30
3.7189
93
36
90
3
90
3
90
0
90
1
90
3
90
7
90
5
90
4
90
3
90
1
90
2
90
3
90
3
90
5
90
7
90
6
90
4
90
1
90
0
90
4
90
5
90
4
90
2
90
1
90
5
90
6
90
4
90
3
90
2
90
6
90
7
90
4
90
0
90
3
90
7
90
4
94
0
95
0
  0
MESH
  5
140e
330
1F
  100
AcDbEntity
8
buildings
  100
AcDbSubDMesh
71
2
72
0
91
0
92
8
10
246.4401
20
171.7230
30
5.0321
10
246.8934
20
182.2342
30
5.0321
10
238.6254
20
182.5938
30
5.0321
10
238.1721
20
172.0732
30
5.0321
10
246.4401
20
171.7230
30
2.0321
10
246.8934
20
182.2342
30
2.0321
10
238.6254
20
182.5938
30
2.0321
10
238.1721
20
172.0732
30
2.0321
93
36
90
3
90
2
90
3
90
0
90
3
90
6
90
4
90
7
90
3
90
0
90
1
90
2
90
3
90
4
90
6
90
5
90
4
90
1
90
0
90
4
90
5
90
4
90
2
90
1
90
5
90
6
90
4
90
3
90
2
90
6
90
7
90
4
90
0
90
3
90
7
90
4
94
0
95
0
  0
MESH
  5
140f
330
1F
  100
AcDbEntity
8
buildings
  100
AcDbSubDMesh
71
2
72
0
91
0
92
16
10
266.7456
20
60.2007
30
4.2670
10
266.7100
20
67.4760
30
4.2670
10
258.0616
20
67.4365
30
4.2670
10
258.0321
20
71.9580
30
4.2670
10
249.9130
20
71.9170
30
4.2670
10
249.9213
20
69.9075
30
4.2670
10
246.2159
20
69.8906
30
4.2670
10
245.8362
20
60.0861
30
4.2670
10
266.7456
20
60.2007
30
1.2670
10
266.7100
20
67.4760
30
1.2670
10
258.0616
20
67.4365
30
1.2670
10
258.0321
20
71.9580
30
1.2670
10
249.9130
20
71.9170
30
1.2670
10
249.9213
20
69.9075
30
1.2670
10
246.2159
20
69.8906
30
1.2670
10
245.8362
20
60.0861
30
1.2670
93
88
90
3
90
6
90
7
90
5
90
3
90
14
90
13
90
15
90
3
90
4
90
5
90
3
90
3
90
12
90
11
90
13
90
3
90
7
90
2
90
5
90
3
90
15
90
13
90
10
90
3
90
2
90
0
90
1
90
3
90
10
90
9
90
8
90
3
90
0
90
2
90
7
90
3
90
8
90
15
90
10
90
3
90
2
90
3
90
5
90
3
90
10
90
13
90
11
90
4
90
1
90
0
90
8
90
9
90
4
90
2
90
1
90
9
90
10
90
4
90
3
90
2
90
10
90
11
90
4
90
4
90
3
90
11
90
12
90
4
90
5
90
4
90
12
90
13
90
4
90
6
90
5
90
13
90
14
90
4
90
7
90
6
90
14
90
15
90
4
90
0
90
7
90
15
90
8
94
0
95
0
0
POLYLINE
  5
1410
330
1F
  100
AcDbEntity
8
paths
  100
AcDb3dPolyline
70
8
10
0.0000
20
0.0000
30
0.0000
0
VERTEX
  5
1411
330
1F
  100
AcDbEntity
8
paths
100
AcDbVertex
100
AcDb3dPolylineVertex
10
273.6884
20
109.7384
30
1.4999
70
32
0
VERTEX
  5
1412
330
1F
  100
AcDbEntity
8
paths
100
AcDbVertex
100
AcDb3dPolylineVertex
10
277.7028
20
105.4097
30
1.4292
70
32
0
VERTEX
  5
1413
330
1F
  100
AcDbEntity
8
paths
100
AcDbVertex
100
AcDb3dPolylineVertex
10
284.4053
20
98.1705
30
1.3074
70
32
0
SEQEND
  5
1414
  100
AcDbEntity
0
POLYLINE
  5
1415
330
1F
  100
AcDbEntity
8
minor_roads
  100
AcDb3dPolyline
70
8
10
0.0000
20
0.0000
30
0.0000
0
VERTEX
  5
1416
330
1F
  100
AcDbEntity
8
minor_roads
100
AcDbVertex
100
AcDb3dPolylineVertex
10
259.7122
20
239.0929
30
1.8779
70
32
0
VERTEX
  5
1417
330
1F
  100
AcDbEntity
8
minor_roads
100
AcDbVertex
100
AcDb3dPolylineVertex
10
259.6373
20
231.1128
30
1.8529
70
32
0
VERTEX
  5
1418
330
1F
  100
AcDbEntity
8
minor_roads
100
AcDbVertex
100
AcDb3dPolylineVertex
10
270.0000
20
231.0491
30
1.6808
70
32
0
VERTEX
  5
1419
330
1F
  100
AcDbEntity
8
minor_roads
100
AcDbVertex
100
AcDb3dPolylineVertex
10
277.0975
20
231.0054
30
1.6017
70
32
0
SEQEND
  5
141a
  100
AcDbEntity
0
POLYLINE
  5
141b
330
1F
  100
AcDbEntity
8
major_roads
  100
AcDb3dPolyline
70
8
10
0.0000
20
0.0000
30
0.0000
0
VERTEX
  5
141c
330
1F
  100
AcDbEntity
8
major_roads
100
AcDbVertex
100
AcDb3dPolylineVertex
10
404.0748
20
12.0033
30
0.3768
70
32
0
VERTEX
  5
141d
330
1F
  100
AcDbEntity
8
major_roads
100
AcDbVertex
100
AcDb3dPolylineVertex
10
404.0331
20
0.0075
30
0.4452
70
32
0
SEQEND
  5
141e
  100
AcDbEntity
0
POLYLINE
  5
141f
330
1F
  100
AcDbEntity
8
paths
  100
AcDb3dPolyline
70
8
10
0.0000
20
0.0000
30
0.0000
0
VERTEX
  5
1420
330
1F
  100
AcDbEntity
8
paths
100
AcDbVertex
100
AcDb3dPolylineVertex
10
73.5054
20
2.3439
30
3.5866
70
32
0
VERTEX
  5
1421
330
1F
  100
AcDbEntity
8
paths
100
AcDbVertex
100
AcDb3dPolylineVertex
10
90.0000
20
2.4325
30
3.5491
70
32
0
VERTEX
  5
1422
330
1F
  100
AcDbEntity
8
paths
100
AcDbVertex
100
AcDb3dPolylineVertex
10
120.0000
20
2.5937
30
3.3637
70
32
0
VERTEX
  5
1423
330
1F
  100
AcDbEntity
8
paths
100
AcDbVertex
100
AcDb3dPolylineVertex
10
138.0008
20
2.6905
30
3.1127
70
32
0
SEQEND
  5
1424
  100
AcDbEntity
  0
MESH
  5
1425
330
1F
  100
AcDbEntity
8
buildings
  100
AcDbSubDMesh
71
2
72
0
91
0
92
8
10
17.4757
20
79.3287
30
7.2039
10
28.0415
20
79.4644
30
7.2039
10
27.9491
20
86.8049
30
7.2039
10
17.3833
20
86.6785
30
7.2039
10
17.4757
20
79.3287
30
4.2039
10
28.0415
20
79.4644
30
4.2039
10
27.9491
20
86.8049
30
4.2039
10
17.3833
20
86.6785
30
4.2039
93
36
90
3
90
3
90
0
90
2
90
3
90
7
90
6
90
4
90
3
90
1
90
2
90
0
90
3
90
5
90
4
90
6
90
4
90
1
90
0
90
4
90
5
90
4
90
2
90
1
90
5
90
6
90
4
90
3
90
2
90
6
90
7
90
4
90
0
90
3
90
7
90
4
94
0
95
0
0
POLYLINE
  5
1426
330
1F
  100
AcDbEntity
8
paths
  100
AcDb3dPolyline
70
8
10
0.0000
20
0.0000
30
0.0000
0
VERTEX
  5
1427
330
1F
  100
AcDbEntity
8
paths
100
AcDbVertex
100
AcDb3dPolylineVertex
10
5.8312
20
91.5602
30
4.3775
70
32
0
VERTEX
  5
1428
330
1F
  100
AcDbEntity
8
paths
100
AcDbVertex
100
AcDb3dPolylineVertex
10
17.0463
20
103.0718
30
4.3296
70
32
0
SEQEND
  5
1429
  100
AcDbEntity
  0
MESH
  5
142a
330
1F
  100
AcDbEntity
8
buildings
  100
AcDbSubDMesh
71
2
72
0
91
0
92
8
10
105.5507
20
71.1476
30
6.0623
10
129.1996
20
71.2164
30
6.0623
10
129.1636
20
85.4876
30
6.0623
10
105.5076
20
85.4281
30
6.0623
10
105.5507
20
71.1476
30
3.0623
10
129.1996
20
71.2164
30
3.0623
10
129.1636
20
85.4876
30
3.0623
10
105.5076
20
85.4281
30
3.0623
93
36
90
3
90
3
90
0
90
2
90
3
90
7
90
6
90
4
90
3
90
1
90
2
90
0
90
3
90
5
90
4
90
6
90
4
90
1
90
0
90
4
90
5
90
4
90
2
90
1
90
5
90
6
90
4
90
3
90
2
90
6
90
7
90
4
90
0
90
3
90
7
90
4
94
0
95
0
  0
MESH
  5
142b
330
1F
  100
AcDbEntity
8
buildings
  100
AcDbSubDMesh
71
2
72
0
91
0
92
8
10
208.2214
20
20.6780
30
4.8367
10
218.1575
20
20.7322
30
4.8367
10
218.0128
20
46.5956
30
4.8367
10
208.0767
20
46.5507
30
4.8367
10
208.2214
20
20.6780
30
1.8367
10
218.1575
20
20.7322
30
1.8367
10
218.0128
20
46.5956
30
1.8367
10
208.0767
20
46.5507
30
1.8367
93
36
90
3
90
3
90
0
90
2
90
3
90
7
90
6
90
4
90
3
90
1
90
2
90
0
90
3
90
5
90
4
90
6
90
4
90
1
90
0
90
4
90
5
90
4
90
2
90
1
90
5
90
6
90
4
90
3
90
2
90
6
90
7
90
4
90
0
90
3
90
7
90
4
94
0
95
0
  0
MESH
  5
142c
330
1F
  100
AcDbEntity
8
buildings
  100
AcDbSubDMesh
71
2
72
0
91
0
92
12
10
372.6385
20
80.5679
30
3.1599
10
372.6816
20
68.5573
30
3.1599
10
386.6449
20
68.5904
30
3.1599
10
386.6073
20
80.0707
30
3.1599
10
386.5634
20
91.8487
30
3.1599
10
372.6074
20
91.8156
30
3.1599
10
372.6385
20
80.5679
30
0.1599
10
372.6816
20
68.5573
30
0.1599
10
386.6449
20
68.5904
30
0.1599
10
386.6073
20
80.0707
30
0.1599
10
386.5634
20
91.8487
30
0.1599
10
372.6074
20
91.8156
30
0.1599
93
62
90
3
90
4
90
5
90
0
90
3
90
10
90
6
90
11
90
3
90
3
90
0
90
1
90
3
90
9
90
7
90
6
90
3
90
0
90
3
90
4
90
3
90
6
90
10
90
9
90
3
90
3
90
1
90
2
90
3
90
9
90
8
90
7
90
4
90
1
90
0
90
6
90
7
90
4
90
2
90
1
90
7
90
8
90
4
90
3
90
2
90
8
90
9
90
4
90
4
90
3
90
9
90
10
90
4
90
5
90
4
90
10
90
11
90
4
90
0
90
5
90
11
90
6
94
0
95
0
0
POLYLINE
  5
142d
330
1F
  100
AcDbEntity
8
major_roads
  100
AcDb3dPolyline
70
8
10
0.0000
20
0.0000
30
0.0000
0
VERTEX
  5
142e
330
1F
  100
AcDbEntity
8
major_roads
100
AcDbVertex
100
AcDb3dPolylineVertex
10
182.4983
20
313.3503
30
2.7532
70
32
0
VERTEX
  5
142f
330
1F
  100
AcDbEntity
8
major_roads
100
AcDbVertex
100
AcDb3dPolylineVertex
10
180.0000
20
313.3675
30
2.7813
70
32
0
VERTEX
  5
1430
330
1F
  100
AcDbEntity
8
major_roads
100
AcDbVertex
100
AcDb3dPolylineVertex
10
150.0000
20
313.5745
30
2.9926
70
32
0
VERTEX
  5
1431
330
1F
  100
AcDbEntity
8
major_roads
100
AcDbVertex
100
AcDb3dPolylineVertex
10
142.1131
20
313.6290
30
3.0759
70
32
0
SEQEND
  5
1432
  100
AcDbEntity
0
POLYLINE
  5
1433
330
1F
  100
AcDbEntity
8
minor_roads
  100
AcDb3dPolyline
70
8
10
0.0000
20
0.0000
30
0.0000
0
VERTEX
  5
1434
330
1F
  100
AcDbEntity
8
minor_roads
100
AcDbVertex
100
AcDb3dPolylineVertex
10
277.6014
20
261.5459
30
1.6826
70
32
0
VERTEX
  5
1435
330
1F
  100
AcDbEntity
8
minor_roads
100
AcDbVertex
100
AcDb3dPolylineVertex
10
300.0000
20
261.7250
30
1.4293
70
32
0
VERTEX
  5
1436
330
1F
  100
AcDbEntity
8
minor_roads
100
AcDbVertex
100
AcDb3dPolylineVertex
10
309.8554
20
261.8037
30
1.3210
70
32
0
SEQEND
  5
1437
  100
AcDbEntity
0
POLYLINE
  5
1438
330
1F
  100
AcDbEntity
8
minor_roads
  100
AcDb3dPolyline
70
8
10
0.0000
20
0.0000
30
0.0000
0
VERTEX
  5
1439
330
1F
  100
AcDbEntity
8
minor_roads
100
AcDbVertex
100
AcDb3dPolylineVertex
10
367.0265
20
69.5974
30
0.2901
70
32
0
VERTEX
  5
143a
330
1F
  100
AcDbEntity
8
minor_roads
100
AcDbVertex
100
AcDb3dPolylineVertex
10
367.2209
20
90.0000
30
0.3368
70
32
0
VERTEX
  5
143b
330
1F
  100
AcDbEntity
8
minor_roads
100
AcDbVertex
100
AcDb3dPolylineVertex
10
367.3481
20
103.3485
30
0.4683
70
32
0
SEQEND
  5
143c
  100
AcDbEntity
0
POLYLINE
  5
143d
330
1F
  100
AcDbEntity
8
minor_roads
  100
AcDb3dPolyline
70
8
10
0.0000
20
0.0000
30
0.0000
0
VERTEX
  5
143e
330
1F
  100
AcDbEntity
8
minor_roads
100
AcDbVertex
100
AcDb3dPolylineVertex
10
94.1055
20
238.3793
30
3.5804
70
32
0
VERTEX
  5
143f
330
1F
  100
AcDbEntity
8
minor_roads
100
AcDbVertex
100
AcDb3dPolylineVertex
10
120.0000
20
238.1246
30
3.1818
70
32
0
VERTEX
  5
1440
330
1F
  100
AcDbEntity
8
minor_roads
100
AcDbVertex
100
AcDb3dPolylineVertex
10
141.6866
20
237.9113
30
2.8956
70
32
0
SEQEND
  5
1441
  100
AcDbEntity
  0
MESH
  5
1442
330
1F
  100
AcDbEntity
8
buildings
  100
AcDbSubDMesh
71
2
72
0
91
0
92
8
10
295.6399
20
118.7903
30
4.3150
10
311.0269
20
118.9400
30
4.3150
10
310.8479
20
135.7887
30
4.3150
10
295.4609
20
135.6297
30
4.3150
10
295.6399
20
118.7903
30
1.3150
10
311.0269
20
118.9400
30
1.3150
10
310.8479
20
135.7887
30
1.3150
10
295.4609
20
135.6297
30
1.3150
93
36
90
3
90
3
90
0
90
2
90
3
90
7
90
6
90
4
90
3
90
1
90
2
90
0
90
3
90
5
90
4
90
6
90
4
90
1
90
0
90
4
90
5
90
4
90
2
90
1
90
5
90
6
90
4
90
3
90
2
90
6
90
7
90
4
90
0
90
3
90
7
90
4
94
0
95
0
0
POLYLINE
  5
1443
330
1F
  100
AcDbEntity
8
minor_roads
  100
AcDb3dPolyline
70
8
10
0.0000
20
0.0000
30
0.0000
0
VERTEX
  5
1444
330
1F
  100
AcDbEntity
8
minor_roads
100
AcDbVertex
100
AcDb3dPolylineVertex
10
295.2456
20
63.0838
30
1.0006
70
32
0
VERTEX
  5
1445
330
1F
  100
AcDbEntity
8
minor_roads
100
AcDbVertex
100
AcDb3dPolylineVertex
10
300.0000
20
63.1490
30
0.9554
70
32
0
VERTEX
  5
1446
330
1F
  100
AcDbEntity
8
minor_roads
100
AcDbVertex
100
AcDb3dPolylineVertex
10
313.6660
20
63.3362
30
0.8539
70
32
0
VERTEX
  5
1447
330
1F
  100
AcDbEntity
8
minor_roads
100
AcDbVertex
100
AcDb3dPolylineVertex
10
330.0000
20
63.5743
30
0.7325
70
32
0
VERTEX
  5
1448
330
1F
  100
AcDbEntity
8
minor_roads
100
AcDbVertex
100
AcDb3dPolylineVertex
10
335.4129
20
63.6532
30
0.6580
70
32
0
SEQEND
  5
1449
  100
AcDbEntity
  0
MESH
  5
144a
330
1F
  100
AcDbEntity
8
buildings
  100
AcDbSubDMesh
71
2
72
0
91
0
92
8
10
254.0563
20
269.7190
30
4.9343
10
261.8035
20
269.8635
30
4.9343
10
261.4825
20
286.9916
30
4.9343
10
253.7210
20
286.8472
30
4.9343
10
254.0563
20
269.7190
30
1.9343
10
261.8035
20
269.8635
30
1.9343
10
261.4825
20
286.9916
30
1.9343
10
253.7210
20
286.8472
30
1.9343
93
36
90
3
90
3
90
0
90
2
90
3
90
7
90
6
90
4
90
3
90
1
90
2
90
0
90
3
90
5
90
4
90
6
90
4
90
1
90
0
90
4
90
5
90
4
90
2
90
1
90
5
90
6
90
4
90
3
90
2
90
6
90
7
90
4
90
0
90
3
90
7
90
4
94
0
95
0
  0
MESH
  5
144b
330
1F
  100
AcDbEntity
8
buildings
  100
AcDbSubDMesh
71
2
72
0
91
0
92
8
10
316.1174
20
118.0691
30
4.1521
10
326.5614
20
118.1869
30
4.1521
10
326.3387
20
139.5757
30
4.1521
10
315.8947
20
139.4764
30
4.1521
10
316.1174
20
118.0691
30
1.1521
10
326.5614
20
118.1869
30
1.1521
10
326.3387
20
139.5757
30
1.1521
10
315.8947
20
139.4764
30
1.1521
93
36
90
3
90
3
90
0
90
2
90
3
90
7
90
6
90
4
90
3
90
1
90
2
90
0
90
3
90
5
90
4
90
6
90
4
90
1
90
0
90
4
90
5
90
4
90
2
90
1
90
5
90
6
90
4
90
3
90
2
90
6
90
7
90
4
90
0
90
3
90
7
90
4
94
0
95
0
  0
MESH
  5
144c
330
1F
  100
AcDbEntity
8
buildings
  100
AcDbSubDMesh
71
2
72
0
91
0
92
8
10
42.1149
20
130.4968
30
6.9312
10
42.2111
20
141.1115
30
6.9312
10
33.2269
20
141.1850
30
6.9312
10
33.1378
20
130.5703
30
6.9312
10
42.1149
20
130.4968
30
3.9312
10
42.2111
20
141.1115
30
3.9312
10
33.2269
20
141.1850
30
3.9312
10
33.1378
20
130.5703
30
3.9312
93
36
90
3
90
2
90
3
90
0
90
3
90
6
90
4
90
7
90
3
90
0
90
1
90
2
90
3
90
4
90
6
90
5
90
4
90
1
90
0
90
4
90
5
90
4
90
2
90
1
90
5
90
6
90
4
90
3
90
2
90
6
90
7
90
4
90
0
90
3
90
7
90
4
94
0
95
0
  0
MESH
  5
144d
330
1F
  100
AcDbEntity
8
buildings
  100
AcDbSubDMesh
71
2
72
0
91
0
92
8
10
159.5153
20
49.6912
30
5.7406
10
159.5318
20
55.2266
30
5.7406
10
149.4529
20
55.2567
30
5.7406
10
149.4364
20
49.7213
30
5.7406
10
159.5153
20
49.6912
30
2.7406
10
159.5318
20
55.2266
30
2.7406
10
149.4529
20
55.2567
30
2.7406
10
149.4364
20
49.7213
30
2.7406
93
36
90
3
90
2
90
3
90
1
90
3
90
6
90
5
90
7
90
3
90
0
90
1
90
3
90
3
90
4
90
7
90
5
90
4
90
1
90
0
90
4
90
5
90
4
90
2
90
1
90
5
90
6
90
4
90
3
90
2
90
6
90
7
90
4
90
0
90
3
90
7
90
4
94
0
95
0
  0
MESH
  5
144e
330
1F
  100
AcDbEntity
8
buildings
  100
AcDbSubDMesh
71
2
72
0
91
0
92
8
10
160.6366
20
166.4990
30
5.6494
10
160.7696
20
179.9046
30
5.6494
10
154.0315
20
179.9805
30
5.6494
10
153.8913
20
166.5750
30
5.6494
10
160.6366
20
166.4990
30
2.6494
10
160.7696
20
179.9046
30
2.6494
10
154.0315
20
179.9805
30
2.6494
10
153.8913
20
166.5750
30
2.6494
93
36
90
3
90
2
90
3
90
1
90
3
90
6
90
5
90
7
90
3
90
0
90
1
90
3
90
3
90
4
90
7
90
5
90
4
90
1
90
0
90
4
90
5
90
4
90
2
90
1
90
5
90
6
90
4
90
3
90
2
90
6
90
7
90
4
90
0
90
3
90
7
90
4
94
0
95
0
0
POLYLINE
  5
144f
330
1F
  100
AcDbEntity
8
major_roads
  100
AcDb3dPolyline
70
8
10
0.0000
20
0.0000
30
0.0000
0
VERTEX
  5
1450
330
1F
  100
AcDbEntity
8
major_roads
100
AcDbVertex
100
AcDb3dPolylineVertex
10
404.0748
20
12.0033
30
0.3768
70
32
0
VERTEX
  5
1451
330
1F
  100
AcDbEntity
8
major_roads
100
AcDbVertex
100
AcDb3dPolylineVertex
10
406.5698
20
12.0042
30
0.3652
70
32
0
SEQEND
  5
1452
  100
AcDbEntity
0
POLYLINE
  5
1453
330
1F
  100
AcDbEntity
8
major_roads
  100
AcDb3dPolyline
70
8
10
0.0000
20
0.0000
30
0.0000
0
VERTEX
  5
1454
330
1F
  100
AcDbEntity
8
major_roads
100
AcDbVertex
100
AcDb3dPolylineVertex
10
0.0286
20
10.7393
30
4.0805
70
32
0
VERTEX
  5
1455
330
1F
  100
AcDbEntity
8
major_roads
100
AcDbVertex
100
AcDb3dPolylineVertex
10
6.9617
20
10.7211
30
4.0127
70
32
0
VERTEX
  5
1456
330
1F
  100
AcDbEntity
8
major_roads
100
AcDbVertex
100
AcDb3dPolylineVertex
10
22.5125
20
10.5535
30
3.8594
70
32
0
VERTEX
  5
1457
330
1F
  100
AcDbEntity
8
major_roads
100
AcDbVertex
100
AcDb3dPolylineVertex
10
30.0000
20
10.5542
30
3.7860
70
32
0
VERTEX
  5
1458
330
1F
  100
AcDbEntity
8
major_roads
100
AcDbVertex
100
AcDb3dPolylineVertex
10
60.0000
20
10.5573
30
3.6570
70
32
0
VERTEX
  5
1459
330
1F
  100
AcDbEntity
8
major_roads
100
AcDbVertex
100
AcDb3dPolylineVertex
10
73.4728
20
10.5587
30
3.5958
70
32
0
VERTEX
  5
145a
330
1F
  100
AcDbEntity
8
major_roads
100
AcDbVertex
100
AcDb3dPolylineVertex
10
90.0000
20
10.5442
30
3.5208
70
32
0
VERTEX
  5
145b
330
1F
  100
AcDbEntity
8
major_roads
100
AcDbVertex
100
AcDb3dPolylineVertex
10
120.0000
20
10.5177
30
3.3155
70
32
0
VERTEX
  5
145c
330
1F
  100
AcDbEntity
8
major_roads
100
AcDbVertex
100
AcDb3dPolylineVertex
10
138.0257
20
10.5018
30
3.0670
70
32
0
SEQEND
  5
145d
  100
AcDbEntity
0
POLYLINE
  5
145e
330
1F
  100
AcDbEntity
8
minor_roads
  100
AcDb3dPolyline
70
8
10
0.0000
20
0.0000
30
0.0000
0
VERTEX
  5
145f
330
1F
  100
AcDbEntity
8
minor_roads
100
AcDbVertex
100
AcDb3dPolylineVertex
10
6.5525
20
301.8940
30
4.7215
70
32
0
VERTEX
  5
1460
330
1F
  100
AcDbEntity
8
minor_roads
100
AcDbVertex
100
AcDb3dPolylineVertex
10
6.8403
20
313.0390
30
4.6997
70
32
0
SEQEND
  5
1461
  100
AcDbEntity
0
POLYLINE
  5
1462
330
1F
  100
AcDbEntity
8
major_roads
  100
AcDb3dPolyline
70
8
10
0.0000
20
0.0000
30
0.0000
0
VERTEX
  5
1463
330
1F
  100
AcDbEntity
8
major_roads
100
AcDbVertex
100
AcDb3dPolylineVertex
10
138.0257
20
10.5018
30
3.0670
70
32
0
VERTEX
  5
1464
330
1F
  100
AcDbEntity
8
major_roads
100
AcDbVertex
100
AcDb3dPolylineVertex
10
141.2791
20
10.5698
30
3.0218
70
32
0
SEQEND
  5
1465
  100
AcDbEntity
0
POLYLINE
  5
1466
330
1F
  100
AcDbEntity
8
major_roads
  100
AcDb3dPolyline
70
8
10
0.0000
20
0.0000
30
0.0000
0
VERTEX
  5
1467
330
1F
  100
AcDbEntity
8
major_roads
100
AcDbVertex
100
AcDb3dPolylineVertex
10
376.1170
20
308.6446
30
0.6224
70
32
0
VERTEX
  5
1468
330
1F
  100
AcDbEntity
8
major_roads
100
AcDbVertex
100
AcDb3dPolylineVertex
10
390.0000
20
310.1459
30
0.4880
70
32
0
VERTEX
  5
1469
330
1F
  100
AcDbEntity
8
major_roads
100
AcDbVertex
100
AcDb3dPolylineVertex
10
394.7066
20
310.6549
30
0.4557
70
32
0
VERTEX
  5
146a
330
1F
  100
AcDbEntity
8
major_roads
100
AcDbVertex
100
AcDb3dPolylineVertex
10
397.4158
20
311.0181
30
0.4366
70
32
0
VERTEX
  5
146b
330
1F
  100
AcDbEntity
8
major_roads
100
AcDbVertex
100
AcDb3dPolylineVertex
10
407.4569
20
312.3993
30
0.3645
70
32
0
SEQEND
  5
146c
  100
AcDbEntity
0
POLYLINE
  5
146d
330
1F
  100
AcDbEntity
8
major_roads
  100
AcDb3dPolyline
70
8
10
0.0000
20
0.0000
30
0.0000
0
VERTEX
  5
146e
330
1F
  100
AcDbEntity
8
major_roads
100
AcDbVertex
100
AcDb3dPolylineVertex
10
50.4956
20
313.1497
30
4.2244
70
32
0
VERTEX
  5
146f
330
1F
  100
AcDbEntity
8
major_roads
100
AcDbVertex
100
AcDb3dPolylineVertex
10
30.0000
20
313.0977
30
4.4459
70
32
0
VERTEX
  5
1470
330
1F
  100
AcDbEntity
8
major_roads
100
AcDbVertex
100
AcDb3dPolylineVertex
10
6.8403
20
313.0390
30
4.6997
70
32
0
SEQEND
  5
1471
  100
AcDbEntity
  0
MESH
  5
1472
330
1F
  100
AcDbEntity
8
buildings
  100
AcDbSubDMesh
71
2
72
0
91
0
92
14
10
157.2654
20
259.2529
30
5.6212
10
177.9819
20
259.6469
30
5.6212
10
191.4019
20
259.9046
30
5.6212
10
190.8443
20
288.8021
30
5.6212
10
177.4244
20
288.5537
30
5.6212
10
177.7589
20
271.2022
30
5.6212
10
157.0424
20
270.8082
30
5.6212
10
157.2654
20
259.2529
30
2.6212
10
177.9819
20
259.6469
30
2.6212
10
191.4019
20
259.9046
30
2.6212
10
190.8443
20
288.8021
30
2.6212
10
177.4244
20
288.5537
30
2.6212
10
177.7589
20
271.2022
30
2.6212
10
157.0424
20
270.8082
30
2.6212
93
75
90
3
90
5
90
6
90
0
90
3
90
12
90
7
90
13
90
3
90
1
90
2
90
5
90
3
90
8
90
12
90
9
90
3
90
5
90
3
90
4
90
3
90
12
90
11
90
10
90
3
90
3
90
5
90
2
90
3
90
10
90
9
90
12
90
3
90
1
90
5
90
0
90
3
90
8
90
7
90
12
90
4
90
1
90
0
90
7
90
8
90
4
90
2
90
1
90
8
90
9
90
4
90
3
90
2
90
9
90
10
90
4
90
4
90
3
90
10
90
11
90
4
90
5
90
4
90
11
90
12
90
4
90
6
90
5
90
12
90
13
90
4
90
0
90
6
90
13
90
7
94
0
95
0
  0
MESH
  5
1473
330
1F
  100
AcDbEntity
8
buildings
  100
AcDbSubDMesh
71
2
72
0
91
0
92
8
10
386.8937
20
273.7628
30
3.4957
10
395.8281
20
273.8388
30
3.4957
10
395.6402
20
294.9669
30
3.4957
10
386.7058
20
294.9003
30
3.4957
10
386.8937
20
273.7628
30
0.4957
10
395.8281
20
273.8388
30
0.4957
10
395.6402
20
294.9669
30
0.4957
10
386.7058
20
294.9003
30
0.4957
93
36
90
3
90
3
90
0
90
2
90
3
90
7
90
6
90
4
90
3
90
1
90
2
90
0
90
3
90
5
90
4
90
6
90
4
90
1
90
0
90
4
90
5
90
4
90
2
90
1
90
5
90
6
90
4
90
3
90
2
90
6
90
7
90
4
90
0
90
3
90
7
90
4
94
0
95
0
  0
MESH
  5
1474
330
1F
  100
AcDbEntity
8
buildings
  100
AcDbSubDMesh
71
2
72
0
91
0
92
8
10
209.8456
20
208.1051
30
5.2720
10
221.0695
20
208.3136
30
5.2720
10
220.4630
20
240.0580
30
5.2720
10
209.2320
20
239.8496
30
5.2720
10
209.8456
20
208.1051
30
2.2720
10
221.0695
20
208.3136
30
2.2720
10
220.4630
20
240.0580
30
2.2720
10
209.2320
20
239.8496
30
2.2720
93
36
90
3
90
3
90
0
90
2
90
3
90
7
90
6
90
4
90
3
90
1
90
2
90
0
90
3
90
5
90
4
90
6
90
4
90
1
90
0
90
4
90
5
90
4
90
2
90
1
90
5
90
6
90
4
90
3
90
2
90
6
90
7
90
4
90
0
90
3
90
7
90
4
94
0
95
0
0
POLYLINE
  5
1475
330
1F
  100
AcDbEntity
8
minor_roads
  100
AcDb3dPolyline
70
8
10
0.0000
20
0.0000
30
0.0000
0
VERTEX
  5
1476
330
1F
  100
AcDbEntity
8
minor_roads
100
AcDbVertex
100
AcDb3dPolylineVertex
10
391.1325
20
103.3340
30
0.2218
70
32
0
VERTEX
  5
1477
330
1F
  100
AcDbEntity
8
minor_roads
100
AcDbVertex
100
AcDb3dPolylineVertex
10
391.1202
20
90.0000
30
0.1340
70
32
0
VERTEX
  5
1478
330
1F
  100
AcDbEntity
8
minor_roads
100
AcDbVertex
100
AcDb3dPolylineVertex
10
391.1031
20
71.5915
30
0.1388
70
32
0
VERTEX
  5
1479
330
1F
  100
AcDbEntity
8
minor_roads
100
AcDbVertex
100
AcDb3dPolylineVertex
10
404.8225
20
71.3835
30
0.1539
70
32
0
SEQEND
  5
147a
  100
AcDbEntity
0
POLYLINE
  5
147b
330
1F
  100
AcDbEntity
8
minor_roads
  100
AcDb3dPolyline
70
8
10
0.0000
20
0.0000
30
0.0000
0
VERTEX
  5
147c
330
1F
  100
AcDbEntity
8
minor_roads
100
AcDbVertex
100
AcDb3dPolylineVertex
10
17.0463
20
103.0718
30
4.3296
70
32
0
VERTEX
  5
147d
330
1F
  100
AcDbEntity
8
minor_roads
100
AcDbVertex
100
AcDb3dPolylineVertex
10
19.9472
20
101.9560
30
4.3075
70
32
0
VERTEX
  5
147e
330
1F
  100
AcDbEntity
8
minor_roads
100
AcDbVertex
100
AcDb3dPolylineVertex
10
24.3444
20
101.2916
30
4.2762
70
32
0
VERTEX
  5
147f
330
1F
  100
AcDbEntity
8
minor_roads
100
AcDbVertex
100
AcDb3dPolylineVertex
10
30.0000
20
101.4030
30
4.2378
70
32
0
VERTEX
  5
1480
330
1F
  100
AcDbEntity
8
minor_roads
100
AcDbVertex
100
AcDb3dPolylineVertex
10
60.0000
20
101.9938
30
3.9181
70
32
0
VERTEX
  5
1481
330
1F
  100
AcDbEntity
8
minor_roads
100
AcDbVertex
100
AcDb3dPolylineVertex
10
62.8740
20
102.0504
30
3.8814
70
32
0
VERTEX
  5
1482
330
1F
  100
AcDbEntity
8
minor_roads
100
AcDbVertex
100
AcDb3dPolylineVertex
10
90.0000
20
102.3024
30
3.5353
70
32
0
VERTEX
  5
1483
330
1F
  100
AcDbEntity
8
minor_roads
100
AcDbVertex
100
AcDb3dPolylineVertex
10
120.0000
20
102.5810
30
3.2319
70
32
0
VERTEX
  5
1484
330
1F
  100
AcDbEntity
8
minor_roads
100
AcDbVertex
100
AcDb3dPolylineVertex
10
140.9037
20
102.7751
30
3.0652
70
32
0
VERTEX
  5
1485
330
1F
  100
AcDbEntity
8
minor_roads
100
AcDbVertex
100
AcDb3dPolylineVertex
10
150.0000
20
102.7135
30
2.9925
70
32
0
VERTEX
  5
1486
330
1F
  100
AcDbEntity
8
minor_roads
100
AcDbVertex
100
AcDb3dPolylineVertex
10
180.0000
20
102.5102
30
2.6207
70
32
0
VERTEX
  5
1487
330
1F
  100
AcDbEntity
8
minor_roads
100
AcDbVertex
100
AcDb3dPolylineVertex
10
210.0000
20
102.3069
30
1.9958
70
32
0
VERTEX
  5
1488
330
1F
  100
AcDbEntity
8
minor_roads
100
AcDbVertex
100
AcDb3dPolylineVertex
10
234.0798
20
102.1438
30
1.7543
70
32
0
VERTEX
  5
1489
330
1F
  100
AcDbEntity
8
minor_roads
100
AcDbVertex
100
AcDb3dPolylineVertex
10
240.0000
20
102.1925
30
1.6955
70
32
0
VERTEX
  5
148a
330
1F
  100
AcDbEntity
8
minor_roads
100
AcDbVertex
100
AcDb3dPolylineVertex
10
250.6829
20
102.2804
30
1.6094
70
32
0
VERTEX
  5
148b
330
1F
  100
AcDbEntity
8
minor_roads
100
AcDbVertex
100
AcDb3dPolylineVertex
10
256.8716
20
102.6900
30
1.5630
70
32
0
VERTEX
  5
148c
330
1F
  100
AcDbEntity
8
minor_roads
100
AcDbVertex
100
AcDb3dPolylineVertex
10
261.4294
20
103.0858
30
1.5298
70
32
0
VERTEX
  5
148d
330
1F
  100
AcDbEntity
8
minor_roads
100
AcDbVertex
100
AcDb3dPolylineVertex
10
266.0893
20
104.1325
30
1.5020
70
32
0
VERTEX
  5
148e
330
1F
  100
AcDbEntity
8
minor_roads
100
AcDbVertex
100
AcDb3dPolylineVertex
10
268.1521
20
105.0474
30
1.4942
70
32
0
VERTEX
  5
148f
330
1F
  100
AcDbEntity
8
minor_roads
100
AcDbVertex
100
AcDb3dPolylineVertex
10
270.0000
20
106.3696
30
1.4920
70
32
0
VERTEX
  5
1490
330
1F
  100
AcDbEntity
8
minor_roads
100
AcDbVertex
100
AcDb3dPolylineVertex
10
271.4926
20
107.4377
30
1.4922
70
32
0
VERTEX
  5
1491
330
1F
  100
AcDbEntity
8
minor_roads
100
AcDbVertex
100
AcDb3dPolylineVertex
10
273.6884
20
109.7384
30
1.4999
70
32
0
SEQEND
  5
1492
  100
AcDbEntity
  0
MESH
  5
1493
330
1F
  100
AcDbEntity
8
buildings
  100
AcDbSubDMesh
71
2
72
0
91
0
92
8
10
196.9603
20
267.2562
30
5.4168
10
221.9474
20
267.7399
30
5.4168
10
221.6126
20
285.0170
30
5.4168
10
196.6255
20
284.5426
30
5.4168
10
196.9603
20
267.2562
30
2.4168
10
221.9474
20
267.7399
30
2.4168
10
221.6126
20
285.0170
30
2.4168
10
196.6255
20
284.5426
30
2.4168
93
36
90
3
90
3
90
0
90
2
90
3
90
7
90
6
90
4
90
3
90
1
90
2
90
0
90
3
90
5
90
4
90
6
90
4
90
1
90
0
90
4
90
5
90
4
90
2
90
1
90
5
90
6
90
4
90
3
90
2
90
6
90
7
90
4
90
0
90
3
90
7
90
4
94
0
95
0
  0
MESH
  5
1494
330
1F
  100
AcDbEntity
8
buildings
  100
AcDbSubDMesh
71
2
72
0
91
0
92
8
10
320.2959
20
272.8343
30
3.8315
10
355.9191
20
273.1474
30
3.8315
10
355.7974
20
287.6329
30
3.8315
10
320.1671
20
287.3198
30
3.8315
10
320.2959
20
272.8343
30
0.8315
10
355.9191
20
273.1474
30
0.8315
10
355.7974
20
287.6329
30
0.8315
10
320.1671
20
287.3198
30
0.8315
93
36
90
3
90
3
90
0
90
1
90
3
90
7
90
5
90
4
90
3
90
1
90
2
90
3
90
3
90
5
90
7
90
6
90
4
90
1
90
0
90
4
90
5
90
4
90
2
90
1
90
5
90
6
90
4
90
3
90
2
90
6
90
7
90
4
90
0
90
3
90
7
90
4
94
0
95
0
  0
MESH
  5
1495
330
1F
  100
AcDbEntity
8
buildings
  100
AcDbSubDMesh
71
2
72
0
91
0
92
8
10
29.2759
20
137.9873
30
7.0395
10
29.4203
20
145.5876
30
7.0395
10
14.6498
20
145.8645
30
7.0395
10
14.5054
20
138.2642
30
7.0395
10
29.2759
20
137.9873
30
4.0395
10
29.4203
20
145.5876
30
4.0395
10
14.6498
20
145.8645
30
4.0395
10
14.5054
20
138.2642
30
4.0395
93
36
90
3
90
2
90
3
90
0
90
3
90
6
90
4
90
7
90
3
90
0
90
1
90
2
90
3
90
4
90
6
90
5
90
4
90
1
90
0
90
4
90
5
90
4
90
2
90
1
90
5
90
6
90
4
90
3
90
2
90
6
90
7
90
4
90
0
90
3
90
7
90
4
94
0
95
0
  0
MESH
  5
1496
330
1F
  100
AcDbEntity
8
buildings
  100
AcDbSubDMesh
71
2
72
0
91
0
92
8
10
32.5326
20
205.3607
30
6.7713
10
42.2757
20
205.5454
30
6.7713
10
41.5629
20
242.1371
30
6.7713
10
31.8341
20
241.9431
30
6.7713
10
32.5326
20
205.3607
30
3.7713
10
42.2757
20
205.5454
30
3.7713
10
41.5629
20
242.1371
30
3.7713
10
31.8341
20
241.9431
30
3.7713
93
36
90
3
90
3
90
0
90
1
90
3
90
7
90
5
90
4
90
3
90
1
90
2
90
3
90
3
90
5
90
7
90
6
90
4
90
1
90
0
90
4
90
5
90
4
90
2
90
1
90
5
90
6
90
4
90
3
90
2
90
6
90
7
90
4
90
0
90
3
90
7
90
4
94
0
95
0
  0
MESH
  5
1497
330
1F
  100
AcDbEntity
8
buildings
  100
AcDbSubDMesh
71
2
72
0
91
0
92
8
10
290.5274
20
155.6555
30
4.6199
10
308.8902
20
155.8429
30
4.6199
10
308.7511
20
169.2214
30
4.6199
10
290.3883
20
169.0247
30
4.6199
10
290.5274
20
155.6555
30
1.6199
10
308.8902
20
155.8429
30
1.6199
10
308.7511
20
169.2214
30
1.6199
10
290.3883
20
169.0247
30
1.6199
93
36
90
3
90
3
90
0
90
1
90
3
90
7
90
5
90
4
90
3
90
1
90
2
90
3
90
3
90
5
90
7
90
6
90
4
90
1
90
0
90
4
90
5
90
4
90
2
90
1
90
5
90
6
90
4
90
3
90
2
90
6
90
7
90
4
90
0
90
3
90
7
90
4
94
0
95
0
  0
MESH
  5
1498
330
1F
  100
AcDbEntity
8
buildings
  100
AcDbSubDMesh
71
2
72
0
91
0
92
16
10
209.8139
20
67.8034
30
4.8211
10
212.9473
20
67.8964
30
4.8211
10
212.9470
20
67.7941
30
4.8211
10
220.8228
20
67.8171
30
4.8211
10
220.7764
20
76.2460
30
4.8211
10
218.1654
20
76.2352
30
4.8211
10
217.8039
20
86.9535
30
4.8211
10
209.1690
20
86.6629
30
4.8211
10
209.8139
20
67.8034
30
1.8211
10
212.9473
20
67.8964
30
1.8211
10
212.9470
20
67.7941
30
1.8211
10
220.8228
20
67.8171
30
1.8211
10
220.7764
20
76.2460
30
1.8211
10
218.1654
20
76.2352
30
1.8211
10
217.8039
20
86.9535
30
1.8211
10
209.1690
20
86.6629
30
1.8211
93
88
90
3
90
5
90
0
90
1
90
3
90
13
90
9
90
8
90
3
90
0
90
5
90
7
90
3
90
8
90
15
90
13
90
3
90
2
90
3
90
1
90
3
90
10
90
9
90
11
90
3
90
5
90
3
90
4
90
3
90
13
90
12
90
11
90
3
90
3
90
5
90
1
90
3
90
11
90
9
90
13
90
3
90
5
90
6
90
7
90
3
90
13
90
15
90
14
90
4
90
1
90
0
90
8
90
9
90
4
90
2
90
1
90
9
90
10
90
4
90
3
90
2
90
10
90
11
90
4
90
4
90
3
90
11
90
12
90
4
90
5
90
4
90
12
90
13
90
4
90
6
90
5
90
13
90
14
90
4
90
7
90
6
90
14
90
15
90
4
90
0
90
7
90
15
90
8
94
0
95
0
  0
MESH
  5
1499
330
1F
  100
AcDbEntity
8
buildings
  100
AcDbSubDMesh
71
2
72
0
91
0
92
8
10
359.5505
20
156.3441
30
3.8998
10
368.7856
20
156.4377
30
3.8998
10
368.5466
20
179.6313
30
3.8998
10
359.3116
20
179.5377
30
3.8998
10
359.5505
20
156.3441
30
0.8998
10
368.7856
20
156.4377
30
0.8998
10
368.5466
20
179.6313
30
0.8998
10
359.3116
20
179.5377
30
0.8998
93
36
90
3
90
3
90
0
90
2
90
3
90
7
90
6
90
4
90
3
90
1
90
2
90
0
90
3
90
5
90
4
90
6
90
4
90
1
90
0
90
4
90
5
90
4
90
2
90
1
90
5
90
6
90
4
90
3
90
2
90
6
90
7
90
4
90
0
90
3
90
7
90
4
94
0
95
0
  0
MESH
  5
149a
330
1F
  100
AcDbEntity
8
buildings
  100
AcDbSubDMesh
71
2
72
0
91
0
92
8
10
242.0119
20
113.8980
30
4.7211
10
250.7464
20
114.0116
30
4.7211
10
250.5484
20
129.2136
30
4.7211
10
241.8211
20
129.0907
30
4.7211
10
242.0119
20
113.8980
30
1.7211
10
250.7464
20
114.0116
30
1.7211
10
250.5484
20
129.2136
30
1.7211
10
241.8211
20
129.0907
30
1.7211
93
36
90
3
90
3
90
0
90
1
90
3
90
7
90
5
90
4
90
3
90
1
90
2
90
3
90
3
90
5
90
7
90
6
90
4
90
1
90
0
90
4
90
5
90
4
90
2
90
1
90
5
90
6
90
4
90
3
90
2
90
6
90
7
90
4
90
0
90
3
90
7
90
4
94
0
95
0
  0
MESH
  5
149b
330
1F
  100
AcDbEntity
8
buildings
  100
AcDbSubDMesh
71
2
72
0
91
0
92
8
10
60.9065
20
27.9841
30
6.6291
10
72.0381
20
28.3229
30
6.6291
10
71.4079
20
49.5547
30
6.6291
10
60.2835
20
49.2252
30
6.6291
10
60.9065
20
27.9841
30
3.6291
10
72.0381
20
28.3229
30
3.6291
10
71.4079
20
49.5547
30
3.6291
10
60.2835
20
49.2252
30
3.6291
93
36
90
3
90
3
90
0
90
1
90
3
90
7
90
5
90
4
90
3
90
1
90
2
90
3
90
3
90
5
90
7
90
6
90
4
90
1
90
0
90
4
90
5
90
4
90
2
90
1
90
5
90
6
90
4
90
3
90
2
90
6
90
7
90
4
90
0
90
3
90
7
90
4
94
0
95
0
  0
MESH
  5
149c
330
1F
  100
AcDbEntity
8
buildings
  100
AcDbSubDMesh
71
2
72
0
91
0
92
10
10
104.0429
20
45.3636
30
6.1013
10
113.4143
20
45.5588
30
6.1013
10
118.8365
20
45.5705
30
6.1013
10
118.7237
20
55.6741
30
6.1013
10
103.9087
20
55.4859
30
6.1013
10
104.0429
20
45.3636
30
3.1013
10
113.4143
20
45.5588
30
3.1013
10
118.8365
20
45.5705
30
3.1013
10
118.7237
20
55.6741
30
3.1013
10
103.9087
20
55.4859
30
3.1013
93
49
90
3
90
4
90
0
90
1
90
3
90
9
90
6
90
5
90
3
90
1
90
2
90
3
90
3
90
6
90
8
90
7
90
3
90
1
90
3
90
4
90
3
90
6
90
9
90
8
90
4
90
1
90
0
90
5
90
6
90
4
90
2
90
1
90
6
90
7
90
4
90
3
90
2
90
7
90
8
90
4
90
4
90
3
90
8
90
9
90
4
90
0
90
4
90
9
90
5
94
0
95
0
0
POLYLINE
  5
149d
330
1F
  100
AcDbEntity
8
minor_roads
  100
AcDb3dPolyline
70
8
10
0.0000
20
0.0000
30
0.0000
0
VERTEX
  5
149e
330
1F
  100
AcDbEntity
8
minor_roads
100
AcDbVertex
100
AcDb3dPolylineVertex
10
283.8507
20
198.0608
30
1.5824
70
32
0
VERTEX
  5
149f
330
1F
  100
AcDbEntity
8
minor_roads
100
AcDbVertex
100
AcDb3dPolylineVertex
10
281.8024
20
199.6206
30
1.5882
70
32
0
VERTEX
  5
14a0
330
1F
  100
AcDbEntity
8
minor_roads
100
AcDbVertex
100
AcDb3dPolylineVertex
10
279.7658
20
202.7339
30
1.5855
70
32
0
VERTEX
  5
14a1
330
1F
  100
AcDbEntity
8
minor_roads
100
AcDbVertex
100
AcDb3dPolylineVertex
10
277.5625
20
207.5130
30
1.5772
70
32
0
VERTEX
  5
14a2
330
1F
  100
AcDbEntity
8
minor_roads
100
AcDbVertex
100
AcDb3dPolylineVertex
10
277.2637
20
210.0000
30
1.5659
70
32
0
VERTEX
  5
14a3
330
1F
  100
AcDbEntity
8
minor_roads
100
AcDbVertex
100
AcDb3dPolylineVertex
10
276.8156
20
213.7297
30
1.5765
70
32
0
VERTEX
  5
14a4
330
1F
  100
AcDbEntity
8
minor_roads
100
AcDbVertex
100
AcDb3dPolylineVertex
10
277.0975
20
231.0054
30
1.6017
70
32
0
VERTEX
  5
14a5
330
1F
  100
AcDbEntity
8
minor_roads
100
AcDbVertex
100
AcDb3dPolylineVertex
10
277.2459
20
240.0000
30
1.6146
70
32
0
VERTEX
  5
14a6
330
1F
  100
AcDbEntity
8
minor_roads
100
AcDbVertex
100
AcDb3dPolylineVertex
10
277.3746
20
247.8058
30
1.6393
70
32
0
VERTEX
  5
14a7
330
1F
  100
AcDbEntity
8
minor_roads
100
AcDbVertex
100
AcDb3dPolylineVertex
10
277.6014
20
261.5459
30
1.6826
70
32
0
VERTEX
  5
14a8
330
1F
  100
AcDbEntity
8
minor_roads
100
AcDbVertex
100
AcDb3dPolylineVertex
10
277.7417
20
270.0000
30
1.7094
70
32
0
VERTEX
  5
14a9
330
1F
  100
AcDbEntity
8
minor_roads
100
AcDbVertex
100
AcDb3dPolylineVertex
10
278.2394
20
300.0000
30
1.7689
70
32
0
VERTEX
  5
14aa
330
1F
  100
AcDbEntity
8
minor_roads
100
AcDbVertex
100
AcDb3dPolylineVertex
10
278.2723
20
301.9851
30
1.7668
70
32
0
VERTEX
  5
14ab
330
1F
  100
AcDbEntity
8
minor_roads
100
AcDbVertex
100
AcDb3dPolylineVertex
10
278.5774
20
313.1945
30
1.7537
70
32
0
VERTEX
  5
14ac
330
1F
  100
AcDbEntity
8
minor_roads
100
AcDbVertex
100
AcDb3dPolylineVertex
10
278.6819
20
321.4055
30
1.7449
70
32
0
SEQEND
  5
14ad
  100
AcDbEntity
  0
MESH
  5
14ae
330
1F
  100
AcDbEntity
8
buildings
  100
AcDbSubDMesh
71
2
72
0
91
0
92
8
10
330.4541
20
121.0501
30
3.8219
10
354.2035
20
121.3054
30
3.8219
10
354.0196
20
138.9262
30
3.8219
10
330.2703
20
138.6709
30
3.8219
10
330.4541
20
121.0501
30
0.8219
10
354.2035
20
121.3054
30
0.8219
10
354.0196
20
138.9262
30
0.8219
10
330.2703
20
138.6709
30
0.8219
93
36
90
3
90
3
90
0
90
1
90
3
90
7
90
5
90
4
90
3
90
1
90
2
90
3
90
3
90
5
90
7
90
6
90
4
90
1
90
0
90
4
90
5
90
4
90
2
90
1
90
5
90
6
90
4
90
3
90
2
90
6
90
7
90
4
90
0
90
3
90
7
90
4
94
0
95
0
0
POLYLINE
  5
14af
330
1F
  100
AcDbEntity
8
major_roads
  100
AcDb3dPolyline
70
8
10
0.0000
20
0.0000
30
0.0000
0
VERTEX
  5
14b0
330
1F
  100
AcDbEntity
8
major_roads
100
AcDbVertex
100
AcDb3dPolylineVertex
10
404.8225
20
71.3835
30
0.1539
70
32
0
VERTEX
  5
14b1
330
1F
  100
AcDbEntity
8
major_roads
100
AcDbVertex
100
AcDb3dPolylineVertex
10
404.7629
20
60.0000
30
0.1763
70
32
0
VERTEX
  5
14b2
330
1F
  100
AcDbEntity
8
major_roads
100
AcDbVertex
100
AcDb3dPolylineVertex
10
404.6254
20
33.7247
30
0.2620
70
32
0
VERTEX
  5
14b3
330
1F
  100
AcDbEntity
8
major_roads
100
AcDbVertex
100
AcDb3dPolylineVertex
10
404.5297
20
30.0000
30
0.2743
70
32
0
VERTEX
  5
14b4
330
1F
  100
AcDbEntity
8
major_roads
100
AcDbVertex
100
AcDb3dPolylineVertex
10
404.4880
20
28.3757
30
0.2834
70
32
0
SEQEND
  5
14b5
  100
AcDbEntity
  0
MESH
  5
14b6
330
1F
  100
AcDbEntity
8
buildings
  100
AcDbSubDMesh
71
2
72
0
91
0
92
16
10
256.6271
20
155.1888
30
4.8424
10
262.6074
20
155.2547
30
4.8424
10
262.6262
20
154.3615
30
4.8424
10
265.4017
20
154.3998
30
4.8424
10
265.3091
20
161.7310
30
4.8424
10
262.8412
20
161.7104
30
4.8424
10
262.7476
20
168.7533
30
4.8424
10
256.4455
20
168.6697
30
4.8424
10
256.6271
20
155.1888
30
1.8424
10
262.6074
20
155.2547
30
1.8424
10
262.6262
20
154.3615
30
1.8424
10
265.4017
20
154.3998
30
1.8424
10
265.3091
20
161.7310
30
1.8424
10
262.8412
20
161.7104
30
1.8424
10
262.7476
20
168.7533
30
1.8424
10
256.4455
20
168.6697
30
1.8424
93
88
90
3
90
5
90
0
90
1
90
3
90
13
90
9
90
8
90
3
90
0
90
5
90
7
90
3
90
8
90
15
90
13
90
3
90
2
90
3
90
1
90
3
90
10
90
9
90
11
90
3
90
1
90
4
90
5
90
3
90
9
90
13
90
12
90
3
90
4
90
1
90
3
90
3
90
12
90
11
90
9
90
3
90
5
90
6
90
7
90
3
90
13
90
15
90
14
90
4
90
1
90
0
90
8
90
9
90
4
90
2
90
1
90
9
90
10
90
4
90
3
90
2
90
10
90
11
90
4
90
4
90
3
90
11
90
12
90
4
90
5
90
4
90
12
90
13
90
4
90
6
90
5
90
13
90
14
90
4
90
7
90
6
90
14
90
15
90
4
90
0
90
7
90
15
90
8
94
0
95
0
0
POLYLINE
  5
14b7
330
1F
  100
AcDbEntity
8
minor_roads
  100
AcDb3dPolyline
70
8
10
0.0000
20
0.0000
30
0.0000
0
VERTEX
  5
14b8
330
1F
  100
AcDbEntity
8
minor_roads
100
AcDbVertex
100
AcDb3dPolylineVertex
10
312.5447
20
11.2476
30
1.0194
70
32
0
VERTEX
  5
14b9
330
1F
  100
AcDbEntity
8
minor_roads
100
AcDbVertex
100
AcDb3dPolylineVertex
10
313.4840
20
0.2773
30
1.1212
70
32
0
SEQEND
  5
14ba
  100
AcDbEntity
0
POLYLINE
  5
14bb
330
1F
  100
AcDbEntity
8
minor_roads
  100
AcDb3dPolyline
70
8
10
0.0000
20
0.0000
30
0.0000
0
VERTEX
  5
14bc
330
1F
  100
AcDbEntity
8
minor_roads
100
AcDbVertex
100
AcDb3dPolylineVertex
10
351.5687
20
0.1638
30
0.6910
70
32
0
VERTEX
  5
14bd
330
1F
  100
AcDbEntity
8
minor_roads
100
AcDbVertex
100
AcDb3dPolylineVertex
10
351.4535
20
11.6540
30
0.5963
70
32
0
SEQEND
  5
14be
  100
AcDbEntity
  0
MESH
  5
14bf
330
1F
  100
AcDbEntity
8
buildings
  100
AcDbSubDMesh
71
2
72
0
91
0
92
20
10
190.8681
20
116.8785
30
5.1968
10
190.9165
20
121.1113
30
5.1968
10
197.3971
20
121.0455
30
5.1968
10
197.4333
20
123.5759
30
5.1968
10
201.1600
20
123.5275
30
5.1968
10
201.2355
20
129.6581
30
5.1968
10
191.0067
20
129.7631
30
5.1968
10
191.0781
20
136.9170
30
5.1968
10
186.0138
20
136.9693
30
5.1968
10
185.8038
20
116.9401
30
5.1968
10
190.8681
20
116.8785
30
2.1968
10
190.9165
20
121.1113
30
2.1968
10
197.3971
20
121.0455
30
2.1968
10
197.4333
20
123.5759
30
2.1968
10
201.1600
20
123.5275
30
2.1968
10
201.2355
20
129.6581
30
2.1968
10
191.0067
20
129.7631
30
2.1968
10
191.0781
20
136.9170
30
2.1968
10
186.0138
20
136.9693
30
2.1968
10
185.8038
20
116.9401
30
2.1968
93
114
90
3
90
9
90
0
90
1
90
3
90
19
90
11
90
10
90
3
90
9
90
6
90
8
90
3
90
19
90
18
90
16
90
3
90
6
90
9
90
1
90
3
90
16
90
11
90
19
90
3
90
6
90
1
90
3
90
3
90
16
90
13
90
11
90
3
90
8
90
6
90
7
90
3
90
18
90
17
90
16
90
3
90
6
90
3
90
5
90
3
90
16
90
15
90
13
90
3
90
5
90
3
90
4
90
3
90
15
90
14
90
13
90
3
90
3
90
1
90
2
90
3
90
13
90
12
90
11
90
4
90
1
90
0
90
10
90
11
90
4
90
2
90
1
90
11
90
12
90
4
90
3
90
2
90
12
90
13
90
4
90
4
90
3
90
13
90
14
90
4
90
5
90
4
90
14
90
15
90
4
90
6
90
5
90
15
90
16
90
4
90
7
90
6
90
16
90
17
90
4
90
8
90
7
90
17
90
18
90
4
90
9
90
8
90
18
90
19
90
4
90
0
90
9
90
19
90
10
94
0
95
0
  0
MESH
  5
14c0
330
1F
  100
AcDbEntity
8
buildings
  100
AcDbSubDMesh
71
2
72
0
91
0
92
8
10
208.9735
20
155.4887
30
5.1794
10
209.9333
20
175.1343
30
5.1794
10
197.3742
20
175.7578
30
5.1794
10
196.4215
20
156.1029
30
5.1794
10
208.9735
20
155.4887
30
2.1794
10
209.9333
20
175.1343
30
2.1794
10
197.3742
20
175.7578
30
2.1794
10
196.4215
20
156.1029
30
2.1794
93
36
90
3
90
2
90
3
90
1
90
3
90
6
90
5
90
7
90
3
90
0
90
1
90
3
90
3
90
4
90
7
90
5
90
4
90
1
90
0
90
4
90
5
90
4
90
2
90
1
90
5
90
6
90
4
90
3
90
2
90
6
90
7
90
4
90
0
90
3
90
7
90
4
94
0
95
0
  0
MESH
  5
14c1
330
1F
  100
AcDbEntity
8
buildings
  100
AcDbSubDMesh
71
2
72
0
91
0
92
8
10
121.2086
20
47.0333
30
6.0178
10
130.2440
20
47.2854
30
6.0178
10
130.0247
20
55.2775
30
6.0178
10
120.9822
20
55.0347
30
6.0178
10
121.2086
20
47.0333
30
3.0178
10
130.2440
20
47.2854
30
3.0178
10
130.0247
20
55.2775
30
3.0178
10
120.9822
20
55.0347
30
3.0178
93
36
90
3
90
3
90
0
90
2
90
3
90
7
90
6
90
4
90
3
90
1
90
2
90
0
90
3
90
5
90
4
90
6
90
4
90
1
90
0
90
4
90
5
90
4
90
2
90
1
90
5
90
6
90
4
90
3
90
2
90
6
90
7
90
4
90
0
90
3
90
7
90
4
94
0
95
0
  0
MESH
  5
14c2
330
1F
  100
AcDbEntity
8
buildings
  100
AcDbSubDMesh
71
2
72
0
91
0
92
8
10
75.9786
20
27.9855
30
6.4721
10
86.1012
20
28.2249
30
6.4721
10
85.8162
20
40.5432
30
6.4721
10
75.6864
20
40.3038
30
6.4721
10
75.9786
20
27.9855
30
3.4721
10
86.1012
20
28.2249
30
3.4721
10
85.8162
20
40.5432
30
3.4721
10
75.6864
20
40.3038
30
3.4721
93
36
90
3
90
3
90
0
90
1
90
3
90
7
90
5
90
4
90
3
90
1
90
2
90
3
90
3
90
5
90
7
90
6
90
4
90
1
90
0
90
4
90
5
90
4
90
2
90
1
90
5
90
6
90
4
90
3
90
2
90
6
90
7
90
4
90
0
90
3
90
7
90
4
94
0
95
0
  0
MESH
  5
14c3
330
1F
  100
AcDbEntity
8
buildings
  100
AcDbSubDMesh
71
2
72
0
91
0
92
8
10
79.5852
20
78.5656
30
6.4834
10
86.8750
20
78.7856
30
6.4834
10
86.5946
20
87.8571
30
6.4834
10
79.3047
20
87.6277
30
6.4834
10
79.5852
20
78.5656
30
3.4834
10
86.8750
20
78.7856
30
3.4834
10
86.5946
20
87.8571
30
3.4834
10
79.3047
20
87.6277
30
3.4834
93
36
90
3
90
3
90
0
90
2
90
3
90
7
90
6
90
4
90
3
90
1
90
2
90
0
90
3
90
5
90
4
90
6
90
4
90
1
90
0
90
4
90
5
90
4
90
2
90
1
90
5
90
6
90
4
90
3
90
2
90
6
90
7
90
4
90
0
90
3
90
7
90
4
94
0
95
0
  0
MESH
  5
14c4
330
1F
  100
AcDbEntity
8
buildings
  100
AcDbSubDMesh
71
2
72
0
91
0
92
8
10
74.1625
20
135.6943
30
6.5374
10
79.8501
20
135.9656
30
6.5374
10
79.5478
20
142.4974
30
6.5374
10
73.8530
20
142.2260
30
6.5374
10
74.1625
20
135.6943
30
3.5374
10
79.8501
20
135.9656
30
3.5374
10
79.5478
20
142.4974
30
3.5374
10
73.8530
20
142.2260
30
3.5374
93
36
90
3
90
3
90
0
90
1
90
3
90
7
90
5
90
4
90
3
90
1
90
2
90
3
90
3
90
5
90
7
90
6
90
4
90
1
90
0
90
4
90
5
90
4
90
2
90
1
90
5
90
6
90
4
90
3
90
2
90
6
90
7
90
4
90
0
90
3
90
7
90
4
94
0
95
0
  0
MESH
  5
14c5
330
1F
  100
AcDbEntity
8
buildings
  100
AcDbSubDMesh
71
2
72
0
91
0
92
8
10
47.0210
20
206.4708
30
6.6326
10
58.3737
20
206.6786
30
6.6326
10
57.6679
20
243.2424
30
6.6326
10
46.3224
20
243.0253
30
6.6326
10
47.0210
20
206.4708
30
3.6326
10
58.3737
20
206.6786
30
3.6326
10
57.6679
20
243.2424
30
3.6326
10
46.3224
20
243.0253
30
3.6326
93
36
90
3
90
3
90
0
90
2
90
3
90
7
90
6
90
4
90
3
90
1
90
2
90
0
90
3
90
5
90
4
90
6
90
4
90
1
90
0
90
4
90
5
90
4
90
2
90
1
90
5
90
6
90
4
90
3
90
2
90
6
90
7
90
4
90
0
90
3
90
7
90
4
94
0
95
0
  0
MESH
  5
14c6
330
1F
  100
AcDbEntity
8
buildings
  100
AcDbSubDMesh
71
2
72
0
91
0
92
8
10
228.1993
20
126.0054
30
4.9342
10
236.1326
20
126.1120
30
4.9342
10
235.9400
20
140.7187
30
4.9342
10
228.0139
20
140.6120
30
4.9342
10
228.1993
20
126.0054
30
1.9342
10
236.1326
20
126.1120
30
1.9342
10
235.9400
20
140.7187
30
1.9342
10
228.0139
20
140.6120
30
1.9342
93
36
90
3
90
3
90
0
90
1
90
3
90
7
90
5
90
4
90
3
90
1
90
2
90
3
90
3
90
5
90
7
90
6
90
4
90
1
90
0
90
4
90
5
90
4
90
2
90
1
90
5
90
6
90
4
90
3
90
2
90
6
90
7
90
4
90
0
90
3
90
7
90
4
94
0
95
0
0
POLYLINE
  5
14c7
330
1F
  100
AcDbEntity
8
minor_roads
  100
AcDb3dPolyline
70
8
10
0.0000
20
0.0000
30
0.0000
0
VERTEX
  5
14c8
330
1F
  100
AcDbEntity
8
minor_roads
100
AcDbVertex
100
AcDb3dPolylineVertex
10
6.9617
20
10.7211
30
4.0127
70
32
0
VERTEX
  5
14c9
330
1F
  100
AcDbEntity
8
minor_roads
100
AcDbVertex
100
AcDb3dPolylineVertex
10
6.7471
20
20.2390
30
4.0465
70
32
0
VERTEX
  5
14ca
330
1F
  100
AcDbEntity
8
minor_roads
100
AcDbVertex
100
AcDb3dPolylineVertex
10
6.7568
20
30.0000
30
4.0791
70
32
0
VERTEX
  5
14cb
330
1F
  100
AcDbEntity
8
minor_roads
100
AcDbVertex
100
AcDb3dPolylineVertex
10
6.7768
20
49.9865
30
4.1695
70
32
0
VERTEX
  5
14cc
330
1F
  100
AcDbEntity
8
minor_roads
100
AcDbVertex
100
AcDb3dPolylineVertex
10
6.7889
20
56.8457
30
4.2005
70
32
0
VERTEX
  5
14cd
330
1F
  100
AcDbEntity
8
minor_roads
100
AcDbVertex
100
AcDb3dPolylineVertex
10
6.8216
20
60.0000
30
4.2147
70
32
0
VERTEX
  5
14ce
330
1F
  100
AcDbEntity
8
minor_roads
100
AcDbVertex
100
AcDb3dPolylineVertex
10
7.0861
20
85.4442
30
4.3426
70
32
0
VERTEX
  5
14cf
330
1F
  100
AcDbEntity
8
minor_roads
100
AcDbVertex
100
AcDb3dPolylineVertex
10
6.7597
20
88.6920
30
4.3610
70
32
0
VERTEX
  5
14d0
330
1F
  100
AcDbEntity
8
minor_roads
100
AcDbVertex
100
AcDb3dPolylineVertex
10
6.3363
20
90.0000
30
4.3703
70
32
0
VERTEX
  5
14d1
330
1F
  100
AcDbEntity
8
minor_roads
100
AcDbVertex
100
AcDb3dPolylineVertex
10
5.8312
20
91.5602
30
4.3775
70
32
0
VERTEX
  5
14d2
330
1F
  100
AcDbEntity
8
minor_roads
100
AcDbVertex
100
AcDb3dPolylineVertex
10
4.7281
20
93.4521
30
4.3895
70
32
0
VERTEX
  5
14d3
330
1F
  100
AcDbEntity
8
minor_roads
100
AcDbVertex
100
AcDb3dPolylineVertex
10
3.1094
20
95.1222
30
4.4044
70
32
0
SEQEND
  5
14d4
  100
AcDbEntity
0
POLYLINE
  5
14d5
330
1F
  100
AcDbEntity
8
paths
  100
AcDb3dPolyline
70
8
10
0.0000
20
0.0000
30
0.0000
0
VERTEX
  5
14d6
330
1F
  100
AcDbEntity
8
paths
100
AcDbVertex
100
AcDb3dPolylineVertex
10
394.2934
20
0.0365
30
0.5152
70
32
0
VERTEX
  5
14d7
330
1F
  100
AcDbEntity
8
paths
100
AcDbVertex
100
AcDb3dPolylineVertex
10
394.1770
20
12.0493
30
0.4221
70
32
0
VERTEX
  5
14d8
330
1F
  100
AcDbEntity
8
paths
100
AcDbVertex
100
AcDb3dPolylineVertex
10
394.2200
20
22.5264
30
0.3400
70
32
0
SEQEND
  5
14d9
  100
AcDbEntity
0
POLYLINE
  5
14da
330
1F
  100
AcDbEntity
8
major_roads
  100
AcDb3dPolyline
70
8
10
0.0000
20
0.0000
30
0.0000
0
VERTEX
  5
14db
330
1F
  100
AcDbEntity
8
major_roads
100
AcDbVertex
100
AcDb3dPolylineVertex
10
141.2791
20
10.5698
30
3.0218
70
32
0
VERTEX
  5
14dc
330
1F
  100
AcDbEntity
8
major_roads
100
AcDbVertex
100
AcDb3dPolylineVertex
10
150.0000
20
10.5876
30
2.9014
70
32
0
VERTEX
  5
14dd
330
1F
  100
AcDbEntity
8
major_roads
100
AcDbVertex
100
AcDb3dPolylineVertex
10
180.0000
20
10.6488
30
2.4575
70
32
0
VERTEX
  5
14de
330
1F
  100
AcDbEntity
8
major_roads
100
AcDbVertex
100
AcDb3dPolylineVertex
10
204.2502
20
10.6982
30
2.0777
70
32
0
VERTEX
  5
14df
330
1F
  100
AcDbEntity
8
major_roads
100
AcDbVertex
100
AcDb3dPolylineVertex
10
210.0000
20
10.7123
30
1.9877
70
32
0
VERTEX
  5
14e0
330
1F
  100
AcDbEntity
8
major_roads
100
AcDbVertex
100
AcDb3dPolylineVertex
10
240.0000
20
10.7858
30
1.6108
70
32
0
VERTEX
  5
14e1
330
1F
  100
AcDbEntity
8
major_roads
100
AcDbVertex
100
AcDb3dPolylineVertex
10
270.0000
20
10.8593
30
1.4653
70
32
0
VERTEX
  5
14e2
330
1F
  100
AcDbEntity
8
major_roads
100
AcDbVertex
100
AcDb3dPolylineVertex
10
278.0014
20
10.8789
30
1.4017
70
32
0
VERTEX
  5
14e3
330
1F
  100
AcDbEntity
8
major_roads
100
AcDbVertex
100
AcDb3dPolylineVertex
10
300.0000
20
11.1137
30
1.2244
70
32
0
VERTEX
  5
14e4
330
1F
  100
AcDbEntity
8
major_roads
100
AcDbVertex
100
AcDb3dPolylineVertex
10
312.5447
20
11.2476
30
1.0194
70
32
0
VERTEX
  5
14e5
330
1F
  100
AcDbEntity
8
major_roads
100
AcDbVertex
100
AcDb3dPolylineVertex
10
330.0000
20
11.2709
30
0.7366
70
32
0
VERTEX
  5
14e6
330
1F
  100
AcDbEntity
8
major_roads
100
AcDbVertex
100
AcDb3dPolylineVertex
10
335.7835
20
11.2786
30
0.6996
70
32
0
VERTEX
  5
14e7
330
1F
  100
AcDbEntity
8
major_roads
100
AcDbVertex
100
AcDb3dPolylineVertex
10
349.5583
20
11.6342
30
0.6087
70
32
0
SEQEND
  5
14e8
  100
AcDbEntity
0
POLYLINE
  5
14e9
330
1F
  100
AcDbEntity
8
major_roads
  100
AcDb3dPolyline
70
8
10
0.0000
20
0.0000
30
0.0000
0
VERTEX
  5
14ea
330
1F
  100
AcDbEntity
8
major_roads
100
AcDbVertex
100
AcDb3dPolylineVertex
10
0.9049
20
302.1850
30
4.7777
70
32
0
VERTEX
  5
14eb
330
1F
  100
AcDbEntity
8
major_roads
100
AcDbVertex
100
AcDb3dPolylineVertex
10
6.5525
20
301.8940
30
4.7215
70
32
0
SEQEND
  5
14ec
  100
AcDbEntity
0
POLYLINE
  5
14ed
330
1F
  100
AcDbEntity
8
minor_roads
  100
AcDb3dPolyline
70
8
10
0.0000
20
0.0000
30
0.0000
0
VERTEX
  5
14ee
330
1F
  100
AcDbEntity
8
minor_roads
100
AcDbVertex
100
AcDb3dPolylineVertex
10
0.7821
20
261.3499
30
4.5231
70
32
0
VERTEX
  5
14ef
330
1F
  100
AcDbEntity
8
minor_roads
100
AcDbVertex
100
AcDb3dPolylineVertex
10
5.6763
20
261.3351
30
4.4911
70
32
0
SEQEND
  5
14f0
  100
AcDbEntity
0
POLYLINE
  5
14f1
330
1F
  100
AcDbEntity
8
minor_roads
  100
AcDb3dPolyline
70
8
10
0.0000
20
0.0000
30
0.0000
0
VERTEX
  5
14f2
330
1F
  100
AcDbEntity
8
minor_roads
100
AcDbVertex
100
AcDb3dPolylineVertex
10
335.7799
20
11.2750
30
0.6996
70
32
0
VERTEX
  5
14f3
330
1F
  100
AcDbEntity
8
minor_roads
100
AcDbVertex
100
AcDb3dPolylineVertex
10
335.7114
20
21.9367
30
0.6262
70
32
0
VERTEX
  5
14f4
330
1F
  100
AcDbEntity
8
minor_roads
100
AcDbVertex
100
AcDb3dPolylineVertex
10
335.6537
20
30.0000
30
0.5709
70
32
0
VERTEX
  5
14f5
330
1F
  100
AcDbEntity
8
minor_roads
100
AcDbVertex
100
AcDb3dPolylineVertex
10
335.4391
20
60.0000
30
0.6419
70
32
0
VERTEX
  5
14f6
330
1F
  100
AcDbEntity
8
minor_roads
100
AcDbVertex
100
AcDb3dPolylineVertex
10
335.4129
20
63.6532
30
0.6580
70
32
0
VERTEX
  5
14f7
330
1F
  100
AcDbEntity
8
minor_roads
100
AcDbVertex
100
AcDb3dPolylineVertex
10
335.2218
20
90.0000
30
0.7741
70
32
0
VERTEX
  5
14f8
330
1F
  100
AcDbEntity
8
minor_roads
100
AcDbVertex
100
AcDb3dPolylineVertex
10
335.1285
20
102.8578
30
0.8997
70
32
0
SEQEND
  5
14f9
  100
AcDbEntity
0
POLYLINE
  5
14fa
330
1F
  100
AcDbEntity
8
major_roads
  100
AcDb3dPolyline
70
8
10
0.0000
20
0.0000
30
0.0000
0
VERTEX
  5
14fb
330
1F
  100
AcDbEntity
8
major_roads
100
AcDbVertex
100
AcDb3dPolylineVertex
10
142.0828
20
303.4793
30
3.0719
70
32
0
VERTEX
  5
14fc
330
1F
  100
AcDbEntity
8
major_roads
100
AcDbVertex
100
AcDb3dPolylineVertex
10
150.0000
20
303.3956
30
2.9880
70
32
0
VERTEX
  5
14fd
330
1F
  100
AcDbEntity
8
major_roads
100
AcDbVertex
100
AcDb3dPolylineVertex
10
167.5915
20
303.2097
30
2.8513
70
32
0
VERTEX
  5
14fe
330
1F
  100
AcDbEntity
8
major_roads
100
AcDbVertex
100
AcDb3dPolylineVertex
10
180.0000
20
303.0722
30
2.7546
70
32
0
VERTEX
  5
14ff
330
1F
  100
AcDbEntity
8
major_roads
100
AcDbVertex
100
AcDb3dPolylineVertex
10
210.0000
20
302.7397
30
2.4833
70
32
0
VERTEX
  5
1500
330
1F
  100
AcDbEntity
8
major_roads
100
AcDbVertex
100
AcDb3dPolylineVertex
10
227.5517
20
302.5452
30
2.3439
70
32
0
SEQEND
  5
1501
  100
AcDbEntity
0
POLYLINE
  5
1502
330
1F
  100
AcDbEntity
8
major_roads
  100
AcDb3dPolyline
70
8
10
0.0000
20
0.0000
30
0.0000
0
VERTEX
  5
1503
330
1F
  100
AcDbEntity
8
major_roads
100
AcDbVertex
100
AcDb3dPolylineVertex
10
278.2723
20
301.9851
30
1.7668
70
32
0
VERTEX
  5
1504
330
1F
  100
AcDbEntity
8
major_roads
100
AcDbVertex
100
AcDb3dPolylineVertex
10
287.6570
20
301.9572
30
1.6800
70
32
0
VERTEX
  5
1505
330
1F
  100
AcDbEntity
8
major_roads
100
AcDbVertex
100
AcDb3dPolylineVertex
10
300.0000
20
302.2552
30
1.5647
70
32
0
VERTEX
  5
1506
330
1F
  100
AcDbEntity
8
major_roads
100
AcDbVertex
100
AcDb3dPolylineVertex
10
314.7619
20
302.6117
30
1.3382
70
32
0
SEQEND
  5
1507
  100
AcDbEntity
0
POLYLINE
  5
1508
330
1F
  100
AcDbEntity
8
minor_roads
  100
AcDb3dPolyline
70
8
10
0.0000
20
0.0000
30
0.0000
0
VERTEX
  5
1509
330
1F
  100
AcDbEntity
8
minor_roads
100
AcDbVertex
100
AcDb3dPolylineVertex
10
0.7465
20
249.4859
30
4.4181
70
32
0
VERTEX
  5
150a
330
1F
  100
AcDbEntity
8
minor_roads
100
AcDbVertex
100
AcDb3dPolylineVertex
10
5.4190
20
249.5115
30
4.3890
70
32
0
VERTEX
  5
150b
330
1F
  100
AcDbEntity
8
minor_roads
100
AcDbVertex
100
AcDb3dPolylineVertex
10
30.0000
20
249.4815
30
4.2343
70
32
0
VERTEX
  5
150c
330
1F
  100
AcDbEntity
8
minor_roads
100
AcDbVertex
100
AcDb3dPolylineVertex
10
60.0000
20
249.4448
30
3.9617
70
32
0
VERTEX
  5
150d
330
1F
  100
AcDbEntity
8
minor_roads
100
AcDbVertex
100
AcDb3dPolylineVertex
10
90.0000
20
249.4081
30
3.6221
70
32
0
VERTEX
  5
150e
330
1F
  100
AcDbEntity
8
minor_roads
100
AcDbVertex
100
AcDb3dPolylineVertex
10
120.0000
20
249.3714
30
3.1467
70
32
0
VERTEX
  5
150f
330
1F
  100
AcDbEntity
8
minor_roads
100
AcDbVertex
100
AcDb3dPolylineVertex
10
141.7565
20
249.3448
30
2.9008
70
32
0
VERTEX
  5
1510
330
1F
  100
AcDbEntity
8
minor_roads
100
AcDbVertex
100
AcDb3dPolylineVertex
10
150.0000
20
249.3391
30
2.8075
70
32
0
VERTEX
  5
1511
330
1F
  100
AcDbEntity
8
minor_roads
100
AcDbVertex
100
AcDb3dPolylineVertex
10
180.0000
20
249.3183
30
2.6902
70
32
0
VERTEX
  5
1512
330
1F
  100
AcDbEntity
8
minor_roads
100
AcDbVertex
100
AcDb3dPolylineVertex
10
186.3774
20
249.3139
30
2.6817
70
32
0
VERTEX
  5
1513
330
1F
  100
AcDbEntity
8
minor_roads
100
AcDbVertex
100
AcDb3dPolylineVertex
10
210.0000
20
249.3038
30
2.6499
70
32
0
VERTEX
  5
1514
330
1F
  100
AcDbEntity
8
minor_roads
100
AcDbVertex
100
AcDb3dPolylineVertex
10
240.0000
20
249.2909
30
2.2523
70
32
0
VERTEX
  5
1515
330
1F
  100
AcDbEntity
8
minor_roads
100
AcDbVertex
100
AcDb3dPolylineVertex
10
241.1128
20
249.2904
30
2.2329
70
32
0
VERTEX
  5
1516
330
1F
  100
AcDbEntity
8
minor_roads
100
AcDbVertex
100
AcDb3dPolylineVertex
10
260.1807
20
248.5081
30
1.8980
70
32
0
VERTEX
  5
1517
330
1F
  100
AcDbEntity
8
minor_roads
100
AcDbVertex
100
AcDb3dPolylineVertex
10
270.0000
20
248.1070
30
1.7252
70
32
0
VERTEX
  5
1518
330
1F
  100
AcDbEntity
8
minor_roads
100
AcDbVertex
100
AcDb3dPolylineVertex
10
277.3746
20
247.8058
30
1.6393
70
32
0
VERTEX
  5
1519
330
1F
  100
AcDbEntity
8
minor_roads
100
AcDbVertex
100
AcDb3dPolylineVertex
10
296.9305
20
247.5896
30
1.4132
70
32
0
VERTEX
  5
151a
330
1F
  100
AcDbEntity
8
minor_roads
100
AcDbVertex
100
AcDb3dPolylineVertex
10
300.0000
20
247.6644
30
1.3781
70
32
0
VERTEX
  5
151b
330
1F
  100
AcDbEntity
8
minor_roads
100
AcDbVertex
100
AcDb3dPolylineVertex
10
330.0000
20
248.3962
30
1.0855
70
32
0
VERTEX
  5
151c
330
1F
  100
AcDbEntity
8
minor_roads
100
AcDbVertex
100
AcDb3dPolylineVertex
10
348.6225
20
248.8504
30
0.8742
70
32
0
VERTEX
  5
151d
330
1F
  100
AcDbEntity
8
minor_roads
100
AcDbVertex
100
AcDb3dPolylineVertex
10
360.0000
20
249.1224
30
0.7453
70
32
0
VERTEX
  5
151e
330
1F
  100
AcDbEntity
8
minor_roads
100
AcDbVertex
100
AcDb3dPolylineVertex
10
367.6654
20
249.3057
30
0.6891
70
32
0
VERTEX
  5
151f
330
1F
  100
AcDbEntity
8
minor_roads
100
AcDbVertex
100
AcDb3dPolylineVertex
10
376.5931
20
249.5212
30
0.6235
70
32
0
VERTEX
  5
1520
330
1F
  100
AcDbEntity
8
minor_roads
100
AcDbVertex
100
AcDb3dPolylineVertex
10
390.0000
20
249.6852
30
0.5245
70
32
0
VERTEX
  5
1521
330
1F
  100
AcDbEntity
8
minor_roads
100
AcDbVertex
100
AcDb3dPolylineVertex
10
394.9701
20
249.7460
30
0.4823
70
32
0
VERTEX
  5
1522
330
1F
  100
AcDbEntity
8
minor_roads
100
AcDbVertex
100
AcDb3dPolylineVertex
10
401.7300
20
249.8190
30
0.4251
70
32
0
VERTEX
  5
1523
330
1F
  100
AcDbEntity
8
minor_roads
100
AcDbVertex
100
AcDb3dPolylineVertex
10
407.2721
20
249.8027
30
0.3781
70
32
0
SEQEND
  5
1524
  100
AcDbEntity
0
POLYLINE
  5
1525
330
1F
  100
AcDbEntity
8
minor_roads
  100
AcDb3dPolyline
70
8
10
0.0000
20
0.0000
30
0.0000
0
VERTEX
  5
1526
330
1F
  100
AcDbEntity
8
minor_roads
100
AcDbVertex
100
AcDb3dPolylineVertex
10
214.9587
20
313.3000
30
2.4085
70
32
0
VERTEX
  5
1527
330
1F
  100
AcDbEntity
8
minor_roads
100
AcDbVertex
100
AcDb3dPolylineVertex
10
214.8317
20
321.5958
30
2.3816
70
32
0
SEQEND
  5
1528
  100
AcDbEntity
0
POLYLINE
  5
1529
330
1F
  100
AcDbEntity
8
minor_roads
  100
AcDb3dPolyline
70
8
10
0.0000
20
0.0000
30
0.0000
0
VERTEX
  5
152a
330
1F
  100
AcDbEntity
8
minor_roads
100
AcDbVertex
100
AcDb3dPolylineVertex
10
195.6789
20
321.6529
30
2.5995
70
32
0
VERTEX
  5
152b
330
1F
  100
AcDbEntity
8
minor_roads
100
AcDbVertex
100
AcDb3dPolylineVertex
10
195.7314
20
313.3294
30
2.6046
70
32
0
SEQEND
  5
152c
  100
AcDbEntity
0
POLYLINE
  5
152d
330
1F
  100
AcDbEntity
8
major_roads
  100
AcDb3dPolyline
70
8
10
0.0000
20
0.0000
30
0.0000
0
VERTEX
  5
152e
330
1F
  100
AcDbEntity
8
major_roads
100
AcDbVertex
100
AcDb3dPolylineVertex
10
317.4773
20
313.7489
30
1.2924
70
32
0
VERTEX
  5
152f
330
1F
  100
AcDbEntity
8
major_roads
100
AcDbVertex
100
AcDb3dPolylineVertex
10
300.0000
20
313.4998
30
1.5261
70
32
0
VERTEX
  5
1530
330
1F
  100
AcDbEntity
8
major_roads
100
AcDbVertex
100
AcDb3dPolylineVertex
10
278.5774
20
313.1945
30
1.7537
70
32
0
SEQEND
  5
1531
  100
AcDbEntity
  0
MESH
  5
1532
330
1F
  100
AcDbEntity
8
buildings
  100
AcDbSubDMesh
71
2
72
0
91
0
92
8
10
378.1876
20
0.1159
30
3.5849
10
356.7351
20
0.2258
30
3.5849
10
356.7347
20
0.1484
30
3.5849
10
378.1874
20
0.0845
30
3.5849
10
378.1876
20
0.1159
30
0.5849
10
356.7351
20
0.2258
30
0.5849
10
356.7347
20
0.1484
30
0.5849
10
378.1874
20
0.0845
30
0.5849
93
36
90
3
90
1
90
2
90
3
90
3
90
5
90
7
90
6
90
3
90
3
90
0
90
1
90
3
90
7
90
5
90
4
90
4
90
1
90
0
90
4
90
5
90
4
90
2
90
1
90
5
90
6
90
4
90
3
90
2
90
6
90
7
90
4
90
0
90
3
90
7
90
4
94
0
95
0
  0
MESH
  5
1533
330
1F
  100
AcDbEntity
8
buildings
  100
AcDbSubDMesh
71
2
72
0
91
0
92
12
10
34.5700
20
264.5231
30
13.1571
10
34.5924
20
271.9749
30
13.1571
10
53.8196
20
271.8893
30
13.1571
10
53.8887
20
290.1699
30
13.1571
10
22.9217
20
289.6861
30
13.1571
10
22.8320
20
264.5676
30
13.1571
10
34.5700
20
264.5231
30
4.1571
10
34.5924
20
271.9749
30
4.1571
10
53.8196
20
271.8893
30
4.1571
10
53.8887
20
290.1699
30
4.1571
10
22.9217
20
289.6861
30
4.1571
10
22.8320
20
264.5676
30
4.1571
93
62
90
3
90
4
90
5
90
1
90
3
90
10
90
7
90
11
90
3
90
1
90
5
90
0
90
3
90
7
90
6
90
11
90
3
90
1
90
2
90
3
90
3
90
7
90
9
90
8
90
3
90
1
90
3
90
4
90
3
90
7
90
10
90
9
90
4
90
1
90
0
90
6
90
7
90
4
90
2
90
1
90
7
90
8
90
4
90
3
90
2
90
8
90
9
90
4
90
4
90
3
90
9
90
10
90
4
90
5
90
4
90
10
90
11
90
4
90
0
90
5
90
11
90
6
94
0
95
0
  0
MESH
  5
1534
330
1F
  100
AcDbEntity
8
buildings
  100
AcDbSubDMesh
71
2
72
0
91
0
92
24
10
286.6066
20
220.4176
30
4.1142
10
286.6956
20
209.4302
30
4.1142
10
303.2913
20
209.5670
30
4.1142
10
303.2311
20
215.8097
30
4.1142
10
307.3800
20
215.8346
30
4.1142
10
307.4383
20
208.9593
30
4.1142
10
326.3731
20
209.1078
30
4.1142
10
326.2688
20
222.1792
30
4.1142
10
326.1033
20
241.1768
30
4.1142
10
292.0036
20
240.8779
30
4.1142
10
292.1279
20
227.3135
30
4.1142
10
286.5411
20
227.2649
30
4.1142
10
286.6066
20
220.4176
30
1.1142
10
286.6956
20
209.4302
30
1.1142
10
303.2913
20
209.5670
30
1.1142
10
303.2311
20
215.8097
30
1.1142
10
307.3800
20
215.8346
30
1.1142
10
307.4383
20
208.9593
30
1.1142
10
326.3731
20
209.1078
30
1.1142
10
326.2688
20
222.1792
30
1.1142
10
326.1033
20
241.1768
30
1.1142
10
292.0036
20
240.8779
30
1.1142
10
292.1279
20
227.3135
30
1.1142
10
286.5411
20
227.2649
30
1.1142
93
140
90
3
90
0
90
1
90
3
90
3
90
12
90
15
90
13
90
3
90
3
90
1
90
2
90
3
90
15
90
14
90
13
90
3
90
0
90
3
90
10
90
3
90
12
90
22
90
15
90
3
90
10
90
11
90
0
90
3
90
22
90
12
90
23
90
3
90
8
90
9
90
10
90
3
90
20
90
22
90
21
90
3
90
10
90
3
90
4
90
3
90
22
90
16
90
15
90
3
90
4
90
5
90
6
90
3
90
16
90
18
90
17
90
3
90
4
90
7
90
8
90
3
90
16
90
20
90
19
90
3
90
7
90
4
90
6
90
3
90
19
90
18
90
16
90
3
90
4
90
8
90
10
90
3
90
16
90
22
90
20
90
4
90
1
90
0
90
12
90
13
90
4
90
2
90
1
90
13
90
14
90
4
90
3
90
2
90
14
90
15
90
4
90
4
90
3
90
15
90
16
90
4
90
5
90
4
90
16
90
17
90
4
90
6
90
5
90
17
90
18
90
4
90
7
90
6
90
18
90
19
90
4
90
8
90
7
90
19
90
20
90
4
90
9
90
8
90
20
90
21
90
4
90
10
90
9
90
21
90
22
90
4
90
11
90
10
90
22
90
23
90
4
90
0
90
11
90
23
90
12
94
0
95
0
  0
MESH
  5
1535
330
1F
  100
AcDbEntity
8
buildings
  100
AcDbSubDMesh
71
2
72
0
91
0
92
8
10
98.8339
20
28.1589
30
6.2827
10
107.0684
20
28.5157
30
6.2827
10
106.6873
20
37.4107
30
6.2827
10
98.4528
20
37.0632
30
6.2827
10
98.8339
20
28.1589
30
3.2827
10
107.0684
20
28.5157
30
3.2827
10
106.6873
20
37.4107
30
3.2827
10
98.4528
20
37.0632
30
3.2827
93
36
90
3
90
3
90
0
90
2
90
3
90
7
90
6
90
4
90
3
90
1
90
2
90
0
90
3
90
5
90
4
90
6
90
4
90
1
90
0
90
4
90
5
90
4
90
2
90
1
90
5
90
6
90
4
90
3
90
2
90
6
90
7
90
4
90
0
90
3
90
7
90
4
94
0
95
0
  0
MESH
  5
1536
330
1F
  100
AcDbEntity
8
buildings
  100
AcDbSubDMesh
71
2
72
0
91
0
92
8
10
64.1774
20
138.3477
30
6.5686
10
72.9332
20
138.4238
30
6.5686
10
72.8686
20
145.5130
30
6.5686
10
64.1200
20
145.4369
30
6.5686
10
64.1774
20
138.3477
30
3.5686
10
72.9332
20
138.4238
30
3.5686
10
72.8686
20
145.5130
30
3.5686
10
64.1200
20
145.4369
30
3.5686
93
36
90
3
90
3
90
0
90
1
90
3
90
7
90
5
90
4
90
3
90
1
90
2
90
3
90
3
90
5
90
7
90
6
90
4
90
1
90
0
90
4
90
5
90
4
90
2
90
1
90
5
90
6
90
4
90
3
90
2
90
6
90
7
90
4
90
0
90
3
90
7
90
4
94
0
95
0
  0
MESH
  5
1537
330
1F
  100
AcDbEntity
8
buildings
  100
AcDbSubDMesh
71
2
72
0
91
0
92
8
10
30.7614
20
70.4786
30
7.0693
10
40.8410
20
70.7275
30
7.0693
10
40.4784
20
85.7347
30
7.0693
10
30.3987
20
85.4951
30
7.0693
10
30.7614
20
70.4786
30
4.0693
10
40.8410
20
70.7275
30
4.0693
10
40.4784
20
85.7347
30
4.0693
10
30.3987
20
85.4951
30
4.0693
93
36
90
3
90
3
90
0
90
1
90
3
90
7
90
5
90
4
90
3
90
1
90
2
90
3
90
3
90
5
90
7
90
6
90
4
90
1
90
0
90
4
90
5
90
4
90
2
90
1
90
5
90
6
90
4
90
3
90
2
90
6
90
7
90
4
90
0
90
3
90
7
90
4
94
0
95
0
  0
MESH
  5
1538
330
1F
  100
AcDbEntity
8
buildings
  100
AcDbSubDMesh
71
2
72
0
91
0
92
8
10
56.9158
20
168.9678
30
6.4251
10
57.3475
20
179.3489
30
6.4251
10
48.8292
20
179.7093
30
6.4251
10
48.3974
20
169.3189
30
6.4251
10
56.9158
20
168.9678
30
3.4251
10
57.3475
20
179.3489
30
3.4251
10
48.8292
20
179.7093
30
3.4251
10
48.3974
20
169.3189
30
3.4251
93
36
90
3
90
2
90
3
90
1
90
3
90
6
90
5
90
7
90
3
90
0
90
1
90
3
90
3
90
4
90
7
90
5
90
4
90
1
90
0
90
4
90
5
90
4
90
2
90
1
90
5
90
6
90
4
90
3
90
2
90
6
90
7
90
4
90
0
90
3
90
7
90
4
94
0
95
0
  0
MESH
  5
1539
330
1F
  100
AcDbEntity
8
buildings
  100
AcDbSubDMesh
71
2
72
0
91
0
92
8
10
101.9548
20
76.6379
30
6.3132
10
101.9933
20
89.5228
30
6.3132
10
93.4024
20
89.5485
30
6.3132
10
93.3638
20
76.6636
30
6.3132
10
101.9548
20
76.6379
30
3.3132
10
101.9933
20
89.5228
30
3.3132
10
93.4024
20
89.5485
30
3.3132
10
93.3638
20
76.6636
30
3.3132
93
36
90
3
90
2
90
3
90
1
90
3
90
6
90
5
90
7
90
3
90
0
90
1
90
3
90
3
90
4
90
7
90
5
90
4
90
1
90
0
90
4
90
5
90
4
90
2
90
1
90
5
90
6
90
4
90
3
90
2
90
6
90
7
90
4
90
0
90
3
90
7
90
4
94
0
95
0
  0
MESH
  5
153a
330
1F
  100
AcDbEntity
8
buildings
  100
AcDbSubDMesh
71
2
72
0
91
0
92
8
10
156.5663
20
70.6415
30
5.6479
10
176.2385
20
70.8712
30
5.6479
10
176.0487
20
86.3896
30
5.6479
10
156.3837
20
86.1598
30
5.6479
10
156.5663
20
70.6415
30
2.6479
10
176.2385
20
70.8712
30
2.6479
10
176.0487
20
86.3896
30
2.6479
10
156.3837
20
86.1598
30
2.6479
93
36
90
3
90
3
90
0
90
2
90
3
90
7
90
6
90
4
90
3
90
1
90
2
90
0
90
3
90
5
90
4
90
6
90
4
90
1
90
0
90
4
90
5
90
4
90
2
90
1
90
5
90
6
90
4
90
3
90
2
90
6
90
7
90
4
90
0
90
3
90
7
90
4
94
0
95
0
  0
MESH
  5
153b
330
1F
  100
AcDbEntity
8
buildings
  100
AcDbSubDMesh
71
2
72
0
91
0
92
8
10
164.8675
20
148.4754
30
5.6393
10
164.9392
20
155.7131
30
5.6393
10
156.8921
20
155.7929
30
5.6393
10
156.8061
20
148.5553
30
5.6393
10
164.8675
20
148.4754
30
2.6393
10
164.9392
20
155.7131
30
2.6393
10
156.8921
20
155.7929
30
2.6393
10
156.8061
20
148.5553
30
2.6393
93
36
90
3
90
2
90
3
90
0
90
3
90
6
90
4
90
7
90
3
90
0
90
1
90
2
90
3
90
4
90
6
90
5
90
4
90
1
90
0
90
4
90
5
90
4
90
2
90
1
90
5
90
6
90
4
90
3
90
2
90
6
90
7
90
4
90
0
90
3
90
7
90
4
94
0
95
0
  0
MESH
  5
153c
330
1F
  100
AcDbEntity
8
buildings
  100
AcDbSubDMesh
71
2
72
0
91
0
92
8
10
17.7128
20
205.8611
30
6.8923
10
29.6020
20
206.0859
30
6.8923
10
28.9408
20
240.7889
30
6.8923
10
17.0516
20
240.5548
30
6.8923
10
17.7128
20
205.8611
30
3.8923
10
29.6020
20
206.0859
30
3.8923
10
28.9408
20
240.7889
30
3.8923
10
17.0516
20
240.5548
30
3.8923
93
36
90
3
90
3
90
0
90
1
90
3
90
7
90
5
90
4
90
3
90
1
90
2
90
3
90
3
90
5
90
7
90
6
90
4
90
1
90
0
90
4
90
5
90
4
90
2
90
1
90
5
90
6
90
4
90
3
90
2
90
6
90
7
90
4
90
0
90
3
90
7
90
4
94
0
95
0
  0
MESH
  5
153d
330
1F
  100
AcDbEntity
8
buildings
  100
AcDbSubDMesh
71
2
72
0
91
0
92
8
10
76.2128
20
208.8021
30
6.4425
10
87.3509
20
209.0106
30
6.4425
10
86.7384
20
240.9597
30
6.4425
10
75.6004
20
240.7512
30
6.4425
10
76.2128
20
208.8021
30
3.4425
10
87.3509
20
209.0106
30
3.4425
10
86.7384
20
240.9597
30
3.4425
10
75.6004
20
240.7512
30
3.4425
93
36
90
3
90
3
90
0
90
2
90
3
90
7
90
6
90
4
90
3
90
1
90
2
90
0
90
3
90
5
90
4
90
6
90
4
90
1
90
0
90
4
90
5
90
4
90
2
90
1
90
5
90
6
90
4
90
3
90
2
90
6
90
7
90
4
90
0
90
3
90
7
90
4
94
0
95
0
  0
MESH
  5
153e
330
1F
  100
AcDbEntity
8
buildings
  100
AcDbSubDMesh
71
2
72
0
91
0
92
8
10
159.0799
20
208.1449
30
5.4856
10
190.9561
20
208.7568
30
5.4856
10
190.5786
20
228.4901
30
5.4856
10
158.6954
20
227.8875
30
5.4856
10
159.0799
20
208.1449
30
2.4856
10
190.9561
20
208.7568
30
2.4856
10
190.5786
20
228.4901
30
2.4856
10
158.6954
20
227.8875
30
2.4856
93
36
90
3
90
3
90
0
90
2
90
3
90
7
90
6
90
4
90
3
90
1
90
2
90
0
90
3
90
5
90
4
90
6
90
4
90
1
90
0
90
4
90
5
90
4
90
2
90
1
90
5
90
6
90
4
90
3
90
2
90
6
90
7
90
4
90
0
90
3
90
7
90
4
94
0
95
0
  0
MESH
  5
153f
330
1F
  100
AcDbEntity
8
buildings
  100
AcDbSubDMesh
71
2
72
0
91
0
92
8
10
221.3402
20
27.7745
30
4.5669
10
236.1907
20
27.8606
30
4.5669
10
236.1087
20
43.5647
30
4.5669
10
221.2511
20
43.4879
30
4.5669
10
221.3402
20
27.7745
30
1.5669
10
236.1907
20
27.8606
30
1.5669
10
236.1087
20
43.5647
30
1.5669
10
221.2511
20
43.4879
30
1.5669
93
36
90
3
90
3
90
0
90
1
90
3
90
7
90
5
90
4
90
3
90
1
90
2
90
3
90
3
90
5
90
7
90
6
90
4
90
1
90
0
90
4
90
5
90
4
90
2
90
1
90
5
90
6
90
4
90
3
90
2
90
6
90
7
90
4
90
0
90
3
90
7
90
4
94
0
95
0
  0
MESH
  5
1540
330
1F
  100
AcDbEntity
8
buildings
  100
AcDbSubDMesh
71
2
72
0
91
0
92
8
10
239.1819
20
23.4327
30
4.2686
10
264.8341
20
23.5797
30
4.2686
10
264.7941
20
31.7852
30
4.2686
10
239.1420
20
31.6475
30
4.2686
10
239.1819
20
23.4327
30
1.2686
10
264.8341
20
23.5797
30
1.2686
10
264.7941
20
31.7852
30
1.2686
10
239.1420
20
31.6475
30
1.2686
93
36
90
3
90
3
90
0
90
1
90
3
90
7
90
5
90
4
90
3
90
1
90
2
90
3
90
3
90
5
90
7
90
6
90
4
90
1
90
0
90
4
90
5
90
4
90
2
90
1
90
5
90
6
90
4
90
3
90
2
90
6
90
7
90
4
90
0
90
3
90
7
90
4
94
0
95
0
0
POLYLINE
  5
1541
330
1F
  100
AcDbEntity
8
minor_roads
  100
AcDb3dPolyline
70
8
10
0.0000
20
0.0000
30
0.0000
0
VERTEX
  5
1542
330
1F
  100
AcDbEntity
8
minor_roads
100
AcDbVertex
100
AcDb3dPolylineVertex
10
278.0014
20
10.8789
30
1.4017
70
32
0
VERTEX
  5
1543
330
1F
  100
AcDbEntity
8
minor_roads
100
AcDbVertex
100
AcDb3dPolylineVertex
10
277.9169
20
1.6782
30
1.5241
70
32
0
VERTEX
  5
1544
330
1F
  100
AcDbEntity
8
minor_roads
100
AcDbVertex
100
AcDb3dPolylineVertex
10
277.9289
20
0.3832
30
1.5412
70
32
0
SEQEND
  5
1545
  100
AcDbEntity
  0
MESH
  5
1546
330
1F
  100
AcDbEntity
8
buildings
  100
AcDbSubDMesh
71
2
72
0
91
0
92
8
10
376.9570
20
33.9274
30
3.2161
10
392.5239
20
34.3744
30
3.2161
10
392.2392
20
44.5158
30
3.2161
10
376.6723
20
44.0687
30
3.2161
10
376.9570
20
33.9274
30
0.2161
10
392.5239
20
34.3744
30
0.2161
10
392.2392
20
44.5158
30
0.2161
10
376.6723
20
44.0687
30
0.2161
93
36
90
3
90
3
90
0
90
1
90
3
90
7
90
5
90
4
90
3
90
1
90
2
90
3
90
3
90
5
90
7
90
6
90
4
90
1
90
0
90
4
90
5
90
4
90
2
90
1
90
5
90
6
90
4
90
3
90
2
90
6
90
7
90
4
90
0
90
3
90
7
90
4
94
0
95
0
0
POLYLINE
  5
1547
330
1F
  100
AcDbEntity
8
paths
  100
AcDb3dPolyline
70
8
10
0.0000
20
0.0000
30
0.0000
0
VERTEX
  5
1548
330
1F
  100
AcDbEntity
8
paths
100
AcDbVertex
100
AcDb3dPolylineVertex
10
274.8490
20
184.9886
30
1.7206
70
32
0
VERTEX
  5
1549
330
1F
  100
AcDbEntity
8
paths
100
AcDbVertex
100
AcDb3dPolylineVertex
10
279.2385
20
191.3669
30
1.6587
70
32
0
VERTEX
  5
154a
330
1F
  100
AcDbEntity
8
paths
100
AcDbVertex
100
AcDb3dPolylineVertex
10
283.8507
20
198.0608
30
1.5824
70
32
0
SEQEND
  5
154b
  100
AcDbEntity
0
POLYLINE
  5
154c
330
1F
  100
AcDbEntity
8
paths
  100
AcDb3dPolyline
70
8
10
0.0000
20
0.0000
30
0.0000
0
VERTEX
  5
154d
330
1F
  100
AcDbEntity
8
paths
100
AcDbVertex
100
AcDb3dPolylineVertex
10
394.2200
20
22.5264
30
0.3400
70
32
0
VERTEX
  5
154e
330
1F
  100
AcDbEntity
8
paths
100
AcDbVertex
100
AcDb3dPolylineVertex
10
390.0000
20
22.3859
30
0.3511
70
32
0
VERTEX
  5
154f
330
1F
  100
AcDbEntity
8
paths
100
AcDbVertex
100
AcDb3dPolylineVertex
10
383.1885
20
22.1590
30
0.3743
70
32
0
VERTEX
  5
1550
330
1F
  100
AcDbEntity
8
paths
100
AcDbVertex
100
AcDb3dPolylineVertex
10
360.0000
20
22.0545
30
0.4474
70
32
0
VERTEX
  5
1551
330
1F
  100
AcDbEntity
8
paths
100
AcDbVertex
100
AcDb3dPolylineVertex
10
335.7127
20
21.9451
30
0.6262
70
32
0
VERTEX
  5
1552
330
1F
  100
AcDbEntity
8
paths
100
AcDbVertex
100
AcDb3dPolylineVertex
10
330.0000
20
21.9327
30
0.6681
70
32
0
VERTEX
  5
1553
330
1F
  100
AcDbEntity
8
paths
100
AcDbVertex
100
AcDb3dPolylineVertex
10
300.0000
20
21.8673
30
1.0724
70
32
0
VERTEX
  5
1554
330
1F
  100
AcDbEntity
8
paths
100
AcDbVertex
100
AcDb3dPolylineVertex
10
278.0339
20
21.8194
30
1.2566
70
32
0
VERTEX
  5
1555
330
1F
  100
AcDbEntity
8
paths
100
AcDbVertex
100
AcDb3dPolylineVertex
10
270.0000
20
21.7434
30
1.3247
70
32
0
VERTEX
  5
1556
330
1F
  100
AcDbEntity
8
paths
100
AcDbVertex
100
AcDb3dPolylineVertex
10
240.0000
20
21.4596
30
1.5506
70
32
0
VERTEX
  5
1557
330
1F
  100
AcDbEntity
8
paths
100
AcDbVertex
100
AcDb3dPolylineVertex
10
210.0000
20
21.1758
30
1.9511
70
32
0
VERTEX
  5
1558
330
1F
  100
AcDbEntity
8
paths
100
AcDbVertex
100
AcDb3dPolylineVertex
10
180.0000
20
20.8920
30
2.4012
70
32
0
VERTEX
  5
1559
330
1F
  100
AcDbEntity
8
paths
100
AcDbVertex
100
AcDb3dPolylineVertex
10
150.0000
20
20.6082
30
2.8453
70
32
0
VERTEX
  5
155a
330
1F
  100
AcDbEntity
8
paths
100
AcDbVertex
100
AcDb3dPolylineVertex
10
141.1586
20
20.5246
30
2.9662
70
32
0
VERTEX
  5
155b
330
1F
  100
AcDbEntity
8
paths
100
AcDbVertex
100
AcDb3dPolylineVertex
10
120.0000
20
20.2649
30
3.2562
70
32
0
VERTEX
  5
155c
330
1F
  100
AcDbEntity
8
paths
100
AcDbVertex
100
AcDb3dPolylineVertex
10
90.0000
20
19.8965
30
3.4882
70
32
0
VERTEX
  5
155d
330
1F
  100
AcDbEntity
8
paths
100
AcDbVertex
100
AcDb3dPolylineVertex
10
73.5287
20
19.6943
30
3.6055
70
32
0
SEQEND
  5
155e
  100
AcDbEntity
0
POLYLINE
  5
155f
330
1F
  100
AcDbEntity
8
minor_roads
  100
AcDb3dPolyline
70
8
10
0.0000
20
0.0000
30
0.0000
0
VERTEX
  5
1560
330
1F
  100
AcDbEntity
8
minor_roads
100
AcDbVertex
100
AcDb3dPolylineVertex
10
284.4053
20
98.1705
30
1.3074
70
32
0
VERTEX
  5
1561
330
1F
  100
AcDbEntity
8
minor_roads
100
AcDbVertex
100
AcDb3dPolylineVertex
10
288.2031
20
100.4013
30
1.3033
70
32
0
VERTEX
  5
1562
330
1F
  100
AcDbEntity
8
minor_roads
100
AcDbVertex
100
AcDb3dPolylineVertex
10
291.7983
20
101.8420
30
1.2930
70
32
0
VERTEX
  5
1563
330
1F
  100
AcDbEntity
8
minor_roads
100
AcDbVertex
100
AcDb3dPolylineVertex
10
293.6951
20
102.2364
30
1.2838
70
32
0
VERTEX
  5
1564
330
1F
  100
AcDbEntity
8
minor_roads
100
AcDbVertex
100
AcDb3dPolylineVertex
10
298.0743
20
102.7071
30
1.2579
70
32
0
VERTEX
  5
1565
330
1F
  100
AcDbEntity
8
minor_roads
100
AcDbVertex
100
AcDb3dPolylineVertex
10
300.0000
20
102.7151
30
1.2444
70
32
0
VERTEX
  5
1566
330
1F
  100
AcDbEntity
8
minor_roads
100
AcDbVertex
100
AcDb3dPolylineVertex
10
330.0000
20
102.8387
30
0.9735
70
32
0
VERTEX
  5
1567
330
1F
  100
AcDbEntity
8
minor_roads
100
AcDbVertex
100
AcDb3dPolylineVertex
10
335.1331
20
102.8598
30
0.8996
70
32
0
VERTEX
  5
1568
330
1F
  100
AcDbEntity
8
minor_roads
100
AcDbVertex
100
AcDb3dPolylineVertex
10
360.0000
20
103.3175
30
0.5457
70
32
0
VERTEX
  5
1569
330
1F
  100
AcDbEntity
8
minor_roads
100
AcDbVertex
100
AcDb3dPolylineVertex
10
362.6657
20
103.3665
30
0.5180
70
32
0
VERTEX
  5
156a
330
1F
  100
AcDbEntity
8
minor_roads
100
AcDbVertex
100
AcDb3dPolylineVertex
10
367.3509
20
103.3527
30
0.4683
70
32
0
VERTEX
  5
156b
330
1F
  100
AcDbEntity
8
minor_roads
100
AcDbVertex
100
AcDb3dPolylineVertex
10
390.0000
20
103.3349
30
0.2284
70
32
0
VERTEX
  5
156c
330
1F
  100
AcDbEntity
8
minor_roads
100
AcDbVertex
100
AcDb3dPolylineVertex
10
391.1325
20
103.3340
30
0.2218
70
32
0
VERTEX
  5
156d
330
1F
  100
AcDbEntity
8
minor_roads
100
AcDbVertex
100
AcDb3dPolylineVertex
10
393.7303
20
103.4634
30
0.2075
70
32
0
VERTEX
  5
156e
330
1F
  100
AcDbEntity
8
minor_roads
100
AcDbVertex
100
AcDb3dPolylineVertex
10
405.3820
20
103.3942
30
0.1394
70
32
0
SEQEND
  5
156f
  100
AcDbEntity
0
POLYLINE
  5
1570
330
1F
  100
AcDbEntity
8
minor_roads
  100
AcDb3dPolyline
70
8
10
0.0000
20
0.0000
30
0.0000
0
VERTEX
  5
1571
330
1F
  100
AcDbEntity
8
minor_roads
100
AcDbVertex
100
AcDb3dPolylineVertex
10
394.1073
20
150.1787
30
0.5158
70
32
0
VERTEX
  5
1572
330
1F
  100
AcDbEntity
8
minor_roads
100
AcDbVertex
100
AcDb3dPolylineVertex
10
406.8578
20
150.3741
30
0.2849
70
32
0
SEQEND
  5
1573
  100
AcDbEntity
  0
MESH
  5
1574
330
1F
  100
AcDbEntity
8
buildings
  100
AcDbSubDMesh
71
2
72
0
91
0
92
8
10
381.3064
20
205.7635
30
3.5095
10
391.5357
20
205.8728
30
3.5095
10
391.2278
20
234.8161
30
3.5095
10
380.9986
20
234.7068
30
3.5095
10
381.3064
20
205.7635
30
0.5095
10
391.5357
20
205.8728
30
0.5095
10
391.2278
20
234.8161
30
0.5095
10
380.9986
20
234.7068
30
0.5095
93
36
90
3
90
3
90
0
90
1
90
3
90
7
90
5
90
4
90
3
90
1
90
2
90
3
90
3
90
5
90
7
90
6
90
4
90
1
90
0
90
4
90
5
90
4
90
2
90
1
90
5
90
6
90
4
90
3
90
2
90
6
90
7
90
4
90
0
90
3
90
7
90
4
94
0
95
0
0
POLYLINE
  5
1575
330
1F
  100
AcDbEntity
8
minor_roads
  100
AcDb3dPolyline
70
8
10
0.0000
20
0.0000
30
0.0000
0
VERTEX
  5
1576
330
1F
  100
AcDbEntity
8
minor_roads
100
AcDbVertex
100
AcDb3dPolylineVertex
10
141.0742
20
48.2077
30
2.9304
70
32
0
VERTEX
  5
1577
330
1F
  100
AcDbEntity
8
minor_roads
100
AcDbVertex
100
AcDb3dPolylineVertex
10
150.0000
20
48.2331
30
2.8500
70
32
0
VERTEX
  5
1578
330
1F
  100
AcDbEntity
8
minor_roads
100
AcDbVertex
100
AcDb3dPolylineVertex
10
180.0000
20
48.3182
30
2.4851
70
32
0
VERTEX
  5
1579
330
1F
  100
AcDbEntity
8
minor_roads
100
AcDbVertex
100
AcDb3dPolylineVertex
10
181.0914
20
48.3213
30
2.4658
70
32
0
SEQEND
  5
157a
  100
AcDbEntity
0
POLYLINE
  5
157b
330
1F
  100
AcDbEntity
8
major_roads
  100
AcDb3dPolyline
70
8
10
0.0000
20
0.0000
30
0.0000
0
VERTEX
  5
157c
330
1F
  100
AcDbEntity
8
major_roads
100
AcDbVertex
100
AcDb3dPolylineVertex
10
349.5583
20
11.6342
30
0.6087
70
32
0
VERTEX
  5
157d
330
1F
  100
AcDbEntity
8
major_roads
100
AcDbVertex
100
AcDb3dPolylineVertex
10
351.4468
20
11.6472
30
0.5964
70
32
0
VERTEX
  5
157e
330
1F
  100
AcDbEntity
8
major_roads
100
AcDbVertex
100
AcDb3dPolylineVertex
10
360.0000
20
11.7018
30
0.5410
70
32
0
VERTEX
  5
157f
330
1F
  100
AcDbEntity
8
major_roads
100
AcDbVertex
100
AcDb3dPolylineVertex
10
383.3369
20
11.8506
30
0.4645
70
32
0
VERTEX
  5
1580
330
1F
  100
AcDbEntity
8
major_roads
100
AcDbVertex
100
AcDb3dPolylineVertex
10
390.0000
20
11.9727
30
0.4420
70
32
0
VERTEX
  5
1581
330
1F
  100
AcDbEntity
8
major_roads
100
AcDbVertex
100
AcDb3dPolylineVertex
10
394.1770
20
12.0493
30
0.4221
70
32
0
VERTEX
  5
1582
330
1F
  100
AcDbEntity
8
major_roads
100
AcDbVertex
100
AcDb3dPolylineVertex
10
404.0748
20
12.0033
30
0.3768
70
32
0
SEQEND
  5
1583
  100
AcDbEntity
0
POLYLINE
  5
1584
330
1F
  100
AcDbEntity
8
minor_roads
  100
AcDb3dPolyline
70
8
10
0.0000
20
0.0000
30
0.0000
0
VERTEX
  5
1585
330
1F
  100
AcDbEntity
8
minor_roads
100
AcDbVertex
100
AcDb3dPolylineVertex
10
6.8403
20
313.0390
30
4.6997
70
32
0
VERTEX
  5
1586
330
1F
  100
AcDbEntity
8
minor_roads
100
AcDbVertex
100
AcDb3dPolylineVertex
10
13.0740
20
322.1970
30
4.6111
70
32
0
SEQEND
  5
1587
  100
AcDbEntity
0
POLYLINE
  5
1588
330
1F
  100
AcDbEntity
8
minor_roads
  100
AcDb3dPolyline
70
8
10
0.0000
20
0.0000
30
0.0000
0
VERTEX
  5
1589
330
1F
  100
AcDbEntity
8
minor_roads
100
AcDbVertex
100
AcDb3dPolylineVertex
10
278.8282
20
147.1499
30
1.7644
70
32
0
VERTEX
  5
158a
330
1F
  100
AcDbEntity
8
minor_roads
100
AcDbVertex
100
AcDb3dPolylineVertex
10
300.0000
20
147.0918
30
1.7034
70
32
0
VERTEX
  5
158b
330
1F
  100
AcDbEntity
8
minor_roads
100
AcDbVertex
100
AcDb3dPolylineVertex
10
330.0000
20
147.0095
30
1.4914
70
32
0
VERTEX
  5
158c
330
1F
  100
AcDbEntity
8
minor_roads
100
AcDbVertex
100
AcDb3dPolylineVertex
10
360.0000
20
146.9271
30
1.0457
70
32
0
VERTEX
  5
158d
330
1F
  100
AcDbEntity
8
minor_roads
100
AcDbVertex
100
AcDb3dPolylineVertex
10
362.1033
20
146.9214
30
1.0119
70
32
0
VERTEX
  5
158e
330
1F
  100
AcDbEntity
8
minor_roads
100
AcDbVertex
100
AcDb3dPolylineVertex
10
362.4509
20
120.0000
30
0.6961
70
32
0
VERTEX
  5
158f
330
1F
  100
AcDbEntity
8
minor_roads
100
AcDbVertex
100
AcDb3dPolylineVertex
10
362.6657
20
103.3665
30
0.5180
70
32
0
SEQEND
  5
1590
  100
AcDbEntity
0
POLYLINE
  5
1591
330
1F
  100
AcDbEntity
8
minor_roads
  100
AcDb3dPolyline
70
8
10
0.0000
20
0.0000
30
0.0000
0
VERTEX
  5
1592
330
1F
  100
AcDbEntity
8
minor_roads
100
AcDbVertex
100
AcDb3dPolylineVertex
10
248.5883
20
39.6849
30
1.4327
70
32
0
VERTEX
  5
1593
330
1F
  100
AcDbEntity
8
minor_roads
100
AcDbVertex
100
AcDb3dPolylineVertex
10
270.0000
20
39.7905
30
1.2227
70
32
0
VERTEX
  5
1594
330
1F
  100
AcDbEntity
8
minor_roads
100
AcDbVertex
100
AcDb3dPolylineVertex
10
278.0915
20
39.8303
30
1.1495
70
32
0
SEQEND
  5
1595
  100
AcDbEntity
0
POLYLINE
  5
1596
330
1F
  100
AcDbEntity
8
minor_roads
  100
AcDb3dPolyline
70
8
10
0.0000
20
0.0000
30
0.0000
0
VERTEX
  5
1597
330
1F
  100
AcDbEntity
8
minor_roads
100
AcDbVertex
100
AcDb3dPolylineVertex
10
141.0097
20
66.6214
30
2.9703
70
32
0
VERTEX
  5
1598
330
1F
  100
AcDbEntity
8
minor_roads
100
AcDbVertex
100
AcDb3dPolylineVertex
10
150.0000
20
66.6127
30
2.9150
70
32
0
VERTEX
  5
1599
330
1F
  100
AcDbEntity
8
minor_roads
100
AcDbVertex
100
AcDb3dPolylineVertex
10
168.5580
20
66.5947
30
2.7156
70
32
0
SEQEND
  5
159a
  100
AcDbEntity
0
POLYLINE
  5
159b
330
1F
  100
AcDbEntity
8
paths
  100
AcDb3dPolyline
70
8
10
0.0000
20
0.0000
30
0.0000
0
VERTEX
  5
159c
330
1F
  100
AcDbEntity
8
paths
100
AcDbVertex
100
AcDb3dPolylineVertex
10
0.9552
20
318.9092
30
4.7572
70
32
0
VERTEX
  5
159d
330
1F
  100
AcDbEntity
8
paths
100
AcDbVertex
100
AcDb3dPolylineVertex
10
2.4484
20
317.8247
30
4.7415
70
32
0
VERTEX
  5
159e
330
1F
  100
AcDbEntity
8
paths
100
AcDbVertex
100
AcDb3dPolylineVertex
10
6.8403
20
313.0390
30
4.6997
70
32
0
SEQEND
  5
159f
  100
AcDbEntity
0
POLYLINE
  5
15a0
330
1F
  100
AcDbEntity
8
minor_roads
  100
AcDb3dPolyline
70
8
10
0.0000
20
0.0000
30
0.0000
0
VERTEX
  5
15a1
330
1F
  100
AcDbEntity
8
minor_roads
100
AcDbVertex
100
AcDb3dPolylineVertex
10
394.8941
20
262.7521
30
0.4945
70
32
0
VERTEX
  5
15a2
330
1F
  100
AcDbEntity
8
minor_roads
100
AcDbVertex
100
AcDb3dPolylineVertex
10
401.8819
20
262.8789
30
0.4477
70
32
0
VERTEX
  5
15a3
330
1F
  100
AcDbEntity
8
minor_roads
100
AcDbVertex
100
AcDb3dPolylineVertex
10
407.3110
20
262.9677
30
0.4115
70
32
0
SEQEND
  5
15a4
  100
AcDbEntity
0
POLYLINE
  5
15a5
330
1F
  100
AcDbEntity
8
minor_roads
  100
AcDb3dPolyline
70
8
10
0.0000
20
0.0000
30
0.0000
0
VERTEX
  5
15a6
330
1F
  100
AcDbEntity
8
minor_roads
100
AcDbVertex
100
AcDb3dPolylineVertex
10
367.6654
20
249.3057
30
0.6891
70
32
0
VERTEX
  5
15a7
330
1F
  100
AcDbEntity
8
minor_roads
100
AcDbVertex
100
AcDb3dPolylineVertex
10
367.8026
20
270.0000
30
0.7208
70
32
0
VERTEX
  5
15a8
330
1F
  100
AcDbEntity
8
minor_roads
100
AcDbVertex
100
AcDb3dPolylineVertex
10
368.0014
20
300.0000
30
0.7192
70
32
0
VERTEX
  5
15a9
330
1F
  100
AcDbEntity
8
minor_roads
100
AcDbVertex
100
AcDb3dPolylineVertex
10
368.0530
20
307.7846
30
0.6990
70
32
0
SEQEND
  5
15aa
  100
AcDbEntity
  0
MESH
  5
15ab
330
1F
  100
AcDbEntity
8
buildings
  100
AcDbSubDMesh
71
2
72
0
91
0
92
8
10
163.4004
20
117.0721
30
5.7288
10
163.5617
20
132.7848
30
5.7288
10
155.3287
20
132.8838
30
5.7288
10
155.1601
20
117.1525
30
5.7288
10
163.4004
20
117.0721
30
2.7288
10
163.5617
20
132.7848
30
2.7288
10
155.3287
20
132.8838
30
2.7288
10
155.1601
20
117.1525
30
2.7288
93
36
90
3
90
2
90
3
90
1
90
3
90
6
90
5
90
7
90
3
90
0
90
1
90
3
90
3
90
4
90
7
90
5
90
4
90
1
90
0
90
4
90
5
90
4
90
2
90
1
90
5
90
6
90
4
90
3
90
2
90
6
90
7
90
4
90
0
90
3
90
7
90
4
94
0
95
0
  0
MESH
  5
15ac
330
1F
  100
AcDbEntity
8
buildings
  100
AcDbSubDMesh
71
2
72
0
91
0
92
8
10
310.6817
20
159.3449
30
4.5002
10
326.8341
20
159.5203
30
4.5002
10
326.6328
20
178.4623
30
4.5002
10
310.4876
20
178.3055
30
4.5002
10
310.6817
20
159.3449
30
1.5002
10
326.8341
20
159.5203
30
1.5002
10
326.6328
20
178.4623
30
1.5002
10
310.4876
20
178.3055
30
1.5002
93
36
90
3
90
3
90
0
90
2
90
3
90
7
90
6
90
4
90
3
90
1
90
2
90
0
90
3
90
5
90
4
90
6
90
4
90
1
90
0
90
4
90
5
90
4
90
2
90
1
90
5
90
6
90
4
90
3
90
2
90
6
90
7
90
4
90
0
90
3
90
7
90
4
94
0
95
0
  0
MESH
  5
15ad
330
1F
  100
AcDbEntity
8
buildings
  100
AcDbSubDMesh
71
2
72
0
91
0
92
8
10
28.2589
20
27.9891
30
6.7701
10
55.2130
20
28.1594
30
6.7701
10
55.1363
20
40.7375
30
6.7701
10
28.1750
20
40.5580
30
6.7701
10
28.2589
20
27.9891
30
3.7701
10
55.2130
20
28.1594
30
3.7701
10
55.1363
20
40.7375
30
3.7701
10
28.1750
20
40.5580
30
3.7701
93
36
90
3
90
3
90
0
90
1
90
3
90
7
90
5
90
4
90
3
90
1
90
2
90
3
90
3
90
5
90
7
90
6
90
4
90
1
90
0
90
4
90
5
90
4
90
2
90
1
90
5
90
6
90
4
90
3
90
2
90
6
90
7
90
4
90
0
90
3
90
7
90
4
94
0
95
0
  0
MESH
  5
15ae
330
1F
  100
AcDbEntity
8
buildings
  100
AcDbSubDMesh
71
2
72
0
91
0
92
8
10
195.6418
20
26.5207
30
5.0103
10
204.6551
20
26.5683
30
5.0103
10
204.5541
20
45.4913
30
5.0103
10
195.5480
20
45.4438
30
5.0103
10
195.6418
20
26.5207
30
2.0103
10
204.6551
20
26.5683
30
2.0103
10
204.5541
20
45.4913
30
2.0103
10
195.5480
20
45.4438
30
2.0103
93
36
90
3
90
3
90
0
90
1
90
3
90
7
90
5
90
4
90
3
90
1
90
2
90
3
90
3
90
5
90
7
90
6
90
4
90
1
90
0
90
4
90
5
90
4
90
2
90
1
90
5
90
6
90
4
90
3
90
2
90
6
90
7
90
4
90
0
90
3
90
7
90
4
94
0
95
0
  0
MESH
  5
15af
330
1F
  100
AcDbEntity
8
buildings
  100
AcDbSubDMesh
71
2
72
0
91
0
92
8
10
60.9194
20
206.4291
30
6.5279
10
72.8086
20
206.6447
30
6.5279
10
72.1472
20
241.3477
30
6.5279
10
60.2509
20
241.1228
30
6.5279
10
60.9194
20
206.4291
30
3.5279
10
72.8086
20
206.6447
30
3.5279
10
72.1472
20
241.3477
30
3.5279
10
60.2509
20
241.1228
30
3.5279
93
36
90
3
90
3
90
0
90
2
90
3
90
7
90
6
90
4
90
3
90
1
90
2
90
0
90
3
90
5
90
4
90
6
90
4
90
1
90
0
90
4
90
5
90
4
90
2
90
1
90
5
90
6
90
4
90
3
90
2
90
6
90
7
90
4
90
0
90
3
90
7
90
4
94
0
95
0
  0
MESH
  5
15b0
330
1F
  100
AcDbEntity
8
buildings
  100
AcDbSubDMesh
71
2
72
0
91
0
92
8
10
252.0702
20
169.5200
30
4.8763
10
260.8625
20
169.8659
30
4.8763
10
260.4093
20
181.0498
30
4.8763
10
251.6099
20
180.6945
30
4.8763
10
252.0702
20
169.5200
30
1.8763
10
260.8625
20
169.8659
30
1.8763
10
260.4093
20
181.0498
30
1.8763
10
251.6099
20
180.6945
30
1.8763
93
36
90
3
90
3
90
0
90
2
90
3
90
7
90
6
90
4
90
3
90
1
90
2
90
0
90
3
90
5
90
4
90
6
90
4
90
1
90
0
90
4
90
5
90
4
90
2
90
1
90
5
90
6
90
4
90
3
90
2
90
6
90
7
90
4
90
0
90
3
90
7
90
4
94
0
95
0
  0
MESH
  5
15b1
330
1F
  100
AcDbEntity
8
buildings
  100
AcDbSubDMesh
71
2
72
0
91
0
92
8
10
346.0234
20
165.8455
30
4.1062
10
355.1940
20
165.9393
30
4.1062
10
355.0926
20
175.1591
30
4.1062
10
345.9362
20
175.0652
30
4.1062
10
346.0234
20
165.8455
30
1.1062
10
355.1940
20
165.9393
30
1.1062
10
355.0926
20
175.1591
30
1.1062
10
345.9362
20
175.0652
30
1.1062
93
36
90
3
90
3
90
0
90
1
90
3
90
7
90
5
90
4
90
3
90
1
90
2
90
3
90
3
90
5
90
7
90
6
90
4
90
1
90
0
90
4
90
5
90
4
90
2
90
1
90
5
90
6
90
4
90
3
90
2
90
6
90
7
90
4
90
0
90
3
90
7
90
4
94
0
95
0
  0
MESH
  5
15b2
330
1F
  100
AcDbEntity
8
buildings
  100
AcDbSubDMesh
71
2
72
0
91
0
92
8
10
254.8406
20
208.7155
30
4.7325
10
263.5751
20
208.8849
30
4.7325
10
263.2289
20
227.1947
30
4.7325
10
254.4873
20
227.0253
30
4.7325
10
254.8406
20
208.7155
30
1.7325
10
263.5751
20
208.8849
30
1.7325
10
263.2289
20
227.1947
30
1.7325
10
254.4873
20
227.0253
30
1.7325
93
36
90
3
90
3
90
0
90
1
90
3
90
7
90
5
90
4
90
3
90
1
90
2
90
3
90
3
90
5
90
7
90
6
90
4
90
1
90
0
90
4
90
5
90
4
90
2
90
1
90
5
90
6
90
4
90
3
90
2
90
6
90
7
90
4
90
0
90
3
90
7
90
4
94
0
95
0
  0
MESH
  5
15b3
330
1F
  100
AcDbEntity
8
buildings
  100
AcDbSubDMesh
71
2
72
0
91
0
92
8
10
225.7114
20
208.1788
30
5.0977
10
236.7064
20
208.3880
30
5.0977
10
236.1002
20
240.2440
30
5.0977
10
225.1053
20
240.0349
30
5.0977
10
225.7114
20
208.1788
30
2.0977
10
236.7064
20
208.3880
30
2.0977
10
236.1002
20
240.2440
30
2.0977
10
225.1053
20
240.0349
30
2.0977
93
36
90
3
90
3
90
0
90
2
90
3
90
7
90
6
90
4
90
3
90
1
90
2
90
0
90
3
90
5
90
4
90
6
90
4
90
1
90
0
90
4
90
5
90
4
90
2
90
1
90
5
90
6
90
4
90
3
90
2
90
6
90
7
90
4
90
0
90
3
90
7
90
4
94
0
95
0
  0
MESH
  5
15b4
330
1F
  100
AcDbEntity
8
buildings
  100
AcDbSubDMesh
71
2
72
0
91
0
92
8
10
25.5836
20
166.1592
30
6.8485
10
25.8021
20
179.3598
30
6.8485
10
16.8539
20
179.5076
30
6.8485
10
16.6497
20
166.3070
30
6.8485
10
25.5836
20
166.1592
30
3.8485
10
25.8021
20
179.3598
30
3.8485
10
16.8539
20
179.5076
30
3.8485
10
16.6497
20
166.3070
30
3.8485
93
36
90
3
90
2
90
3
90
1
90
3
90
6
90
5
90
7
90
3
90
0
90
1
90
3
90
3
90
4
90
7
90
5
90
4
90
1
90
0
90
4
90
5
90
4
90
2
90
1
90
5
90
6
90
4
90
3
90
2
90
6
90
7
90
4
90
0
90
3
90
7
90
4
94
0
95
0
0
POLYLINE
  5
15b5
330
1F
  100
AcDbEntity
8
major_roads
  100
AcDb3dPolyline
70
8
10
0.0000
20
0.0000
30
0.0000
0
VERTEX
  5
15b6
330
1F
  100
AcDbEntity
8
major_roads
100
AcDbVertex
100
AcDb3dPolylineVertex
10
314.7619
20
302.6117
30
1.3382
70
32
0
VERTEX
  5
15b7
330
1F
  100
AcDbEntity
8
major_roads
100
AcDbVertex
100
AcDb3dPolylineVertex
10
330.0000
20
303.9445
30
1.1080
70
32
0
VERTEX
  5
15b8
330
1F
  100
AcDbEntity
8
major_roads
100
AcDbVertex
100
AcDb3dPolylineVertex
10
338.9383
20
304.7263
30
1.0109
70
32
0
VERTEX
  5
15b9
330
1F
  100
AcDbEntity
8
major_roads
100
AcDbVertex
100
AcDb3dPolylineVertex
10
360.0000
20
306.9333
30
0.7745
70
32
0
VERTEX
  5
15ba
330
1F
  100
AcDbEntity
8
major_roads
100
AcDbVertex
100
AcDb3dPolylineVertex
10
366.0495
20
307.5673
30
0.7179
70
32
0
VERTEX
  5
15bb
330
1F
  100
AcDbEntity
8
major_roads
100
AcDbVertex
100
AcDb3dPolylineVertex
10
368.0581
20
307.7862
30
0.6990
70
32
0
VERTEX
  5
15bc
330
1F
  100
AcDbEntity
8
major_roads
100
AcDbVertex
100
AcDb3dPolylineVertex
10
376.1242
20
308.6445
30
0.6223
70
32
0
SEQEND
  5
15bd
  100
AcDbEntity
0
POLYLINE
  5
15be
330
1F
  100
AcDbEntity
8
minor_roads
  100
AcDb3dPolyline
70
8
10
0.0000
20
0.0000
30
0.0000
0
VERTEX
  5
15bf
330
1F
  100
AcDbEntity
8
minor_roads
100
AcDbVertex
100
AcDb3dPolylineVertex
10
141.0450
20
58.4523
30
2.9405
70
32
0
VERTEX
  5
15c0
330
1F
  100
AcDbEntity
8
minor_roads
100
AcDbVertex
100
AcDb3dPolylineVertex
10
120.0000
20
58.2005
30
3.0787
70
32
0
VERTEX
  5
15c1
330
1F
  100
AcDbEntity
8
minor_roads
100
AcDbVertex
100
AcDb3dPolylineVertex
10
90.0000
20
57.8415
30
3.3638
70
32
0
VERTEX
  5
15c2
330
1F
  100
AcDbEntity
8
minor_roads
100
AcDbVertex
100
AcDb3dPolylineVertex
10
60.0000
20
57.4825
30
3.8752
70
32
0
VERTEX
  5
15c3
330
1F
  100
AcDbEntity
8
minor_roads
100
AcDbVertex
100
AcDb3dPolylineVertex
10
30.0000
20
57.1235
30
4.1214
70
32
0
VERTEX
  5
15c4
330
1F
  100
AcDbEntity
8
minor_roads
100
AcDbVertex
100
AcDb3dPolylineVertex
10
6.7889
20
56.8457
30
4.2005
70
32
0
VERTEX
  5
15c5
330
1F
  100
AcDbEntity
8
minor_roads
100
AcDbVertex
100
AcDb3dPolylineVertex
10
0.1671
20
56.7879
30
4.2234
70
32
0
SEQEND
  5
15c6
  100
AcDbEntity
0
POLYLINE
  5
15c7
330
1F
  100
AcDbEntity
8
major_roads
  100
AcDb3dPolyline
70
8
10
0.0000
20
0.0000
30
0.0000
0
VERTEX
  5
15c8
330
1F
  100
AcDbEntity
8
major_roads
100
AcDbVertex
100
AcDb3dPolylineVertex
10
6.5525
20
301.8940
30
4.7215
70
32
0
VERTEX
  5
15c9
330
1F
  100
AcDbEntity
8
major_roads
100
AcDbVertex
100
AcDb3dPolylineVertex
10
30.0000
20
302.1654
30
4.4859
70
32
0
VERTEX
  5
15ca
330
1F
  100
AcDbEntity
8
major_roads
100
AcDbVertex
100
AcDb3dPolylineVertex
10
60.0000
20
302.5127
30
4.1526
70
32
0
VERTEX
  5
15cb
330
1F
  100
AcDbEntity
8
major_roads
100
AcDbVertex
100
AcDb3dPolylineVertex
10
90.0000
20
302.8600
30
3.7071
70
32
0
VERTEX
  5
15cc
330
1F
  100
AcDbEntity
8
major_roads
100
AcDbVertex
100
AcDb3dPolylineVertex
10
92.7536
20
302.8919
30
3.6702
70
32
0
SEQEND
  5
15cd
  100
AcDbEntity
0
POLYLINE
  5
15ce
330
1F
  100
AcDbEntity
8
minor_roads
  100
AcDb3dPolyline
70
8
10
0.0000
20
0.0000
30
0.0000
0
VERTEX
  5
15cf
330
1F
  100
AcDbEntity
8
minor_roads
100
AcDbVertex
100
AcDb3dPolylineVertex
10
141.9407
20
279.8495
30
2.9529
70
32
0
VERTEX
  5
15d0
330
1F
  100
AcDbEntity
8
minor_roads
100
AcDbVertex
100
AcDb3dPolylineVertex
10
150.0000
20
279.8957
30
2.8860
70
32
0
VERTEX
  5
15d1
330
1F
  100
AcDbEntity
8
minor_roads
100
AcDbVertex
100
AcDb3dPolylineVertex
10
175.0313
20
280.0391
30
2.6893
70
32
0
SEQEND
  5
15d2
  100
AcDbEntity
0
POLYLINE
  5
15d3
330
1F
  100
AcDbEntity
8
minor_roads
  100
AcDb3dPolyline
70
8
10
0.0000
20
0.0000
30
0.0000
0
VERTEX
  5
15d4
330
1F
  100
AcDbEntity
8
minor_roads
100
AcDbVertex
100
AcDb3dPolylineVertex
10
391.1031
20
71.5915
30
0.1388
70
32
0
VERTEX
  5
15d5
330
1F
  100
AcDbEntity
8
minor_roads
100
AcDbVertex
100
AcDb3dPolylineVertex
10
391.1548
20
64.8837
30
0.1407
70
32
0
VERTEX
  5
15d6
330
1F
  100
AcDbEntity
8
minor_roads
100
AcDbVertex
100
AcDb3dPolylineVertex
10
390.0000
20
64.8832
30
0.1384
70
32
0
VERTEX
  5
15d7
330
1F
  100
AcDbEntity
8
minor_roads
100
AcDbVertex
100
AcDb3dPolylineVertex
10
371.9554
20
64.8754
30
0.2487
70
32
0
VERTEX
  5
15d8
330
1F
  100
AcDbEntity
8
minor_roads
100
AcDbVertex
100
AcDb3dPolylineVertex
10
367.0265
20
69.5974
30
0.2901
70
32
0
VERTEX
  5
15d9
330
1F
  100
AcDbEntity
8
minor_roads
100
AcDbVertex
100
AcDb3dPolylineVertex
10
360.0000
20
69.6939
30
0.3369
70
32
0
VERTEX
  5
15da
330
1F
  100
AcDbEntity
8
minor_roads
100
AcDbVertex
100
AcDb3dPolylineVertex
10
345.4531
20
69.8938
30
0.5430
70
32
0
SEQEND
  5
15db
  100
AcDbEntity
0
POLYLINE
  5
15dc
330
1F
  100
AcDbEntity
8
minor_roads
  100
AcDb3dPolyline
70
8
10
0.0000
20
0.0000
30
0.0000
0
VERTEX
  5
15dd
330
1F
  100
AcDbEntity
8
minor_roads
100
AcDbVertex
100
AcDb3dPolylineVertex
10
313.6660
20
63.3362
30
0.8539
70
32
0
VERTEX
  5
15de
330
1F
  100
AcDbEntity
8
minor_roads
100
AcDbVertex
100
AcDb3dPolylineVertex
10
313.5653
20
87.2551
30
0.9757
70
32
0
SEQEND
  5
15df
  100
AcDbEntity
0
POLYLINE
  5
15e0
330
1F
  100
AcDbEntity
8
major_roads
  100
AcDb3dPolyline
70
8
10
0.0000
20
0.0000
30
0.0000
0
VERTEX
  5
15e1
330
1F
  100
AcDbEntity
8
major_roads
100
AcDbVertex
100
AcDb3dPolylineVertex
10
278.5774
20
313.1945
30
1.7537
70
32
0
VERTEX
  5
15e2
330
1F
  100
AcDbEntity
8
major_roads
100
AcDbVertex
100
AcDb3dPolylineVertex
10
270.0000
20
313.2087
30
1.8444
70
32
0
VERTEX
  5
15e3
330
1F
  100
AcDbEntity
8
major_roads
100
AcDbVertex
100
AcDb3dPolylineVertex
10
240.0000
20
313.2585
30
2.2263
70
32
0
VERTEX
  5
15e4
330
1F
  100
AcDbEntity
8
major_roads
100
AcDbVertex
100
AcDb3dPolylineVertex
10
214.9587
20
313.3000
30
2.4085
70
32
0
VERTEX
  5
15e5
330
1F
  100
AcDbEntity
8
major_roads
100
AcDbVertex
100
AcDb3dPolylineVertex
10
210.0000
20
313.3076
30
2.4445
70
32
0
VERTEX
  5
15e6
330
1F
  100
AcDbEntity
8
major_roads
100
AcDbVertex
100
AcDb3dPolylineVertex
10
195.7314
20
313.3294
30
2.6046
70
32
0
VERTEX
  5
15e7
330
1F
  100
AcDbEntity
8
major_roads
100
AcDbVertex
100
AcDb3dPolylineVertex
10
182.4983
20
313.3503
30
2.7532
70
32
0
SEQEND
  5
15e8
  100
AcDbEntity
0
POLYLINE
  5
15e9
330
1F
  100
AcDbEntity
8
major_roads
  100
AcDb3dPolyline
70
8
10
0.0000
20
0.0000
30
0.0000
0
VERTEX
  5
15ea
330
1F
  100
AcDbEntity
8
major_roads
100
AcDbVertex
100
AcDb3dPolylineVertex
10
406.9941
20
155.6625
30
0.2887
70
32
0
VERTEX
  5
15eb
330
1F
  100
AcDbEntity
8
major_roads
100
AcDbVertex
100
AcDb3dPolylineVertex
10
406.8512
20
150.3711
30
0.2850
70
32
0
VERTEX
  5
15ec
330
1F
  100
AcDbEntity
8
major_roads
100
AcDbVertex
100
AcDb3dPolylineVertex
10
406.8408
20
150.0000
30
0.2847
70
32
0
VERTEX
  5
15ed
330
1F
  100
AcDbEntity
8
major_roads
100
AcDbVertex
100
AcDb3dPolylineVertex
10
406.7552
20
146.9385
30
0.2726
70
32
0
SEQEND
  5
15ee
  100
AcDbEntity
0
POLYLINE
  5
15ef
330
1F
  100
AcDbEntity
8
minor_roads
  100
AcDb3dPolyline
70
8
10
0.0000
20
0.0000
30
0.0000
0
VERTEX
  5
15f0
330
1F
  100
AcDbEntity
8
minor_roads
100
AcDbVertex
100
AcDb3dPolylineVertex
10
141.2791
20
10.5698
30
3.0218
70
32
0
VERTEX
  5
15f1
330
1F
  100
AcDbEntity
8
minor_roads
100
AcDbVertex
100
AcDb3dPolylineVertex
10
141.1621
20
20.5261
30
2.9662
70
32
0
VERTEX
  5
15f2
330
1F
  100
AcDbEntity
8
minor_roads
100
AcDbVertex
100
AcDb3dPolylineVertex
10
141.1532
20
21.1014
30
2.9630
70
32
0
VERTEX
  5
15f3
330
1F
  100
AcDbEntity
8
minor_roads
100
AcDbVertex
100
AcDb3dPolylineVertex
10
141.1258
20
30.0000
30
2.9122
70
32
0
VERTEX
  5
15f4
330
1F
  100
AcDbEntity
8
minor_roads
100
AcDbVertex
100
AcDb3dPolylineVertex
10
141.0697
20
48.2019
30
2.9305
70
32
0
VERTEX
  5
15f5
330
1F
  100
AcDbEntity
8
minor_roads
100
AcDbVertex
100
AcDb3dPolylineVertex
10
141.0430
20
58.4449
30
2.9405
70
32
0
VERTEX
  5
15f6
330
1F
  100
AcDbEntity
8
minor_roads
100
AcDbVertex
100
AcDb3dPolylineVertex
10
141.0354
20
60.0000
30
2.9420
70
32
0
VERTEX
  5
15f7
330
1F
  100
AcDbEntity
8
minor_roads
100
AcDbVertex
100
AcDb3dPolylineVertex
10
141.0031
20
66.6132
30
2.9703
70
32
0
VERTEX
  5
15f8
330
1F
  100
AcDbEntity
8
minor_roads
100
AcDbVertex
100
AcDb3dPolylineVertex
10
140.9388
20
90.0000
30
3.0700
70
32
0
VERTEX
  5
15f9
330
1F
  100
AcDbEntity
8
minor_roads
100
AcDbVertex
100
AcDb3dPolylineVertex
10
140.9037
20
102.7751
30
3.0652
70
32
0
VERTEX
  5
15fa
330
1F
  100
AcDbEntity
8
minor_roads
100
AcDbVertex
100
AcDb3dPolylineVertex
10
141.0011
20
120.0000
30
3.0573
70
32
0
VERTEX
  5
15fb
330
1F
  100
AcDbEntity
8
minor_roads
100
AcDbVertex
100
AcDb3dPolylineVertex
10
141.1708
20
150.0000
30
2.9366
70
32
0
VERTEX
  5
15fc
330
1F
  100
AcDbEntity
8
minor_roads
100
AcDbVertex
100
AcDb3dPolylineVertex
10
141.3405
20
180.0000
30
2.8443
70
32
0
VERTEX
  5
15fd
330
1F
  100
AcDbEntity
8
minor_roads
100
AcDbVertex
100
AcDb3dPolylineVertex
10
141.4192
20
193.8986
30
2.8181
70
32
0
VERTEX
  5
15fe
330
1F
  100
AcDbEntity
8
minor_roads
100
AcDbVertex
100
AcDb3dPolylineVertex
10
141.5170
20
210.0000
30
2.7875
70
32
0
VERTEX
  5
15ff
330
1F
  100
AcDbEntity
8
minor_roads
100
AcDbVertex
100
AcDb3dPolylineVertex
10
141.6866
20
237.9113
30
2.8956
70
32
0
VERTEX
  5
1600
330
1F
  100
AcDbEntity
8
minor_roads
100
AcDbVertex
100
AcDb3dPolylineVertex
10
141.6994
20
240.0000
30
2.9037
70
32
0
VERTEX
  5
1601
330
1F
  100
AcDbEntity
8
minor_roads
100
AcDbVertex
100
AcDb3dPolylineVertex
10
141.7565
20
249.3448
30
2.9008
70
32
0
VERTEX
  5
1602
330
1F
  100
AcDbEntity
8
minor_roads
100
AcDbVertex
100
AcDb3dPolylineVertex
10
141.8812
20
270.0000
30
2.8951
70
32
0
VERTEX
  5
1603
330
1F
  100
AcDbEntity
8
minor_roads
100
AcDbVertex
100
AcDb3dPolylineVertex
10
141.9407
20
279.8495
30
2.9529
70
32
0
VERTEX
  5
1604
330
1F
  100
AcDbEntity
8
minor_roads
100
AcDbVertex
100
AcDb3dPolylineVertex
10
142.0619
20
300.0000
30
3.0706
70
32
0
VERTEX
  5
1605
330
1F
  100
AcDbEntity
8
minor_roads
100
AcDbVertex
100
AcDb3dPolylineVertex
10
142.0828
20
303.4793
30
3.0719
70
32
0
VERTEX
  5
1606
330
1F
  100
AcDbEntity
8
minor_roads
100
AcDbVertex
100
AcDb3dPolylineVertex
10
142.1131
20
313.6290
30
3.0759
70
32
0
VERTEX
  5
1607
330
1F
  100
AcDbEntity
8
minor_roads
100
AcDbVertex
100
AcDb3dPolylineVertex
10
142.7111
20
321.8107
30
3.0731
70
32
0
SEQEND
  5
1608
  100
AcDbEntity
0
POLYLINE
  5
1609
330
1F
  100
AcDbEntity
8
minor_roads
  100
AcDb3dPolyline
70
8
10
0.0000
20
0.0000
30
0.0000
0
VERTEX
  5
160a
330
1F
  100
AcDbEntity
8
minor_roads
100
AcDbVertex
100
AcDb3dPolylineVertex
10
295.0800
20
48.2643
30
0.9917
70
32
0
VERTEX
  5
160b
330
1F
  100
AcDbEntity
8
minor_roads
100
AcDbVertex
100
AcDb3dPolylineVertex
10
295.2112
20
60.0000
30
0.9851
70
32
0
VERTEX
  5
160c
330
1F
  100
AcDbEntity
8
minor_roads
100
AcDbVertex
100
AcDb3dPolylineVertex
10
295.2456
20
63.0838
30
1.0006
70
32
0
VERTEX
  5
160d
330
1F
  100
AcDbEntity
8
minor_roads
100
AcDbVertex
100
AcDb3dPolylineVertex
10
295.5493
20
90.0000
30
1.1367
70
32
0
VERTEX
  5
160e
330
1F
  100
AcDbEntity
8
minor_roads
100
AcDbVertex
100
AcDb3dPolylineVertex
10
295.5562
20
90.6111
30
1.1434
70
32
0
SEQEND
  5
160f
  100
AcDbEntity
  0
MESH
  5
1610
330
1F
  100
AcDbEntity
8
buildings
  100
AcDbSubDMesh
71
2
72
0
91
0
92
8
10
224.9321
20
169.8519
30
5.1546
10
229.4038
20
170.1642
30
5.1546
10
228.9029
20
177.3199
30
5.1546
10
224.4313
20
177.0169
30
5.1546
10
224.9321
20
169.8519
30
2.1546
10
229.4038
20
170.1642
30
2.1546
10
228.9029
20
177.3199
30
2.1546
10
224.4313
20
177.0169
30
2.1546
93
36
90
3
90
3
90
0
90
2
90
3
90
7
90
6
90
4
90
3
90
1
90
2
90
0
90
3
90
5
90
4
90
6
90
4
90
1
90
0
90
4
90
5
90
4
90
2
90
1
90
5
90
6
90
4
90
3
90
2
90
6
90
7
90
4
90
0
90
3
90
7
90
4
94
0
95
0
0
POLYLINE
  5
1611
330
1F
  100
AcDbEntity
8
minor_roads
  100
AcDb3dPolyline
70
8
10
0.0000
20
0.0000
30
0.0000
0
VERTEX
  5
1612
330
1F
  100
AcDbEntity
8
minor_roads
100
AcDbVertex
100
AcDb3dPolylineVertex
10
283.8507
20
198.0608
30
1.5824
70
32
0
VERTEX
  5
1613
330
1F
  100
AcDbEntity
8
minor_roads
100
AcDbVertex
100
AcDb3dPolylineVertex
10
286.0632
20
196.3890
30
1.5774
70
32
0
VERTEX
  5
1614
330
1F
  100
AcDbEntity
8
minor_roads
100
AcDbVertex
100
AcDb3dPolylineVertex
10
289.5561
20
194.7133
30
1.5647
70
32
0
VERTEX
  5
1615
330
1F
  100
AcDbEntity
8
minor_roads
100
AcDbVertex
100
AcDb3dPolylineVertex
10
293.9081
20
193.2584
30
1.5463
70
32
0
VERTEX
  5
1616
330
1F
  100
AcDbEntity
8
minor_roads
100
AcDbVertex
100
AcDb3dPolylineVertex
10
298.5920
20
192.7980
30
1.5184
70
32
0
VERTEX
  5
1617
330
1F
  100
AcDbEntity
8
minor_roads
100
AcDbVertex
100
AcDb3dPolylineVertex
10
300.0000
20
192.8080
30
1.5088
70
32
0
VERTEX
  5
1618
330
1F
  100
AcDbEntity
8
minor_roads
100
AcDbVertex
100
AcDb3dPolylineVertex
10
330.0000
20
193.0218
30
1.3222
70
32
0
VERTEX
  5
1619
330
1F
  100
AcDbEntity
8
minor_roads
100
AcDbVertex
100
AcDb3dPolylineVertex
10
350.2173
20
193.1659
30
1.0488
70
32
0
VERTEX
  5
161a
330
1F
  100
AcDbEntity
8
minor_roads
100
AcDbVertex
100
AcDb3dPolylineVertex
10
360.0000
20
193.2147
30
0.9169
70
32
0
VERTEX
  5
161b
330
1F
  100
AcDbEntity
8
minor_roads
100
AcDbVertex
100
AcDb3dPolylineVertex
10
390.0000
20
193.3645
30
0.5607
70
32
0
VERTEX
  5
161c
330
1F
  100
AcDbEntity
8
minor_roads
100
AcDbVertex
100
AcDb3dPolylineVertex
10
394.4568
20
193.3867
30
0.4952
70
32
0
VERTEX
  5
161d
330
1F
  100
AcDbEntity
8
minor_roads
100
AcDbVertex
100
AcDb3dPolylineVertex
10
399.5886
20
193.2432
30
0.4201
70
32
0
VERTEX
  5
161e
330
1F
  100
AcDbEntity
8
minor_roads
100
AcDbVertex
100
AcDb3dPolylineVertex
10
407.1049
20
193.2044
30
0.3096
70
32
0
SEQEND
  5
161f
  100
AcDbEntity
0
POLYLINE
  5
1620
330
1F
  100
AcDbEntity
8
minor_roads
  100
AcDb3dPolyline
70
8
10
0.0000
20
0.0000
30
0.0000
0
VERTEX
  5
1621
330
1F
  100
AcDbEntity
8
minor_roads
100
AcDbVertex
100
AcDb3dPolylineVertex
10
278.0014
20
10.8789
30
1.4017
70
32
0
VERTEX
  5
1622
330
1F
  100
AcDbEntity
8
minor_roads
100
AcDbVertex
100
AcDb3dPolylineVertex
10
278.0339
20
21.8194
30
1.2566
70
32
0
VERTEX
  5
1623
330
1F
  100
AcDbEntity
8
minor_roads
100
AcDbVertex
100
AcDb3dPolylineVertex
10
278.0601
20
30.0000
30
1.1481
70
32
0
VERTEX
  5
1624
330
1F
  100
AcDbEntity
8
minor_roads
100
AcDbVertex
100
AcDb3dPolylineVertex
10
278.0915
20
39.8303
30
1.1495
70
32
0
VERTEX
  5
1625
330
1F
  100
AcDbEntity
8
minor_roads
100
AcDbVertex
100
AcDb3dPolylineVertex
10
278.1119
20
48.0914
30
1.1507
70
32
0
VERTEX
  5
1626
330
1F
  100
AcDbEntity
8
minor_roads
100
AcDbVertex
100
AcDb3dPolylineVertex
10
277.8684
20
60.0000
30
1.1550
70
32
0
VERTEX
  5
1627
330
1F
  100
AcDbEntity
8
minor_roads
100
AcDbVertex
100
AcDb3dPolylineVertex
10
277.4124
20
82.3014
30
1.2462
70
32
0
VERTEX
  5
1628
330
1F
  100
AcDbEntity
8
minor_roads
100
AcDbVertex
100
AcDb3dPolylineVertex
10
277.8559
20
87.1285
30
1.2614
70
32
0
VERTEX
  5
1629
330
1F
  100
AcDbEntity
8
minor_roads
100
AcDbVertex
100
AcDb3dPolylineVertex
10
278.1901
20
88.8486
30
1.2656
70
32
0
VERTEX
  5
162a
330
1F
  100
AcDbEntity
8
minor_roads
100
AcDbVertex
100
AcDb3dPolylineVertex
10
278.6913
20
90.0000
30
1.2662
70
32
0
VERTEX
  5
162b
330
1F
  100
AcDbEntity
8
minor_roads
100
AcDbVertex
100
AcDb3dPolylineVertex
10
280.1275
20
93.2991
30
1.2889
70
32
0
VERTEX
  5
162c
330
1F
  100
AcDbEntity
8
minor_roads
100
AcDbVertex
100
AcDb3dPolylineVertex
10
284.4053
20
98.1705
30
1.3074
70
32
0
SEQEND
  5
162d
  100
AcDbEntity
0
POLYLINE
  5
162e
330
1F
  100
AcDbEntity
8
minor_roads
  100
AcDb3dPolyline
70
8
10
0.0000
20
0.0000
30
0.0000
0
VERTEX
  5
162f
330
1F
  100
AcDbEntity
8
minor_roads
100
AcDbVertex
100
AcDb3dPolylineVertex
10
383.3369
20
11.8506
30
0.4645
70
32
0
VERTEX
  5
1630
330
1F
  100
AcDbEntity
8
minor_roads
100
AcDbVertex
100
AcDb3dPolylineVertex
10
383.1892
20
22.1598
30
0.3743
70
32
0
VERTEX
  5
1631
330
1F
  100
AcDbEntity
8
minor_roads
100
AcDbVertex
100
AcDb3dPolylineVertex
10
383.0811
20
30.0000
30
0.3056
70
32
0
VERTEX
  5
1632
330
1F
  100
AcDbEntity
8
minor_roads
100
AcDbVertex
100
AcDb3dPolylineVertex
10
383.0473
20
32.4488
30
0.2953
70
32
0
SEQEND
  5
1633
  100
AcDbEntity
0
POLYLINE
  5
1634
330
1F
  100
AcDbEntity
8
minor_roads
  100
AcDb3dPolyline
70
8
10
0.0000
20
0.0000
30
0.0000
0
VERTEX
  5
1635
330
1F
  100
AcDbEntity
8
minor_roads
100
AcDbVertex
100
AcDb3dPolylineVertex
10
0.5895
20
197.2685
30
4.2932
70
32
0
VERTEX
  5
1636
330
1F
  100
AcDbEntity
8
minor_roads
100
AcDbVertex
100
AcDb3dPolylineVertex
10
2.7425
20
199.1240
30
4.2607
70
32
0
VERTEX
  5
1637
330
1F
  100
AcDbEntity
8
minor_roads
100
AcDbVertex
100
AcDb3dPolylineVertex
10
3.8231
20
201.6512
30
4.2452
70
32
0
VERTEX
  5
1638
330
1F
  100
AcDbEntity
8
minor_roads
100
AcDbVertex
100
AcDb3dPolylineVertex
10
5.8111
20
208.6320
30
4.2205
70
32
0
VERTEX
  5
1639
330
1F
  100
AcDbEntity
8
minor_roads
100
AcDbVertex
100
AcDb3dPolylineVertex
10
5.7881
20
210.0000
30
4.2216
70
32
0
VERTEX
  5
163a
330
1F
  100
AcDbEntity
8
minor_roads
100
AcDbVertex
100
AcDb3dPolylineVertex
10
5.3742
20
234.6079
30
4.2916
70
32
0
VERTEX
  5
163b
330
1F
  100
AcDbEntity
8
minor_roads
100
AcDbVertex
100
AcDb3dPolylineVertex
10
5.3537
20
237.2966
30
4.2988
70
32
0
VERTEX
  5
163c
330
1F
  100
AcDbEntity
8
minor_roads
100
AcDbVertex
100
AcDb3dPolylineVertex
10
5.3681
20
240.0000
30
4.3058
70
32
0
VERTEX
  5
163d
330
1F
  100
AcDbEntity
8
minor_roads
100
AcDbVertex
100
AcDb3dPolylineVertex
10
5.4190
20
249.5115
30
4.3890
70
32
0
VERTEX
  5
163e
330
1F
  100
AcDbEntity
8
minor_roads
100
AcDbVertex
100
AcDb3dPolylineVertex
10
5.6763
20
261.3351
30
4.4911
70
32
0
VERTEX
  5
163f
330
1F
  100
AcDbEntity
8
minor_roads
100
AcDbVertex
100
AcDb3dPolylineVertex
10
5.8635
20
270.0000
30
4.5659
70
32
0
VERTEX
  5
1640
330
1F
  100
AcDbEntity
8
minor_roads
100
AcDbVertex
100
AcDb3dPolylineVertex
10
6.5116
20
300.0000
30
4.7251
70
32
0
VERTEX
  5
1641
330
1F
  100
AcDbEntity
8
minor_roads
100
AcDbVertex
100
AcDb3dPolylineVertex
10
6.5525
20
301.8940
30
4.7215
70
32
0
SEQEND
  5
1642
  100
AcDbEntity
0
POLYLINE
  5
1643
330
1F
  100
AcDbEntity
8
minor_roads
  100
AcDb3dPolyline
70
8
10
0.0000
20
0.0000
30
0.0000
0
VERTEX
  5
1644
330
1F
  100
AcDbEntity
8
minor_roads
100
AcDbVertex
100
AcDb3dPolylineVertex
10
141.6866
20
237.9113
30
2.8956
70
32
0
VERTEX
  5
1645
330
1F
  100
AcDbEntity
8
minor_roads
100
AcDbVertex
100
AcDb3dPolylineVertex
10
150.0000
20
237.9709
30
2.7864
70
32
0
VERTEX
  5
1646
330
1F
  100
AcDbEntity
8
minor_roads
100
AcDbVertex
100
AcDb3dPolylineVertex
10
180.0000
20
238.1860
30
2.7186
70
32
0
VERTEX
  5
1647
330
1F
  100
AcDbEntity
8
minor_roads
100
AcDbVertex
100
AcDb3dPolylineVertex
10
186.5804
20
238.2332
30
2.7128
70
32
0
VERTEX
  5
1648
330
1F
  100
AcDbEntity
8
minor_roads
100
AcDbVertex
100
AcDb3dPolylineVertex
10
186.5481
20
240.0000
30
2.7255
70
32
0
VERTEX
  5
1649
330
1F
  100
AcDbEntity
8
minor_roads
100
AcDbVertex
100
AcDb3dPolylineVertex
10
186.3774
20
249.3139
30
2.6817
70
32
0
SEQEND
  5
164a
  100
AcDbEntity
0
POLYLINE
  5
164b
330
1F
  100
AcDbEntity
8
minor_roads
  100
AcDb3dPolyline
70
8
10
0.0000
20
0.0000
30
0.0000
0
VERTEX
  5
164c
330
1F
  100
AcDbEntity
8
minor_roads
100
AcDbVertex
100
AcDb3dPolylineVertex
10
6.7721
20
49.9813
30
4.1695
70
32
0
VERTEX
  5
164d
330
1F
  100
AcDbEntity
8
minor_roads
100
AcDbVertex
100
AcDb3dPolylineVertex
10
30.0000
20
50.0284
30
4.0713
70
32
0
VERTEX
  5
164e
330
1F
  100
AcDbEntity
8
minor_roads
100
AcDbVertex
100
AcDb3dPolylineVertex
10
51.1370
20
50.0714
30
3.9097
70
32
0
SEQEND
  5
164f
  100
AcDbEntity
0
POLYLINE
  5
1650
330
1F
  100
AcDbEntity
8
major_roads
  100
AcDb3dPolyline
70
8
10
0.0000
20
0.0000
30
0.0000
0
VERTEX
  5
1651
330
1F
  100
AcDbEntity
8
major_roads
100
AcDbVertex
100
AcDb3dPolylineVertex
10
404.4880
20
28.3757
30
0.2834
70
32
0
VERTEX
  5
1652
330
1F
  100
AcDbEntity
8
major_roads
100
AcDbVertex
100
AcDb3dPolylineVertex
10
404.0748
20
12.0033
30
0.3768
70
32
0
SEQEND
  5
1653
  100
AcDbEntity
  0
MESH
  5
1654
330
1F
  100
AcDbEntity
8
buildings
  100
AcDbSubDMesh
71
2
72
0
91
0
92
32
10
225.8499
20
264.3047
30
5.1126
10
226.6225
20
264.3117
30
5.1126
10
226.7025
20
259.9669
30
5.1126
10
231.5240
20
260.0642
30
5.1126
10
231.4439
20
264.4090
30
5.1126
10
231.6228
20
264.4085
30
5.1126
10
231.6285
20
263.9154
30
5.1126
10
239.7119
20
264.0681
30
5.1126
10
239.7182
20
263.7797
30
5.1126
10
250.2982
20
263.9808
30
5.1126
10
249.8963
20
285.1747
30
5.1126
10
239.3020
20
284.9737
30
5.1126
10
239.5693
20
271.4460
30
5.1126
10
236.4146
20
271.3903
30
5.1126
10
236.1541
20
284.8063
30
5.1126
10
225.4597
20
284.6055
30
5.1126
10
225.8499
20
264.3047
30
2.1126
10
226.6225
20
264.3117
30
2.1126
10
226.7025
20
259.9669
30
2.1126
10
231.5240
20
260.0642
30
2.1126
10
231.4439
20
264.4090
30
2.1126
10
231.6228
20
264.4085
30
2.1126
10
231.6285
20
263.9154
30
2.1126
10
239.7119
20
264.0681
30
2.1126
10
239.7182
20
263.7797
30
2.1126
10
250.2982
20
263.9808
30
2.1126
10
249.8963
20
285.1747
30
2.1126
10
239.3020
20
284.9737
30
2.1126
10
239.5693
20
271.4460
30
2.1126
10
236.4146
20
271.3903
30
2.1126
10
236.1541
20
284.8063
30
2.1126
10
225.4597
20
284.6055
30
2.1126
93
192
90
3
90
2
90
3
90
1
90
3
90
18
90
17
90
19
90
3
90
13
90
15
90
1
90
3
90
29
90
17
90
31
90
3
90
1
90
15
90
0
90
3
90
17
90
16
90
31
90
3
90
13
90
1
90
4
90
3
90
29
90
20
90
17
90
3
90
1
90
3
90
4
90
3
90
17
90
20
90
19
90
3
90
13
90
4
90
5
90
3
90
29
90
21
90
20
90
3
90
6
90
7
90
5
90
3
90
22
90
21
90
23
90
3
90
12
90
13
90
7
90
3
90
28
90
23
90
29
90
3
90
13
90
5
90
7
90
3
90
29
90
23
90
21
90
3
90
8
90
9
90
7
90
3
90
24
90
23
90
25
90
3
90
12
90
7
90
9
90
3
90
28
90
25
90
23
90
3
90
12
90
10
90
11
90
3
90
28
90
27
90
26
90
3
90
10
90
12
90
9
90
3
90
26
90
25
90
28
90
3
90
13
90
14
90
15
90
3
90
29
90
31
90
30
90
4
90
1
90
0
90
16
90
17
90
4
90
2
90
1
90
17
90
18
90
4
90
3
90
2
90
18
90
19
90
4
90
4
90
3
90
19
90
20
90
4
90
5
90
4
90
20
90
21
90
4
90
6
90
5
90
21
90
22
90
4
90
7
90
6
90
22
90
23
90
4
90
8
90
7
90
23
90
24
90
4
90
9
90
8
90
24
90
25
90
4
90
10
90
9
90
25
90
26
90
4
90
11
90
10
90
26
90
27
90
4
90
12
90
11
90
27
90
28
90
4
90
13
90
12
90
28
90
29
90
4
90
14
90
13
90
29
90
30
90
4
90
15
90
14
90
30
90
31
90
4
90
0
90
15
90
31
90
16
94
0
95
0
  0
MESH
  5
1655
330
1F
  100
AcDbEntity
8
buildings
  100
AcDbSubDMesh
71
2
72
0
91
0
92
8
10
86.3233
20
262.3770
30
6.6329
10
86.4917
20
289.9512
30
6.6329
10
60.9272
20
290.1023
30
6.6329
10
60.7658
20
262.5280
30
6.6329
10
86.3233
20
262.3770
30
3.6329
10
86.4917
20
289.9512
30
3.6329
10
60.9272
20
290.1023
30
3.6329
10
60.7658
20
262.5280
30
3.6329
93
36
90
3
90
2
90
3
90
0
90
3
90
6
90
4
90
7
90
3
90
0
90
1
90
2
90
3
90
4
90
6
90
5
90
4
90
1
90
0
90
4
90
5
90
4
90
2
90
1
90
5
90
6
90
4
90
3
90
2
90
6
90
7
90
4
90
0
90
3
90
7
90
4
94
0
95
0
  0
MESH
  5
1656
330
1F
  100
AcDbEntity
8
buildings
  100
AcDbSubDMesh
71
2
72
0
91
0
92
8
10
105.6721
20
114.0816
30
6.3135
10
114.1781
20
114.3724
30
6.3135
10
113.7509
20
126.9982
30
6.3135
10
105.2378
20
126.7166
30
6.3135
10
105.6721
20
114.0816
30
3.3135
10
114.1781
20
114.3724
30
3.3135
10
113.7509
20
126.9982
30
3.3135
10
105.2378
20
126.7166
30
3.3135
93
36
90
3
90
3
90
0
90
2
90
3
90
7
90
6
90
4
90
3
90
1
90
2
90
0
90
3
90
5
90
4
90
6
90
4
90
1
90
0
90
4
90
5
90
4
90
2
90
1
90
5
90
6
90
4
90
3
90
2
90
6
90
7
90
4
90
0
90
3
90
7
90
4
94
0
95
0
  0
MESH
  5
1657
330
1F
  100
AcDbEntity
8
buildings
  100
AcDbSubDMesh
71
2
72
0
91
0
92
8
10
27.0658
20
114.2335
30
7.1714
10
27.3514
20
133.1275
30
7.1714
10
17.8023
20
133.2771
30
7.1714
10
17.5166
20
114.3831
30
7.1714
10
27.0658
20
114.2335
30
4.1714
10
27.3514
20
133.1275
30
4.1714
10
17.8023
20
133.2771
30
4.1714
10
17.5166
20
114.3831
30
4.1714
93
36
90
3
90
2
90
3
90
1
90
3
90
6
90
5
90
7
90
3
90
0
90
1
90
3
90
3
90
4
90
7
90
5
90
4
90
1
90
0
90
4
90
5
90
4
90
2
90
1
90
5
90
6
90
4
90
3
90
2
90
6
90
7
90
4
90
0
90
3
90
7
90
4
94
0
95
0
  0
MESH
  5
1658
330
1F
  100
AcDbEntity
8
buildings
  100
AcDbSubDMesh
71
2
72
0
91
0
92
8
10
58.2154
20
115.7215
30
6.7677
10
68.0231
20
115.9340
30
6.7677
10
67.7135
20
129.6107
30
6.7677
10
57.9059
20
129.3982
30
6.7677
10
58.2154
20
115.7215
30
3.7677
10
68.0231
20
115.9340
30
3.7677
10
67.7135
20
129.6107
30
3.7677
10
57.9059
20
129.3982
30
3.7677
93
36
90
3
90
3
90
0
90
2
90
3
90
7
90
6
90
4
90
3
90
1
90
2
90
0
90
3
90
5
90
4
90
6
90
4
90
1
90
0
90
4
90
5
90
4
90
2
90
1
90
5
90
6
90
4
90
3
90
2
90
6
90
7
90
4
90
0
90
3
90
7
90
4
94
0
95
0
  0
MESH
  5
1659
330
1F
  100
AcDbEntity
8
buildings
  100
AcDbSubDMesh
71
2
72
0
91
0
92
8
10
47.1788
20
123.1507
30
6.8660
10
55.5277
20
123.5350
30
6.8660
10
55.0981
20
132.9325
30
6.8660
10
46.7492
20
132.5482
30
6.8660
10
47.1788
20
123.1507
30
3.8660
10
55.5277
20
123.5350
30
3.8660
10
55.0981
20
132.9325
30
3.8660
10
46.7492
20
132.5482
30
3.8660
93
36
90
3
90
3
90
0
90
1
90
3
90
7
90
5
90
4
90
3
90
1
90
2
90
3
90
3
90
5
90
7
90
6
90
4
90
1
90
0
90
4
90
5
90
4
90
2
90
1
90
5
90
6
90
4
90
3
90
2
90
6
90
7
90
4
90
0
90
3
90
7
90
4
94
0
95
0
  0
MESH
  5
165a
330
1F
  100
AcDbEntity
8
buildings
  100
AcDbSubDMesh
71
2
72
0
91
0
92
8
10
175.7819
20
116.8584
30
5.5703
10
175.9217
20
130.1430
30
5.5703
10
166.8517
20
130.2352
30
5.5703
10
166.7048
20
116.9506
30
5.5703
10
175.7819
20
116.8584
30
2.5703
10
175.9217
20
130.1430
30
2.5703
10
166.8517
20
130.2352
30
2.5703
10
166.7048
20
116.9506
30
2.5703
93
36
90
3
90
2
90
3
90
0
90
3
90
6
90
4
90
7
90
3
90
0
90
1
90
2
90
3
90
4
90
6
90
5
90
4
90
1
90
0
90
4
90
5
90
4
90
2
90
1
90
5
90
6
90
4
90
3
90
2
90
6
90
7
90
4
90
0
90
3
90
7
90
4
94
0
95
0
  0
MESH
  5
165b
330
1F
  100
AcDbEntity
8
buildings
  100
AcDbSubDMesh
71
2
72
0
91
0
92
8
10
254.4882
20
116.6426
30
4.6383
10
264.3528
20
116.7714
30
4.6383
10
264.0963
20
136.3554
30
4.6383
10
254.2317
20
136.2266
30
4.6383
10
254.4882
20
116.6426
30
1.6383
10
264.3528
20
116.7714
30
1.6383
10
264.0963
20
136.3554
30
1.6383
10
254.2317
20
136.2266
30
1.6383
93
36
90
3
90
3
90
0
90
2
90
3
90
7
90
6
90
4
90
3
90
1
90
2
90
0
90
3
90
5
90
4
90
6
90
4
90
1
90
0
90
4
90
5
90
4
90
2
90
1
90
5
90
6
90
4
90
3
90
2
90
6
90
7
90
4
90
0
90
3
90
7
90
4
94
0
95
0
  0
MESH
  5
165c
330
1F
  100
AcDbEntity
8
buildings
  100
AcDbSubDMesh
71
2
72
0
91
0
92
8
10
67.5193
20
67.2146
30
6.6786
10
72.5983
20
67.2645
30
6.6786
10
72.3444
20
89.9558
30
6.6786
10
67.2654
20
89.8873
30
6.6786
10
67.5193
20
67.2146
30
3.6786
10
72.5983
20
67.2645
30
3.6786
10
72.3444
20
89.9558
30
3.6786
10
67.2654
20
89.8873
30
3.6786
93
36
90
3
90
3
90
0
90
1
90
3
90
7
90
5
90
4
90
3
90
1
90
2
90
3
90
3
90
5
90
7
90
6
90
4
90
1
90
0
90
4
90
5
90
4
90
2
90
1
90
5
90
6
90
4
90
3
90
2
90
6
90
7
90
4
90
0
90
3
90
7
90
4
94
0
95
0
  0
MESH
  5
165d
330
1F
  100
AcDbEntity
8
buildings
  100
AcDbSubDMesh
71
2
72
0
91
0
92
8
10
164.9110
20
139.0976
30
5.6578
10
164.9982
20
146.7353
30
5.6578
10
158.3388
20
146.8110
30
5.6578
10
158.2588
20
139.1733
30
5.6578
10
164.9110
20
139.0976
30
2.6578
10
164.9982
20
146.7353
30
2.6578
10
158.3388
20
146.8110
30
2.6578
10
158.2588
20
139.1733
30
2.6578
93
36
90
3
90
2
90
3
90
1
90
3
90
6
90
5
90
7
90
3
90
0
90
1
90
3
90
3
90
4
90
7
90
5
90
4
90
1
90
0
90
4
90
5
90
4
90
2
90
1
90
5
90
6
90
4
90
3
90
2
90
6
90
7
90
4
90
0
90
3
90
7
90
4
94
0
95
0
  0
MESH
  5
165e
330
1F
  100
AcDbEntity
8
buildings
  100
AcDbSubDMesh
71
2
72
0
91
0
92
8
10
177.7929
20
153.1442
30
5.4759
10
177.8959
20
163.6845
30
5.4759
10
168.0749
20
163.7882
30
5.4759
10
167.9648
20
153.2573
30
5.4759
10
177.7929
20
153.1442
30
2.4759
10
177.8959
20
163.6845
30
2.4759
10
168.0749
20
163.7882
30
2.4759
10
167.9648
20
153.2573
30
2.4759
93
36
90
3
90
2
90
3
90
1
90
3
90
6
90
5
90
7
90
3
90
0
90
1
90
3
90
3
90
4
90
7
90
5
90
4
90
1
90
0
90
4
90
5
90
4
90
2
90
1
90
5
90
6
90
4
90
3
90
2
90
6
90
7
90
4
90
0
90
3
90
7
90
4
94
0
95
0
  0
MESH
  5
165f
330
1F
  100
AcDbEntity
8
buildings
  100
AcDbSubDMesh
71
2
72
0
91
0
92
8
10
181.5998
20
64.8733
30
5.3472
10
191.7006
20
65.0106
30
5.3472
10
191.4136
20
86.2972
30
5.3472
10
181.3128
20
86.1599
30
5.3472
10
181.5998
20
64.8733
30
2.3472
10
191.7006
20
65.0106
30
2.3472
10
191.4136
20
86.2972
30
2.3472
10
181.3128
20
86.1599
30
2.3472
93
36
90
3
90
3
90
0
90
1
90
3
90
7
90
5
90
4
90
3
90
1
90
2
90
3
90
3
90
5
90
7
90
6
90
4
90
1
90
0
90
4
90
5
90
4
90
2
90
1
90
5
90
6
90
4
90
3
90
2
90
6
90
7
90
4
90
0
90
3
90
7
90
4
94
0
95
0
  0
MESH
  5
1660
330
1F
  100
AcDbEntity
8
buildings
  100
AcDbSubDMesh
71
2
72
0
91
0
92
8
10
103.4807
20
137.1601
30
6.2667
10
110.2917
20
137.5304
30
6.2667
10
109.9661
20
143.4855
30
6.2667
10
103.1480
20
143.1058
30
6.2667
10
103.4807
20
137.1601
30
3.2667
10
110.2917
20
137.5304
30
3.2667
10
109.9661
20
143.4855
30
3.2667
10
103.1480
20
143.1058
30
3.2667
93
36
90
3
90
3
90
0
90
2
90
3
90
7
90
6
90
4
90
3
90
1
90
2
90
0
90
3
90
5
90
4
90
6
90
4
90
1
90
0
90
4
90
5
90
4
90
2
90
1
90
5
90
6
90
4
90
3
90
2
90
6
90
7
90
4
90
0
90
3
90
7
90
4
94
0
95
0
0
POLYLINE
  5
1661
330
1F
  100
AcDbEntity
8
major_roads
  100
AcDb3dPolyline
70
8
10
0.0000
20
0.0000
30
0.0000
0
VERTEX
  5
1662
330
1F
  100
AcDbEntity
8
major_roads
100
AcDbVertex
100
AcDb3dPolylineVertex
10
92.7536
20
302.8919
30
3.6702
70
32
0
VERTEX
  5
1663
330
1F
  100
AcDbEntity
8
major_roads
100
AcDbVertex
100
AcDb3dPolylineVertex
10
120.0000
20
303.2163
30
3.3057
70
32
0
VERTEX
  5
1664
330
1F
  100
AcDbEntity
8
major_roads
100
AcDbVertex
100
AcDb3dPolylineVertex
10
142.0828
20
303.4793
30
3.0719
70
32
0
SEQEND
  5
1665
  100
AcDbEntity
0
POLYLINE
  5
1666
330
1F
  100
AcDbEntity
8
paths
  100
AcDb3dPolyline
70
8
10
0.0000
20
0.0000
30
0.0000
0
VERTEX
  5
1667
330
1F
  100
AcDbEntity
8
paths
100
AcDbVertex
100
AcDb3dPolylineVertex
10
394.2200
20
22.5264
30
0.3400
70
32
0
VERTEX
  5
1668
330
1F
  100
AcDbEntity
8
paths
100
AcDbVertex
100
AcDb3dPolylineVertex
10
398.3349
20
27.9474
30
0.2929
70
32
0
VERTEX
  5
1669
330
1F
  100
AcDbEntity
8
paths
100
AcDbVertex
100
AcDb3dPolylineVertex
10
404.4880
20
28.3757
30
0.2834
70
32
0
VERTEX
  5
166a
330
1F
  100
AcDbEntity
8
paths
100
AcDbVertex
100
AcDb3dPolylineVertex
10
406.6183
20
28.4337
30
0.2808
70
32
0
SEQEND
  5
166b
  100
AcDbEntity
  0
MESH
  5
166c
330
1F
  100
AcDbEntity
8
buildings
  100
AcDbSubDMesh
71
2
72
0
91
0
92
8
10
330.8704
20
213.2531
30
3.9605
10
340.7205
20
213.3541
30
3.9605
10
340.4805
20
236.1663
30
3.9605
10
330.6375
20
236.0559
30
3.9605
10
330.8704
20
213.2531
30
0.9605
10
340.7205
20
213.3541
30
0.9605
10
340.4805
20
236.1663
30
0.9605
10
330.6375
20
236.0559
30
0.9605
93
36
90
3
90
3
90
0
90
1
90
3
90
7
90
5
90
4
90
3
90
1
90
2
90
3
90
3
90
5
90
7
90
6
90
4
90
1
90
0
90
4
90
5
90
4
90
2
90
1
90
5
90
6
90
4
90
3
90
2
90
6
90
7
90
4
90
0
90
3
90
7
90
4
94
0
95
0
  0
MESH
  5
166d
330
1F
  100
AcDbEntity
8
buildings
  100
AcDbSubDMesh
71
2
72
0
91
0
92
8
10
372.8354
20
258.3983
30
3.5510
10
386.9202
20
258.5241
30
3.5510
10
386.7762
20
275.1494
30
3.5510
10
372.6843
20
275.0236
30
3.5510
10
372.8354
20
258.3983
30
0.5510
10
386.9202
20
258.5241
30
0.5510
10
386.7762
20
275.1494
30
0.5510
10
372.6843
20
275.0236
30
0.5510
93
36
90
3
90
3
90
0
90
1
90
3
90
7
90
5
90
4
90
3
90
1
90
2
90
3
90
3
90
5
90
7
90
6
90
4
90
1
90
0
90
4
90
5
90
4
90
2
90
1
90
5
90
6
90
4
90
3
90
2
90
6
90
7
90
4
90
0
90
3
90
7
90
4
94
0
95
0
0
POLYLINE
  5
166e
330
1F
  100
AcDbEntity
8
minor_roads
  100
AcDb3dPolyline
70
8
10
0.0000
20
0.0000
30
0.0000
0
VERTEX
  5
166f
330
1F
  100
AcDbEntity
8
minor_roads
100
AcDbVertex
100
AcDb3dPolylineVertex
10
260.3626
20
266.3883
30
1.9482
70
32
0
VERTEX
  5
1670
330
1F
  100
AcDbEntity
8
minor_roads
100
AcDbVertex
100
AcDb3dPolylineVertex
10
260.1807
20
248.5081
30
1.8980
70
32
0
SEQEND
  5
1671
  100
AcDbEntity
  0
MESH
  5
1672
330
1F
  100
AcDbEntity
8
buildings
  100
AcDbSubDMesh
71
2
72
0
91
0
92
8
10
85.3951
20
114.9051
30
6.6108
10
85.4301
20
126.5620
30
6.6108
10
72.8620
20
126.5996
30
6.6108
10
72.8270
20
114.9428
30
6.6108
10
85.3951
20
114.9051
30
3.6108
10
85.4301
20
126.5620
30
3.6108
10
72.8620
20
126.5996
30
3.6108
10
72.8270
20
114.9428
30
3.6108
93
36
90
3
90
2
90
3
90
1
90
3
90
6
90
5
90
7
90
3
90
0
90
1
90
3
90
3
90
4
90
7
90
5
90
4
90
1
90
0
90
4
90
5
90
4
90
2
90
1
90
5
90
6
90
4
90
3
90
2
90
6
90
7
90
4
90
0
90
3
90
7
90
4
94
0
95
0
  0
MESH
  5
1673
330
1F
  100
AcDbEntity
8
buildings
  100
AcDbSubDMesh
71
2
72
0
91
0
92
8
10
89.7476
20
116.0085
30
6.4769
10
98.0812
20
116.0300
30
6.4769
10
98.0564
20
126.8684
30
6.4769
10
89.7228
20
126.8468
30
6.4769
10
89.7476
20
116.0085
30
3.4769
10
98.0812
20
116.0300
30
3.4769
10
98.0564
20
126.8684
30
3.4769
10
89.7228
20
126.8468
30
3.4769
93
36
90
3
90
3
90
0
90
1
90
3
90
7
90
5
90
4
90
3
90
1
90
2
90
3
90
3
90
5
90
7
90
6
90
4
90
1
90
0
90
4
90
5
90
4
90
2
90
1
90
5
90
6
90
4
90
3
90
2
90
6
90
7
90
4
90
0
90
3
90
7
90
4
94
0
95
0
  0
MESH
  5
1674
330
1F
  100
AcDbEntity
8
buildings
  100
AcDbSubDMesh
71
2
72
0
91
0
92
8
10
120.0909
20
115.7688
30
6.1241
10
130.9722
20
116.1921
30
6.1241
10
130.3870
20
131.0232
30
6.1241
10
119.5057
20
130.5906
30
6.1241
10
120.0909
20
115.7688
30
3.1241
10
130.9722
20
116.1921
30
3.1241
10
130.3870
20
131.0232
30
3.1241
10
119.5057
20
130.5906
30
3.1241
93
36
90
3
90
3
90
0
90
2
90
3
90
7
90
6
90
4
90
3
90
1
90
2
90
0
90
3
90
5
90
4
90
6
90
4
90
1
90
0
90
4
90
5
90
4
90
2
90
1
90
5
90
6
90
4
90
3
90
2
90
6
90
7
90
4
90
0
90
3
90
7
90
4
94
0
95
0
  0
MESH
  5
1675
330
1F
  100
AcDbEntity
8
buildings
  100
AcDbSubDMesh
71
2
72
0
91
0
92
8
10
210.8336
20
114.7537
30
4.9594
10
219.7469
20
114.8760
30
4.9594
10
219.5540
20
129.3803
30
4.9594
10
210.6408
20
129.2673
30
4.9594
10
210.8336
20
114.7537
30
1.9594
10
219.7469
20
114.8760
30
1.9594
10
219.5540
20
129.3803
30
1.9594
10
210.6408
20
129.2673
30
1.9594
93
36
90
3
90
3
90
0
90
2
90
3
90
7
90
6
90
4
90
3
90
1
90
2
90
0
90
3
90
5
90
4
90
6
90
4
90
1
90
0
90
4
90
5
90
4
90
2
90
1
90
5
90
6
90
4
90
3
90
2
90
6
90
7
90
4
90
0
90
3
90
7
90
4
94
0
95
0
  0
MESH
  5
1676
330
1F
  100
AcDbEntity
8
buildings
  100
AcDbSubDMesh
71
2
72
0
91
0
92
8
10
372.7461
20
114.5429
30
3.3274
10
388.3693
20
114.7107
30
3.3274
10
388.0227
20
147.4962
30
3.3274
10
372.3996
20
147.3285
30
3.3274
10
372.7461
20
114.5429
30
0.3274
10
388.3693
20
114.7107
30
0.3274
10
388.0227
20
147.4962
30
0.3274
10
372.3996
20
147.3285
30
0.3274
93
36
90
3
90
3
90
0
90
1
90
3
90
7
90
5
90
4
90
3
90
1
90
2
90
3
90
3
90
5
90
7
90
6
90
4
90
1
90
0
90
4
90
5
90
4
90
2
90
1
90
5
90
6
90
4
90
3
90
2
90
6
90
7
90
4
90
0
90
3
90
7
90
4
94
0
95
0
0
POLYLINE
  5
1677
330
1F
  100
AcDbEntity
8
paths
  100
AcDb3dPolyline
70
8
10
0.0000
20
0.0000
30
0.0000
0
VERTEX
  5
1678
330
1F
  100
AcDbEntity
8
paths
100
AcDbVertex
100
AcDb3dPolylineVertex
10
73.5319
20
0.9923
30
3.5851
70
32
0
VERTEX
  5
1679
330
1F
  100
AcDbEntity
8
paths
100
AcDbVertex
100
AcDb3dPolylineVertex
10
73.5054
20
2.3439
30
3.5866
70
32
0
VERTEX
  5
167a
330
1F
  100
AcDbEntity
8
paths
100
AcDbVertex
100
AcDb3dPolylineVertex
10
73.4728
20
10.5587
30
3.5958
70
32
0
VERTEX
  5
167b
330
1F
  100
AcDbEntity
8
paths
100
AcDbVertex
100
AcDb3dPolylineVertex
10
73.5287
20
19.6943
30
3.6055
70
32
0
SEQEND
  5
167c
  100
AcDbEntity
0
POLYLINE
  5
167d
330
1F
  100
AcDbEntity
8
minor_roads
  100
AcDb3dPolyline
70
8
10
0.0000
20
0.0000
30
0.0000
0
VERTEX
  5
167e
330
1F
  100
AcDbEntity
8
minor_roads
100
AcDbVertex
100
AcDb3dPolylineVertex
10
22.7027
20
1.1437
30
3.8000
70
32
0
VERTEX
  5
167f
330
1F
  100
AcDbEntity
8
minor_roads
100
AcDbVertex
100
AcDb3dPolylineVertex
10
22.5125
20
10.5535
30
3.8594
70
32
0
SEQEND
  5
1680
  100
AcDbEntity
0
POLYLINE
  5
1681
330
1F
  100
AcDbEntity
8
paths
  100
AcDb3dPolyline
70
8
10
0.0000
20
0.0000
30
0.0000
0
VERTEX
  5
1682
330
1F
  100
AcDbEntity
8
paths
100
AcDbVertex
100
AcDb3dPolylineVertex
10
73.5287
20
19.6943
30
3.6055
70
32
0
VERTEX
  5
1683
330
1F
  100
AcDbEntity
8
paths
100
AcDbVertex
100
AcDb3dPolylineVertex
10
60.0000
20
19.8047
30
3.7019
70
32
0
VERTEX
  5
1684
330
1F
  100
AcDbEntity
8
paths
100
AcDbVertex
100
AcDb3dPolylineVertex
10
30.0000
20
20.0493
30
3.8562
70
32
0
VERTEX
  5
1685
330
1F
  100
AcDbEntity
8
paths
100
AcDbVertex
100
AcDb3dPolylineVertex
10
6.7471
20
20.2390
30
4.0465
70
32
0
SEQEND
  5
1686
  100
AcDbEntity
  0
MESH
  5
1687
330
1F
  100
AcDbEntity
8
buildings
  100
AcDbSubDMesh
71
2
72
0
91
0
92
28
10
152.3278
20
26.2778
30
5.4157
10
160.1108
20
26.3290
30
5.4157
10
160.1103
20
26.1802
30
5.4157
10
176.1626
20
26.2625
30
5.4157
10
176.1596
20
27.6394
30
5.4157
10
176.5029
20
27.6384
30
5.4157
10
176.4160
20
44.0588
30
5.4157
10
167.6244
20
44.0106
30
5.4157
10
167.6607
20
36.9680
30
5.4157
10
163.1326
20
36.9536
30
5.4157
10
163.0957
20
43.7544
30
5.4157
10
156.8006
20
43.7173
30
5.4157
10
156.8287
20
38.7400
30
5.4157
10
152.2648
20
38.7164
30
5.4157
10
152.3278
20
26.2778
30
2.4157
10
160.1108
20
26.3290
30
2.4157
10
160.1103
20
26.1802
30
2.4157
10
176.1626
20
26.2625
30
2.4157
10
176.1596
20
27.6394
30
2.4157
10
176.5029
20
27.6384
30
2.4157
10
176.4160
20
44.0588
30
2.4157
10
167.6244
20
44.0106
30
2.4157
10
167.6607
20
36.9680
30
2.4157
10
163.1326
20
36.9536
30
2.4157
10
163.0957
20
43.7544
30
2.4157
10
156.8006
20
43.7173
30
2.4157
10
156.8287
20
38.7400
30
2.4157
10
152.2648
20
38.7164
30
2.4157
93
166
90
3
90
9
90
12
90
1
90
3
90
23
90
15
90
26
90
3
90
0
90
1
90
12
90
3
90
14
90
26
90
15
90
3
90
12
90
10
90
11
90
3
90
26
90
25
90
24
90
3
90
9
90
10
90
12
90
3
90
23
90
26
90
24
90
3
90
13
90
0
90
12
90
3
90
27
90
26
90
14
90
3
90
1
90
2
90
3
90
3
90
15
90
17
90
16
90
3
90
4
90
8
90
1
90
3
90
18
90
15
90
22
90
3
90
4
90
5
90
6
90
3
90
18
90
20
90
19
90
3
90
8
90
6
90
7
90
3
90
22
90
21
90
20
90
3
90
6
90
8
90
4
90
3
90
20
90
18
90
22
90
3
90
1
90
8
90
9
90
3
90
15
90
23
90
22
90
3
90
1
90
3
90
4
90
3
90
15
90
18
90
17
90
4
90
1
90
0
90
14
90
15
90
4
90
2
90
1
90
15
90
16
90
4
90
3
90
2
90
16
90
17
90
4
90
4
90
3
90
17
90
18
90
4
90
5
90
4
90
18
90
19
90
4
90
6
90
5
90
19
90
20
90
4
90
7
90
6
90
20
90
21
90
4
90
8
90
7
90
21
90
22
90
4
90
9
90
8
90
22
90
23
90
4
90
10
90
9
90
23
90
24
90
4
90
11
90
10
90
24
90
25
90
4
90
12
90
11
90
25
90
26
90
4
90
13
90
12
90
26
90
27
90
4
90
0
90
13
90
27
90
14
94
0
95
0
  0
MESH
  5
1688
330
1F
  100
AcDbEntity
8
buildings
  100
AcDbSubDMesh
71
2
72
0
91
0
92
8
10
113.6411
20
37.6876
30
6.1422
10
118.7196
20
37.5794
30
6.1422
10
118.8365
20
45.5705
30
6.1422
10
113.4143
20
45.5588
30
6.1422
10
113.6411
20
37.6876
30
3.1422
10
118.7196
20
37.5794
30
3.1422
10
118.8365
20
45.5705
30
3.1422
10
113.4143
20
45.5588
30
3.1422
93
36
90
3
90
3
90
0
90
2
90
3
90
7
90
6
90
4
90
3
90
1
90
2
90
0
90
3
90
5
90
4
90
6
90
4
90
1
90
0
90
4
90
5
90
4
90
2
90
1
90
5
90
6
90
4
90
3
90
2
90
6
90
7
90
4
90
0
90
3
90
7
90
4
94
0
95
0
  0
MESH
  5
1689
330
1F
  100
AcDbEntity
8
buildings
  100
AcDbSubDMesh
71
2
72
0
91
0
92
8
10
61.2371
20
166.8616
30
6.3398
10
71.1371
20
166.8598
30
6.3398
10
71.1242
20
181.6334
30
6.3398
10
61.2314
20
181.6351
30
6.3398
10
61.2371
20
166.8616
30
3.3398
10
71.1371
20
166.8598
30
3.3398
10
71.1242
20
181.6334
30
3.3398
10
61.2314
20
181.6351
30
3.3398
93
36
90
3
90
3
90
0
90
2
90
3
90
7
90
6
90
4
90
3
90
1
90
2
90
0
90
3
90
5
90
4
90
6
90
4
90
1
90
0
90
4
90
5
90
4
90
2
90
1
90
5
90
6
90
4
90
3
90
2
90
6
90
7
90
4
90
0
90
3
90
7
90
4
94
0
95
0
  0
MESH
  5
168a
330
1F
  100
AcDbEntity
8
buildings
  100
AcDbSubDMesh
71
2
72
0
91
0
92
8
10
95.5711
20
137.7792
30
6.3282
10
102.0886
20
138.0853
30
6.3282
10
101.7587
20
144.9520
30
6.3282
10
95.2412
20
144.6459
30
6.3282
10
95.5711
20
137.7792
30
3.3282
10
102.0886
20
138.0853
30
3.3282
10
101.7587
20
144.9520
30
3.3282
10
95.2412
20
144.6459
30
3.3282
93
36
90
3
90
3
90
0
90
2
90
3
90
7
90
6
90
4
90
3
90
1
90
2
90
0
90
3
90
5
90
4
90
6
90
4
90
1
90
0
90
4
90
5
90
4
90
2
90
1
90
5
90
6
90
4
90
3
90
2
90
6
90
7
90
4
90
0
90
3
90
7
90
4
94
0
95
0
  0
MESH
  5
168b
330
1F
  100
AcDbEntity
8
buildings
  100
AcDbSubDMesh
71
2
72
0
91
0
92
8
10
131.6387
20
150.1190
30
5.9925
10
131.7791
20
163.5989
30
5.9925
10
121.8580
20
163.6937
30
5.9925
10
121.7104
20
150.2324
30
5.9925
10
131.6387
20
150.1190
30
2.9925
10
131.7791
20
163.5989
30
2.9925
10
121.8580
20
163.6937
30
2.9925
10
121.7104
20
150.2324
30
2.9925
93
36
90
3
90
2
90
3
90
0
90
3
90
6
90
4
90
7
90
3
90
0
90
1
90
2
90
3
90
4
90
6
90
5
90
4
90
1
90
0
90
4
90
5
90
4
90
2
90
1
90
5
90
6
90
4
90
3
90
2
90
6
90
7
90
4
90
0
90
3
90
7
90
4
94
0
95
0
  0
MESH
  5
168c
330
1F
  100
AcDbEntity
8
buildings
  100
AcDbSubDMesh
71
2
72
0
91
0
92
8
10
195.7046
20
76.3765
30
5.0812
10
204.8397
20
76.5167
30
5.0812
10
204.6401
20
88.7511
30
5.0812
10
195.5122
20
88.6108
30
5.0812
10
195.7046
20
76.3765
30
2.0812
10
204.8397
20
76.5167
30
2.0812
10
204.6401
20
88.7511
30
2.0812
10
195.5122
20
88.6108
30
2.0812
93
36
90
3
90
3
90
0
90
2
90
3
90
7
90
6
90
4
90
3
90
1
90
2
90
0
90
3
90
5
90
4
90
6
90
4
90
1
90
0
90
4
90
5
90
4
90
2
90
1
90
5
90
6
90
4
90
3
90
2
90
6
90
7
90
4
90
0
90
3
90
7
90
4
94
0
95
0
  0
MESH
  5
168d
330
1F
  100
AcDbEntity
8
buildings
  100
AcDbSubDMesh
71
2
72
0
91
0
92
8
10
92.8559
20
208.0545
30
6.0096
10
124.6391
20
208.6572
30
6.0096
10
124.2665
20
227.5810
30
6.0096
10
92.4834
20
226.9784
30
6.0096
10
92.8559
20
208.0545
30
3.0096
10
124.6391
20
208.6572
30
3.0096
10
124.2665
20
227.5810
30
3.0096
10
92.4834
20
226.9784
30
3.0096
93
36
90
3
90
3
90
0
90
2
90
3
90
7
90
6
90
4
90
3
90
1
90
2
90
0
90
3
90
5
90
4
90
6
90
4
90
1
90
0
90
4
90
5
90
4
90
2
90
1
90
5
90
6
90
4
90
3
90
2
90
6
90
7
90
4
90
0
90
3
90
7
90
4
94
0
95
0
0
POLYLINE
  5
168e
330
1F
  100
AcDbEntity
8
minor_roads
  100
AcDb3dPolyline
70
8
10
0.0000
20
0.0000
30
0.0000
0
VERTEX
  5
168f
330
1F
  100
AcDbEntity
8
minor_roads
100
AcDbVertex
100
AcDb3dPolylineVertex
10
406.2611
20
120.1281
30
0.1584
70
32
0
VERTEX
  5
1690
330
1F
  100
AcDbEntity
8
minor_roads
100
AcDbVertex
100
AcDb3dPolylineVertex
10
406.3645
20
120.0000
30
0.1566
70
32
0
VERTEX
  5
1691
330
1F
  100
AcDbEntity
8
minor_roads
100
AcDbVertex
100
AcDb3dPolylineVertex
10
406.8868
20
119.3524
30
0.1498
70
32
0
SEQEND
  5
1692
  100
AcDbEntity
  0
MESH
  5
1693
330
1F
  100
AcDbEntity
8
buildings
  100
AcDbSubDMesh
71
2
72
0
91
0
92
8
10
331.6657
20
165.4322
30
4.3162
10
341.2012
20
165.5249
30
4.3162
10
341.0848
20
176.9309
30
4.3162
10
331.5422
20
176.8383
30
4.3162
10
331.6657
20
165.4322
30
1.3162
10
341.2012
20
165.5249
30
1.3162
10
341.0848
20
176.9309
30
1.3162
10
331.5422
20
176.8383
30
1.3162
93
36
90
3
90
3
90
0
90
2
90
3
90
7
90
6
90
4
90
3
90
1
90
2
90
0
90
3
90
5
90
4
90
6
90
4
90
1
90
0
90
4
90
5
90
4
90
2
90
1
90
5
90
6
90
4
90
3
90
2
90
6
90
7
90
4
90
0
90
3
90
7
90
4
94
0
95
0
  0
MESH
  5
1694
330
1F
  100
AcDbEntity
8
buildings
  100
AcDbSubDMesh
71
2
72
0
91
0
92
8
10
241.0801
20
221.4646
30
4.9852
10
249.0206
20
221.6177
30
4.9852
10
248.6870
20
239.3321
30
4.9852
10
240.7394
20
239.1789
30
4.9852
10
241.0801
20
221.4646
30
1.9852
10
249.0206
20
221.6177
30
1.9852
10
248.6870
20
239.3321
30
1.9852
10
240.7394
20
239.1789
30
1.9852
93
36
90
3
90
3
90
0
90
1
90
3
90
7
90
5
90
4
90
3
90
1
90
2
90
3
90
3
90
5
90
7
90
6
90
4
90
1
90
0
90
4
90
5
90
4
90
2
90
1
90
5
90
6
90
4
90
3
90
2
90
6
90
7
90
4
90
0
90
3
90
7
90
4
94
0
95
0
0
POLYLINE
  5
1695
330
1F
  100
AcDbEntity
8
paths
  100
AcDb3dPolyline
70
8
10
0.0000
20
0.0000
30
0.0000
0
VERTEX
  5
1696
330
1F
  100
AcDbEntity
8
paths
100
AcDbVertex
100
AcDb3dPolylineVertex
10
398.5273
20
298.9030
30
0.4811
70
32
0
VERTEX
  5
1697
330
1F
  100
AcDbEntity
8
paths
100
AcDbVertex
100
AcDb3dPolylineVertex
10
398.6512
20
280.2869
30
0.4797
70
32
0
VERTEX
  5
1698
330
1F
  100
AcDbEntity
8
paths
100
AcDbVertex
100
AcDb3dPolylineVertex
10
401.7299
20
278.8358
30
0.4620
70
32
0
VERTEX
  5
1699
330
1F
  100
AcDbEntity
8
paths
100
AcDbVertex
100
AcDb3dPolylineVertex
10
401.8140
20
270.0000
30
0.4612
70
32
0
VERTEX
  5
169a
330
1F
  100
AcDbEntity
8
paths
100
AcDbVertex
100
AcDb3dPolylineVertex
10
401.8819
20
262.8789
30
0.4477
70
32
0
VERTEX
  5
169b
330
1F
  100
AcDbEntity
8
paths
100
AcDbVertex
100
AcDb3dPolylineVertex
10
401.7157
20
249.8191
30
0.4252
70
32
0
VERTEX
  5
169c
330
1F
  100
AcDbEntity
8
paths
100
AcDbVertex
100
AcDb3dPolylineVertex
10
401.7152
20
240.0000
30
0.4075
70
32
0
VERTEX
  5
169d
330
1F
  100
AcDbEntity
8
paths
100
AcDbVertex
100
AcDb3dPolylineVertex
10
401.7136
20
210.0000
30
0.3713
70
32
0
VERTEX
  5
169e
330
1F
  100
AcDbEntity
8
paths
100
AcDbVertex
100
AcDb3dPolylineVertex
10
401.7133
20
205.4334
30
0.3761
70
32
0
VERTEX
  5
169f
330
1F
  100
AcDbEntity
8
paths
100
AcDbVertex
100
AcDb3dPolylineVertex
10
399.7360
20
201.9785
30
0.4069
70
32
0
VERTEX
  5
16a0
330
1F
  100
AcDbEntity
8
paths
100
AcDbVertex
100
AcDb3dPolylineVertex
10
390.0000
20
201.8683
30
0.5410
70
32
0
VERTEX
  5
16a1
330
1F
  100
AcDbEntity
8
paths
100
AcDbVertex
100
AcDb3dPolylineVertex
10
367.1381
20
201.6097
30
0.7769
70
32
0
VERTEX
  5
16a2
330
1F
  100
AcDbEntity
8
paths
100
AcDbVertex
100
AcDb3dPolylineVertex
10
360.0000
20
201.6609
30
0.8499
70
32
0
VERTEX
  5
16a3
330
1F
  100
AcDbEntity
8
paths
100
AcDbVertex
100
AcDb3dPolylineVertex
10
330.0000
20
201.8763
30
1.2150
70
32
0
VERTEX
  5
16a4
330
1F
  100
AcDbEntity
8
paths
100
AcDbVertex
100
AcDb3dPolylineVertex
10
300.0000
20
202.0916
30
1.4171
70
32
0
VERTEX
  5
16a5
330
1F
  100
AcDbEntity
8
paths
100
AcDbVertex
100
AcDb3dPolylineVertex
10
287.6612
20
202.1801
30
1.5215
70
32
0
VERTEX
  5
16a6
330
1F
  100
AcDbEntity
8
paths
100
AcDbVertex
100
AcDb3dPolylineVertex
10
283.8507
20
198.0608
30
1.5824
70
32
0
SEQEND
  5
16a7
  100
AcDbEntity
0
POLYLINE
  5
16a8
330
1F
  100
AcDbEntity
8
minor_roads
  100
AcDb3dPolyline
70
8
10
0.0000
20
0.0000
30
0.0000
0
VERTEX
  5
16a9
330
1F
  100
AcDbEntity
8
minor_roads
100
AcDbVertex
100
AcDb3dPolylineVertex
10
0.2908
20
97.9450
30
4.4308
70
32
0
VERTEX
  5
16aa
330
1F
  100
AcDbEntity
8
minor_roads
100
AcDbVertex
100
AcDb3dPolylineVertex
10
3.1094
20
95.1222
30
4.4044
70
32
0
SEQEND
  5
16ab
  100
AcDbEntity
0
POLYLINE
  5
16ac
330
1F
  100
AcDbEntity
8
major_roads
  100
AcDb3dPolyline
70
8
10
0.0000
20
0.0000
30
0.0000
0
VERTEX
  5
16ad
330
1F
  100
AcDbEntity
8
major_roads
100
AcDbVertex
100
AcDb3dPolylineVertex
10
142.1131
20
313.6290
30
3.0759
70
32
0
VERTEX
  5
16ae
330
1F
  100
AcDbEntity
8
major_roads
100
AcDbVertex
100
AcDb3dPolylineVertex
10
120.0000
20
313.5133
30
3.3094
70
32
0
VERTEX
  5
16af
330
1F
  100
AcDbEntity
8
major_roads
100
AcDbVertex
100
AcDb3dPolylineVertex
10
90.0000
20
313.3564
30
3.7219
70
32
0
VERTEX
  5
16b0
330
1F
  100
AcDbEntity
8
major_roads
100
AcDbVertex
100
AcDb3dPolylineVertex
10
60.0000
20
313.1995
30
4.1216
70
32
0
VERTEX
  5
16b1
330
1F
  100
AcDbEntity
8
major_roads
100
AcDbVertex
100
AcDb3dPolylineVertex
10
50.4956
20
313.1497
30
4.2244
70
32
0
SEQEND
  5
16b2
  100
AcDbEntity
0
POLYLINE
  5
16b3
330
1F
  100
AcDbEntity
8
major_roads
  100
AcDb3dPolyline
70
8
10
0.0000
20
0.0000
30
0.0000
0
VERTEX
  5
16b4
330
1F
  100
AcDbEntity
8
major_roads
100
AcDbVertex
100
AcDb3dPolylineVertex
10
6.8403
20
313.0390
30
4.6997
70
32
0
VERTEX
  5
16b5
330
1F
  100
AcDbEntity
8
major_roads
100
AcDbVertex
100
AcDb3dPolylineVertex
10
0.9375
20
313.0234
30
4.7644
70
32
0
SEQEND
  5
16b6
  100
AcDbEntity
0
POLYLINE
  5
16b7
330
1F
  100
AcDbEntity
8
minor_roads
  100
AcDb3dPolyline
70
8
10
0.0000
20
0.0000
30
0.0000
0
VERTEX
  5
16b8
330
1F
  100
AcDbEntity
8
minor_roads
100
AcDbVertex
100
AcDb3dPolylineVertex
10
394.8542
20
271.0600
30
0.5013
70
32
0
VERTEX
  5
16b9
330
1F
  100
AcDbEntity
8
minor_roads
100
AcDbVertex
100
AcDb3dPolylineVertex
10
394.8593
20
270.0000
30
0.5012
70
32
0
VERTEX
  5
16ba
330
1F
  100
AcDbEntity
8
minor_roads
100
AcDbVertex
100
AcDb3dPolylineVertex
10
394.8941
20
262.7521
30
0.4945
70
32
0
VERTEX
  5
16bb
330
1F
  100
AcDbEntity
8
minor_roads
100
AcDbVertex
100
AcDb3dPolylineVertex
10
394.9701
20
249.7460
30
0.4823
70
32
0
SEQEND
  5
16bc
  100
AcDbEntity
0
POLYLINE
  5
16bd
330
1F
  100
AcDbEntity
8
minor_roads
  100
AcDb3dPolyline
70
8
10
0.0000
20
0.0000
30
0.0000
0
VERTEX
  5
16be
330
1F
  100
AcDbEntity
8
minor_roads
100
AcDbVertex
100
AcDb3dPolylineVertex
10
394.4530
20
193.3793
30
0.4953
70
32
0
VERTEX
  5
16bf
330
1F
  100
AcDbEntity
8
minor_roads
100
AcDbVertex
100
AcDb3dPolylineVertex
10
394.3448
20
180.0000
30
0.5216
70
32
0
VERTEX
  5
16c0
330
1F
  100
AcDbEntity
8
minor_roads
100
AcDbVertex
100
AcDb3dPolylineVertex
10
394.1036
20
150.1762
30
0.5158
70
32
0
VERTEX
  5
16c1
330
1F
  100
AcDbEntity
8
minor_roads
100
AcDbVertex
100
AcDb3dPolylineVertex
10
394.1022
20
150.0000
30
0.5158
70
32
0
VERTEX
  5
16c2
330
1F
  100
AcDbEntity
8
minor_roads
100
AcDbVertex
100
AcDb3dPolylineVertex
10
393.8620
20
120.0000
30
0.3002
70
32
0
VERTEX
  5
16c3
330
1F
  100
AcDbEntity
8
minor_roads
100
AcDbVertex
100
AcDb3dPolylineVertex
10
393.7295
20
103.4566
30
0.2075
70
32
0
SEQEND
  5
16c4
  100
AcDbEntity
0
POLYLINE
  5
16c5
330
1F
  100
AcDbEntity
8
major_roads
  100
AcDb3dPolyline
70
8
10
0.0000
20
0.0000
30
0.0000
0
VERTEX
  5
16c6
330
1F
  100
AcDbEntity
8
major_roads
100
AcDbVertex
100
AcDb3dPolylineVertex
10
406.7552
20
146.9385
30
0.2726
70
32
0
VERTEX
  5
16c7
330
1F
  100
AcDbEntity
8
major_roads
100
AcDbVertex
100
AcDb3dPolylineVertex
10
406.2611
20
120.1281
30
0.1584
70
32
0
SEQEND
  5
16c8
  100
AcDbEntity
0
MESH
  5
16c9
330
1F
  100
AcDbEntity
8
topography
  100
AcDbSubDMesh
71
2
72
0
91
0
92
180
10
0.0000
20
0.0000
30
4.0576
10
30.0000
20
0.0000
30
3.7079
10
60.0000
20
0.0000
30
3.6057
10
90.0000
20
0.0000
30
3.5576
10
120.0000
20
0.0000
30
3.3795
10
150.0000
20
0.0000
30
2.9608
10
180.0000
20
0.0000
30
2.5160
10
210.0000
20
0.0000
30
2.0251
10
240.0000
20
0.0000
30
1.6718
10
270.0000
20
0.0000
30
1.6055
10
300.0000
20
0.0000
30
1.3815
10
330.0000
20
0.0000
30
0.8091
10
360.0000
20
0.0000
30
0.6467
10
390.0000
20
0.0000
30
0.5465
10
420.0000
20
0.0000
30
0.3300
10
0.0000
20
30.0000
30
4.1224
10
30.0000
20
30.0000
30
3.9298
10
60.0000
20
30.0000
30
3.7513
10
90.0000
20
30.0000
30
3.4529
10
120.0000
20
30.0000
30
3.1969
10
150.0000
20
30.0000
30
2.7926
10
180.0000
20
30.0000
30
2.3512
10
210.0000
20
30.0000
30
1.9203
10
240.0000
20
30.0000
30
1.5023
10
270.0000
20
30.0000
30
1.2181
10
300.0000
20
30.0000
30
0.9574
10
330.0000
20
30.0000
30
0.6162
10
360.0000
20
30.0000
30
0.3756
10
390.0000
20
30.0000
30
0.2847
10
420.0000
20
30.0000
30
0.2632
10
0.0000
20
60.0000
30
4.2362
10
30.0000
20
60.0000
30
4.1417
10
60.0000
20
60.0000
30
3.8866
10
90.0000
20
60.0000
30
3.3569
10
120.0000
20
60.0000
30
3.0712
10
150.0000
20
60.0000
30
2.8870
10
180.0000
20
60.0000
30
2.5706
10
210.0000
20
60.0000
30
1.9730
10
240.0000
20
60.0000
30
1.5476
10
270.0000
20
60.0000
30
1.2322
10
300.0000
20
60.0000
30
0.9381
10
330.0000
20
60.0000
30
0.7162
10
360.0000
20
60.0000
30
0.3065
10
390.0000
20
60.0000
30
0.1390
10
420.0000
20
60.0000
30
0.2148
10
0.0000
20
90.0000
30
4.4100
10
30.0000
20
90.0000
30
4.2219
10
60.0000
20
90.0000
30
3.8981
10
90.0000
20
90.0000
30
3.4827
10
120.0000
20
90.0000
30
3.1987
10
150.0000
20
90.0000
30
3.0143
10
180.0000
20
90.0000
30
2.6713
10
210.0000
20
90.0000
30
1.9639
10
240.0000
20
90.0000
30
1.5798
10
270.0000
20
90.0000
30
1.3330
10
300.0000
20
90.0000
30
1.1025
10
330.0000
20
90.0000
30
0.8528
10
360.0000
20
90.0000
30
0.4006
10
390.0000
20
90.0000
30
0.1354
10
420.0000
20
90.0000
30
0.0983
10
0.0000
20
120.0000
30
4.4957
10
30.0000
20
120.0000
30
4.2637
10
60.0000
20
120.0000
30
3.9481
10
90.0000
20
120.0000
30
3.6111
10
120.0000
20
120.0000
30
3.2777
10
150.0000
20
120.0000
30
2.9629
10
180.0000
20
120.0000
30
2.5500
10
210.0000
20
120.0000
30
2.0417
10
240.0000
20
120.0000
30
1.8644
10
270.0000
20
120.0000
30
1.6244
10
300.0000
20
120.0000
30
1.4373
10
330.0000
20
120.0000
30
1.1349
10
360.0000
20
120.0000
30
0.7274
10
390.0000
20
120.0000
30
0.3446
10
420.0000
20
120.0000
30
0.0000
10
0.0000
20
150.0000
30
4.3755
10
30.0000
20
150.0000
30
3.9927
10
60.0000
20
150.0000
30
3.6305
10
90.0000
20
150.0000
30
3.3899
10
120.0000
20
150.0000
30
3.1538
10
150.0000
20
150.0000
30
2.8459
10
180.0000
20
150.0000
30
2.4456
10
210.0000
20
150.0000
30
2.1494
10
240.0000
20
150.0000
30
2.1129
10
270.0000
20
150.0000
30
1.8070
10
300.0000
20
150.0000
30
1.7319
10
330.0000
20
150.0000
30
1.5309
10
360.0000
20
150.0000
30
1.0820
10
390.0000
20
150.0000
30
0.5902
10
420.0000
20
150.0000
30
0.0460
10
0.0000
20
180.0000
30
4.3087
10
30.0000
20
180.0000
30
3.7686
10
60.0000
20
180.0000
30
3.3860
10
90.0000
20
180.0000
30
3.2263
10
120.0000
20
180.0000
30
3.0660
10
150.0000
20
180.0000
30
2.7543
10
180.0000
20
180.0000
30
2.4615
10
210.0000
20
180.0000
30
2.2610
10
240.0000
20
180.0000
30
2.1183
10
270.0000
20
180.0000
30
1.7682
10
300.0000
20
180.0000
30
1.6353
10
330.0000
20
180.0000
30
1.4799
10
360.0000
20
180.0000
30
1.0219
10
390.0000
20
180.0000
30
0.5917
10
420.0000
20
180.0000
30
0.1077
10
0.0000
20
210.0000
30
4.2974
10
30.0000
20
210.0000
30
3.9045
10
60.0000
20
210.0000
30
3.6467
10
90.0000
20
210.0000
30
3.4303
10
120.0000
20
210.0000
30
3.0702
10
150.0000
20
210.0000
30
2.6760
10
180.0000
20
210.0000
30
2.5396
10
210.0000
20
210.0000
30
2.4033
10
240.0000
20
210.0000
30
2.0577
10
270.0000
20
210.0000
30
1.6384
10
300.0000
20
210.0000
30
1.3390
10
330.0000
20
210.0000
30
1.1167
10
360.0000
20
210.0000
30
0.7837
10
390.0000
20
210.0000
30
0.5222
10
420.0000
20
210.0000
30
0.1356
10
0.0000
20
240.0000
30
4.3385
10
30.0000
20
240.0000
30
4.1558
10
60.0000
20
240.0000
30
3.9042
10
90.0000
20
240.0000
30
3.6556
10
120.0000
20
240.0000
30
3.1892
10
150.0000
20
240.0000
30
2.7944
10
180.0000
20
240.0000
30
2.7301
10
210.0000
20
240.0000
30
2.7091
10
240.0000
20
240.0000
30
2.2296
10
270.0000
20
240.0000
30
1.6989
10
300.0000
20
240.0000
30
1.3502
10
330.0000
20
240.0000
30
1.0771
10
360.0000
20
240.0000
30
0.7266
10
390.0000
20
240.0000
30
0.5222
10
420.0000
20
240.0000
30
0.2284
10
0.0000
20
270.0000
30
4.6051
10
30.0000
20
270.0000
30
4.4043
10
60.0000
20
270.0000
30
4.0869
10
90.0000
20
270.0000
30
3.5488
10
120.0000
20
270.0000
30
3.0530
10
150.0000
20
270.0000
30
2.8365
10
180.0000
20
270.0000
30
2.6017
10
210.0000
20
270.0000
30
2.5183
10
240.0000
20
270.0000
30
2.3029
10
270.0000
20
270.0000
30
1.7963
10
300.0000
20
270.0000
30
1.4595
10
330.0000
20
270.0000
30
1.1071
10
360.0000
20
270.0000
30
0.7882
10
390.0000
20
270.0000
30
0.5292
10
420.0000
20
270.0000
30
0.3564
10
0.0000
20
300.0000
30
4.7892
10
30.0000
20
300.0000
30
4.4938
10
60.0000
20
300.0000
30
4.1599
10
90.0000
20
300.0000
30
3.7030
10
120.0000
20
300.0000
30
3.3046
10
150.0000
20
300.0000
30
2.9865
10
180.0000
20
300.0000
30
2.7466
10
210.0000
20
300.0000
30
2.4934
10
240.0000
20
300.0000
30
2.2488
10
270.0000
20
300.0000
30
1.8433
10
300.0000
20
300.0000
30
1.5724
10
330.0000
20
300.0000
30
1.1010
10
360.0000
20
300.0000
30
0.7881
10
390.0000
20
300.0000
30
0.5298
10
420.0000
20
300.0000
30
0.3586
10
0.0000
20
330.0000
30
4.7557
10
30.0000
20
330.0000
30
4.3842
10
60.0000
20
330.0000
30
4.0729
10
90.0000
20
330.0000
30
3.7455
10
120.0000
20
330.0000
30
3.3153
10
150.0000
20
330.0000
30
3.0000
10
180.0000
20
330.0000
30
2.8245
10
210.0000
20
330.0000
30
2.3832
10
240.0000
20
330.0000
30
2.1980
10
270.0000
20
330.0000
30
1.8458
10
300.0000
20
330.0000
30
1.4695
10
330.0000
20
330.0000
30
1.1547
10
360.0000
20
330.0000
30
0.7294
10
390.0000
20
330.0000
30
0.4064
10
420.0000
20
330.0000
30
0.1743
93
770
90
4
90
0
90
1
90
16
90
15
90
4
90
1
90
2
90
17
90
16
90
4
90
2
90
3
90
18
90
17
90
4
90
3
90
4
90
19
90
18
90
4
90
4
90
5
90
20
90
19
90
4
90
5
90
6
90
21
90
20
90
4
90
6
90
7
90
22
90
21
90
4
90
7
90
8
90
23
90
22
90
4
90
8
90
9
90
24
90
23
90
4
90
9
90
10
90
25
90
24
90
4
90
10
90
11
90
26
90
25
90
4
90
11
90
12
90
27
90
26
90
4
90
12
90
13
90
28
90
27
90
4
90
13
90
14
90
29
90
28
90
4
90
15
90
16
90
31
90
30
90
4
90
16
90
17
90
32
90
31
90
4
90
17
90
18
90
33
90
32
90
4
90
18
90
19
90
34
90
33
90
4
90
19
90
20
90
35
90
34
90
4
90
20
90
21
90
36
90
35
90
4
90
21
90
22
90
37
90
36
90
4
90
22
90
23
90
38
90
37
90
4
90
23
90
24
90
39
90
38
90
4
90
24
90
25
90
40
90
39
90
4
90
25
90
26
90
41
90
40
90
4
90
26
90
27
90
42
90
41
90
4
90
27
90
28
90
43
90
42
90
4
90
28
90
29
90
44
90
43
90
4
90
30
90
31
90
46
90
45
90
4
90
31
90
32
90
47
90
46
90
4
90
32
90
33
90
48
90
47
90
4
90
33
90
34
90
49
90
48
90
4
90
34
90
35
90
50
90
49
90
4
90
35
90
36
90
51
90
50
90
4
90
36
90
37
90
52
90
51
90
4
90
37
90
38
90
53
90
52
90
4
90
38
90
39
90
54
90
53
90
4
90
39
90
40
90
55
90
54
90
4
90
40
90
41
90
56
90
55
90
4
90
41
90
42
90
57
90
56
90
4
90
42
90
43
90
58
90
57
90
4
90
43
90
44
90
59
90
58
90
4
90
45
90
46
90
61
90
60
90
4
90
46
90
47
90
62
90
61
90
4
90
47
90
48
90
63
90
62
90
4
90
48
90
49
90
64
90
63
90
4
90
49
90
50
90
65
90
64
90
4
90
50
90
51
90
66
90
65
90
4
90
51
90
52
90
67
90
66
90
4
90
52
90
53
90
68
90
67
90
4
90
53
90
54
90
69
90
68
90
4
90
54
90
55
90
70
90
69
90
4
90
55
90
56
90
71
90
70
90
4
90
56
90
57
90
72
90
71
90
4
90
57
90
58
90
73
90
72
90
4
90
58
90
59
90
74
90
73
90
4
90
60
90
61
90
76
90
75
90
4
90
61
90
62
90
77
90
76
90
4
90
62
90
63
90
78
90
77
90
4
90
63
90
64
90
79
90
78
90
4
90
64
90
65
90
80
90
79
90
4
90
65
90
66
90
81
90
80
90
4
90
66
90
67
90
82
90
81
90
4
90
67
90
68
90
83
90
82
90
4
90
68
90
69
90
84
90
83
90
4
90
69
90
70
90
85
90
84
90
4
90
70
90
71
90
86
90
85
90
4
90
71
90
72
90
87
90
86
90
4
90
72
90
73
90
88
90
87
90
4
90
73
90
74
90
89
90
88
90
4
90
75
90
76
90
91
90
90
90
4
90
76
90
77
90
92
90
91
90
4
90
77
90
78
90
93
90
92
90
4
90
78
90
79
90
94
90
93
90
4
90
79
90
80
90
95
90
94
90
4
90
80
90
81
90
96
90
95
90
4
90
81
90
82
90
97
90
96
90
4
90
82
90
83
90
98
90
97
90
4
90
83
90
84
90
99
90
98
90
4
90
84
90
85
90
100
90
99
90
4
90
85
90
86
90
101
90
100
90
4
90
86
90
87
90
102
90
101
90
4
90
87
90
88
90
103
90
102
90
4
90
88
90
89
90
104
90
103
90
4
90
90
90
91
90
106
90
105
90
4
90
91
90
92
90
107
90
106
90
4
90
92
90
93
90
108
90
107
90
4
90
93
90
94
90
109
90
108
90
4
90
94
90
95
90
110
90
109
90
4
90
95
90
96
90
111
90
110
90
4
90
96
90
97
90
112
90
111
90
4
90
97
90
98
90
113
90
112
90
4
90
98
90
99
90
114
90
113
90
4
90
99
90
100
90
115
90
114
90
4
90
100
90
101
90
116
90
115
90
4
90
101
90
102
90
117
90
116
90
4
90
102
90
103
90
118
90
117
90
4
90
103
90
104
90
119
90
118
90
4
90
105
90
106
90
121
90
120
90
4
90
106
90
107
90
122
90
121
90
4
90
107
90
108
90
123
90
122
90
4
90
108
90
109
90
124
90
123
90
4
90
109
90
110
90
125
90
124
90
4
90
110
90
111
90
126
90
125
90
4
90
111
90
112
90
127
90
126
90
4
90
112
90
113
90
128
90
127
90
4
90
113
90
114
90
129
90
128
90
4
90
114
90
115
90
130
90
129
90
4
90
115
90
116
90
131
90
130
90
4
90
116
90
117
90
132
90
131
90
4
90
117
90
118
90
133
90
132
90
4
90
118
90
119
90
134
90
133
90
4
90
120
90
121
90
136
90
135
90
4
90
121
90
122
90
137
90
136
90
4
90
122
90
123
90
138
90
137
90
4
90
123
90
124
90
139
90
138
90
4
90
124
90
125
90
140
90
139
90
4
90
125
90
126
90
141
90
140
90
4
90
126
90
127
90
142
90
141
90
4
90
127
90
128
90
143
90
142
90
4
90
128
90
129
90
144
90
143
90
4
90
129
90
130
90
145
90
144
90
4
90
130
90
131
90
146
90
145
90
4
90
131
90
132
90
147
90
146
90
4
90
132
90
133
90
148
90
147
90
4
90
133
90
134
90
149
90
148
90
4
90
135
90
136
90
151
90
150
90
4
90
136
90
137
90
152
90
151
90
4
90
137
90
138
90
153
90
152
90
4
90
138
90
139
90
154
90
153
90
4
90
139
90
140
90
155
90
154
90
4
90
140
90
141
90
156
90
155
90
4
90
141
90
142
90
157
90
156
90
4
90
142
90
143
90
158
90
157
90
4
90
143
90
144
90
159
90
158
90
4
90
144
90
145
90
160
90
159
90
4
90
145
90
146
90
161
90
160
90
4
90
146
90
147
90
162
90
161
90
4
90
147
90
148
90
163
90
162
90
4
90
148
90
149
90
164
90
163
90
4
90
150
90
151
90
166
90
165
90
4
90
151
90
152
90
167
90
166
90
4
90
152
90
153
90
168
90
167
90
4
90
153
90
154
90
169
90
168
90
4
90
154
90
155
90
170
90
169
90
4
90
155
90
156
90
171
90
170
90
4
90
156
90
157
90
172
90
171
90
4
90
157
90
158
90
173
90
172
90
4
90
158
90
159
90
174
90
173
90
4
90
159
90
160
90
175
90
174
90
4
90
160
90
161
90
176
90
175
90
4
90
161
90
162
90
177
90
176
90
4
90
162
90
163
90
178
90
177
90
4
90
163
90
164
90
179
90
178
94
0
95
0
  0
ENDSEC
  0
SECTION
  2
OBJECTS
  0
DICTIONARY
  5
C
330
0
100
AcDbDictionary
281
1
  3
ACAD_COLOR
350
4D3
  3
ACAD_GROUP
350
4D4
  3
ACAD_LAYOUT
350
4D5
  3
ACAD_MATERIAL
350
4D6
  3
ACAD_MLEADERSTYLE
350
4D7
  3
ACAD_MLINESTYLE
350
4D8
  3
ACAD_PLOTSETTINGS
350
4D9
  3
ACAD_PLOTSTYLENAME
350
4DB
  3
ACAD_SCALELIST
350
4DC
  3
ACAD_TABLESTYLE
350
4DD
  3
ACAD_VISUALSTYLE
350
4DE
  0
DICTIONARY
  5
4D3
330
C
100
AcDbDictionary
281
1
  0
DICTIONARY
  5
4D4
330
C
100
AcDbDictionary
281
1
  0
DICTIONARY
  5
4D5
330
C
100
AcDbDictionary
281
1
  3
Model
350
4DF
  3
Layout1
350
4E0
  0
DICTIONARY
  5
4D6
330
C
100
AcDbDictionary
281
1
  0
DICTIONARY
  5
4D7
330
C
100
AcDbDictionary
281
1
  0
DICTIONARY
  5
4D8
330
C
100
AcDbDictionary
281
1
  0
DICTIONARY
  5
4D9
330
C
100
AcDbDictionary
281
1
  0
ACDBPLACEHOLDER
  5
4DA
330
4DB
  0
ACDBDICTIONARYWDFLT
  5
4DB
330
C
100
AcDbDictionary
281
1
  3
Normal
350
4DA
100
AcDbDictionaryWithDefault
340
4DA
  0
DICTIONARY
  5
4DC
330
C
100
AcDbDictionary
281
1
  0
DICTIONARY
  5
4DD
330
C
100
AcDbDictionary
281
1
  0
DICTIONARY
  5
4DE
330
C
100
AcDbDictionary
281
1
  0
LAYOUT
  5
4DF
330
4D5
100
AcDbPlotSettings
  1

  2
DWFx ePlot (XPS Compatible).pc3
  4
ANSI_A_(8.50_x_11.00_Inches)
  6

 40
5.8
 41
17.8
 42
5.8
 43
17.8
 44
215.9
 45
279.4
 46
0.0
 47
0.0
 48
0.0
 49
0.0
140
0.0
141
0.0
142
1.0
143
14.53
 70
11952
 72
0
 73
1
 74
0
  7

 75
0
147
0.069
148
114.98
149
300.29
100
AcDbLayout
  1
Model
 70
1
 71
0
 10
0.0
 20
0.0
 11
12.0
 21
9.0
 12
0.0
 22
0.0
 32
0.0
 14
0.0
 24
0.0
 34
0.0
 15
0.0
 25
0.0
 35
0.0
146
0.0
 13
0.0
 23
0.0
 33
0.0
 16
1.0
 26
0.0
 36
0.0
 17
0.0
 27
1.0
 37
0.0
 76
0
330
1F
  0
LAYOUT
  5
4E0
330
4D5
100
AcDbPlotSettings
  1

  2
DWFx ePlot (XPS Compatible).pc3
  4
ANSI_A_(8.50_x_11.00_Inches)
  6

 40
5.8
 41
17.8
 42
5.8
 43
17.8
 44
215.9
 45
279.4
 46
0.0
 47
0.0
 48
0.0
 49
0.0
140
0.0
141
0.0
142
1.0
143
1.0
 70
688
 72
0
 73
1
 74
5
  7
acad.ctb
 75
16
147
1.0
148
0.0
149
0.0
100
AcDbLayout
  1
Layout1
 70
1
 71
1
 10
-0.7
 20
-0.23
 11
10.3
 21
8.27
 12
0.0
 22
0.0
 32
0.0
 14
0.63
 24
0.8
 34
0.0
 15
9.0
 25
7.2
 35
0.0
146
0.0
 13
0.0
 23
0.0
 33
0.0
 16
1.0
 26
0.0
 36
0.0
 17
0.0
 27
1.0
 37
0.0
 76
0
330
58
  0
ENDSEC
  0
EOF
